<svg width="168" height="35" viewBox="0 0 168 35" fill="none" xmlns="http://www.w3.org/2000/svg">
<g clip-path="url(#clip0_1_2041)">
<path d="M53.1613 25.8619C51.8008 25.8619 50.585 25.5546 49.5138 24.9399C48.4426 24.3252 47.5974 23.489 46.9737 22.4269C46.35 21.3693 46.0381 20.167 46.0381 18.8246C46.0381 17.4823 46.3454 16.3071 46.9601 15.2495C47.5748 14.1919 48.4064 13.3512 49.4596 12.7365C50.5081 12.1218 51.6878 11.8145 52.994 11.8145C54.2234 11.8145 55.3217 12.0992 56.2844 12.6642C57.2471 13.2337 58.0019 14.0156 58.5398 15.019C59.0776 16.0224 59.3488 17.1659 59.3488 18.454C59.3488 18.6438 59.3398 18.8472 59.3217 19.0642C59.3036 19.2811 59.2629 19.5252 59.2087 19.7873H47.8279V17.6585H57.8437L56.9081 18.4811C56.9081 17.5726 56.7454 16.8043 56.4245 16.167C56.1036 15.5342 55.6471 15.0416 55.0641 14.6935C54.4765 14.3455 53.7669 14.1693 52.9353 14.1693C52.1036 14.1693 51.2991 14.3591 50.6347 14.7387C49.9748 15.1184 49.4596 15.6472 49.1025 16.3297C48.7454 17.0122 48.5646 17.8167 48.5646 18.7433C48.5646 19.6698 48.7545 20.515 49.1341 21.2246C49.5138 21.9342 50.0516 22.4811 50.7522 22.8698C51.4528 23.2585 52.2573 23.4529 53.1658 23.4529C53.9206 23.4529 54.6166 23.3218 55.2539 23.0551C55.8867 22.7885 56.4336 22.3952 56.8855 21.8619L58.5307 23.5342C57.8663 24.289 57.0754 24.8676 56.1488 25.2653C55.2223 25.663 54.2279 25.8619 53.1703 25.8619H53.1613Z" fill="white"/>
<path d="M66.7569 25.5776L60.5693 12.0996H63.4078L68.375 23.4804H66.7298L71.7241 12.0996H74.4496L68.262 25.5776H66.7569Z" fill="white"/>
<path d="M82.8741 25.8619C81.5137 25.8619 80.2979 25.5546 79.2267 24.9399C78.1555 24.3252 77.3103 23.489 76.6866 22.4269C76.0628 21.3693 75.751 20.167 75.751 18.8246C75.751 17.4823 76.0583 16.3071 76.673 15.2495C77.2877 14.1919 78.1193 13.3512 79.1724 12.7365C80.221 12.1218 81.4007 11.8145 82.7069 11.8145C83.9363 11.8145 85.0346 12.0992 85.9973 12.6642C86.96 13.2337 87.7148 14.0156 88.2527 15.019C88.7905 16.0224 89.0617 17.1659 89.0617 18.454C89.0617 18.6438 89.0527 18.8472 89.0346 19.0642C89.0165 19.2811 88.9804 19.5252 88.9216 19.7873H77.5408V17.6585H87.5566L86.621 18.4811C86.621 17.5726 86.4583 16.8043 86.1374 16.167C85.8165 15.5342 85.36 15.0416 84.777 14.6935C84.1894 14.3455 83.4798 14.1693 82.6481 14.1693C81.8165 14.1693 81.012 14.3591 80.3476 14.7387C79.6832 15.1184 79.1724 15.6472 78.8154 16.3297C78.4583 17.0122 78.2775 17.8167 78.2775 18.7433C78.2775 19.6698 78.4674 20.515 78.847 21.2246C79.2267 21.9342 79.7645 22.4811 80.4651 22.8698C81.1657 23.2585 81.9702 23.4529 82.8787 23.4529C83.6335 23.4529 84.3295 23.3218 84.9623 23.0551C85.595 22.7885 86.1419 22.3952 86.5939 21.8619L88.2391 23.5342C87.5747 24.289 86.7837 24.8676 85.8572 25.2653C84.9306 25.663 83.9363 25.8619 82.8787 25.8619H82.8741Z" fill="white"/>
<path d="M91.8418 25.5775V12.0996H94.3955V25.5775H91.8418ZM94.3955 17.9165L93.4328 17.4645C93.4328 15.7425 93.8305 14.373 94.626 13.3515C95.4215 12.3301 96.565 11.8193 98.061 11.8193C98.7435 11.8193 99.3582 11.9369 99.9051 12.1719C100.452 12.4069 100.963 12.8001 101.437 13.3515L99.7604 15.0826C99.4757 14.7798 99.1638 14.5628 98.8248 14.4318C98.4859 14.3007 98.0881 14.2329 97.6316 14.2329C96.687 14.2329 95.9096 14.5357 95.3039 15.1414C94.6983 15.747 94.3955 16.6736 94.3955 17.921V17.9165Z" fill="white"/>
<path d="M102.847 14.427V12.0993H112.04V14.427H102.847ZM106.169 25.5773V6.4541H108.722V25.5818H106.169V25.5773Z" fill="white"/>
<path d="M114.535 25.5775V12.0996H117.089V25.5775H114.535ZM117.089 17.9165L116.126 17.4645C116.126 15.7425 116.524 14.373 117.319 13.3515C118.115 12.3301 119.258 11.8193 120.754 11.8193C121.437 11.8193 122.052 11.9369 122.598 12.1719C123.145 12.4069 123.656 12.8001 124.131 13.3515L122.454 15.0826C122.169 14.7798 121.857 14.5628 121.518 14.4318C121.179 14.3007 120.781 14.2329 120.325 14.2329C119.38 14.2329 118.603 14.5357 117.997 15.1414C117.392 15.747 117.089 16.6736 117.089 17.921V17.9165Z" fill="white"/>
<path d="M131.733 25.8619C130.372 25.8619 129.156 25.5546 128.085 24.9399C127.014 24.3252 126.169 23.489 125.545 22.4269C124.921 21.3693 124.609 20.167 124.609 18.8246C124.609 17.4823 124.917 16.3071 125.531 15.2495C126.146 14.1919 126.978 13.3512 128.026 12.7365C129.075 12.1218 130.255 11.8145 131.561 11.8145C132.79 11.8145 133.888 12.0992 134.851 12.6642C135.814 13.2337 136.569 14.0156 137.107 15.019C137.644 16.0224 137.916 17.1659 137.916 18.454C137.916 18.6438 137.907 18.8472 137.888 19.0642C137.87 19.2811 137.834 19.5252 137.775 19.7873H126.395V17.6585H136.41L135.475 18.4811C135.475 17.5726 135.312 16.8043 134.991 16.167C134.67 15.5342 134.214 15.0416 133.631 14.6935C133.043 14.3455 132.334 14.1693 131.502 14.1693C130.67 14.1693 129.866 14.3591 129.201 14.7387C128.542 15.1184 128.026 15.6472 127.669 16.3297C127.308 17.0122 127.131 17.8167 127.131 18.7433C127.131 19.6698 127.321 20.515 127.701 21.2246C128.081 21.9342 128.618 22.4811 129.319 22.8698C130.02 23.2585 130.824 23.4529 131.733 23.4529C132.487 23.4529 133.183 23.3218 133.821 23.0551C134.453 22.7885 135 22.3952 135.452 21.8619L137.097 23.5342C136.433 24.289 135.642 24.8676 134.716 25.2653C133.789 25.663 132.795 25.8619 131.737 25.8619H131.733Z" fill="white"/>
<path d="M146.942 25.8619C145.582 25.8619 144.366 25.5546 143.295 24.9399C142.224 24.3252 141.379 23.489 140.755 22.4269C140.131 21.3693 139.819 20.167 139.819 18.8246C139.819 17.4823 140.127 16.3071 140.741 15.2495C141.356 14.1919 142.188 13.3512 143.236 12.7365C144.285 12.1218 145.465 11.8145 146.771 11.8145C148 11.8145 149.098 12.0992 150.061 12.6642C151.024 13.2337 151.779 14.0156 152.317 15.019C152.854 16.0224 153.126 17.1659 153.126 18.454C153.126 18.6438 153.117 18.8472 153.098 19.0642C153.08 19.2811 153.044 19.5252 152.985 19.7873H141.605V17.6585H151.62L150.685 18.4811C150.685 17.5726 150.522 16.8043 150.201 16.167C149.88 15.5342 149.424 15.0416 148.841 14.6935C148.253 14.3455 147.544 14.1693 146.712 14.1693C145.88 14.1693 145.076 14.3591 144.411 14.7387C143.752 15.1184 143.236 15.6472 142.879 16.3297C142.518 17.0122 142.341 17.8167 142.341 18.7433C142.341 19.6698 142.531 20.515 142.911 21.2246C143.291 21.9342 143.828 22.4811 144.529 22.8698C145.229 23.2585 146.034 23.4529 146.942 23.4529C147.697 23.4529 148.393 23.3218 149.031 23.0551C149.663 22.7885 150.21 22.3952 150.662 21.8619L152.307 23.5342C151.643 24.289 150.852 24.8676 149.926 25.2653C148.999 25.663 148.005 25.8619 146.947 25.8619H146.942Z" fill="white"/>
<path d="M155.909 25.5774V12.0994H158.463V25.5774H155.909ZM165.414 25.5774V17.7175C165.414 16.6961 165.098 15.8554 164.465 15.191C163.832 14.5311 163.005 14.1966 161.984 14.1966C161.301 14.1966 160.696 14.3503 160.167 14.6486C159.638 14.9514 159.222 15.3672 158.919 15.8961C158.617 16.4249 158.467 17.0305 158.467 17.713L157.419 17.1164C157.419 16.0949 157.645 15.1865 158.101 14.391C158.553 13.5955 159.191 12.9672 160.004 12.5017C160.818 12.0407 161.735 11.8057 162.757 11.8057C163.778 11.8057 164.682 12.0588 165.468 12.574C166.255 13.0848 166.874 13.7537 167.326 14.5763C167.778 15.3989 168.009 16.2757 168.009 17.2023V25.5729H165.428L165.414 25.5774Z" fill="white"/>
<path d="M18.9696 0.0819476C8.31193 -0.930482 -0.632701 7.80624 0.0362253 18.4051C0.578598 27.0605 7.59329 34.0435 16.2487 34.5543C20.0046 34.7757 23.5255 33.7904 26.4543 31.9464C26.7436 31.7656 27.0238 31.5757 27.2995 31.3814C28.0814 30.8254 28.4837 29.8673 28.3526 28.9181C28.2939 28.4842 28.2215 28.0593 28.1357 27.639C27.8238 26.1294 27.3311 24.7102 26.6667 23.3904C26.5357 23.1328 26.4001 22.8797 26.26 22.6266C25.9255 22.0435 25.1074 20.9678 25.0396 20.8819C23.6792 19.1644 21.9707 17.8944 19.991 16.9769C19.3583 16.6831 18.7074 16.4164 18.0656 16.1407C17.9481 16.091 17.8306 16.0413 17.7085 16.0051C17.2114 15.8514 16.7594 16.0277 16.5289 16.4616C16.3074 16.8865 16.4385 17.3565 16.8724 17.6729C17.0939 17.8311 17.3424 17.9351 17.5865 18.0571C19.2453 18.8706 20.8633 19.7656 22.2645 20.9995C22.7797 21.4514 23.2227 21.9802 23.6114 22.5407C23.9232 22.9882 23.9413 23.0108 23.5616 23.2367C22.6984 23.752 21.7447 23.9916 20.7594 24.1181C20.1311 24.1995 19.4984 24.2627 18.8566 24.2356C16.5605 24.1452 14.5402 23.3723 12.8091 21.8627C10.8792 20.1769 9.82154 18.03 9.47351 15.526C9.41024 15.065 9.4012 14.5949 9.41928 14.1294C9.46899 12.9633 9.3334 12.7554 9.83961 12.9136C11.6972 13.4966 13.5142 13.2797 15.3085 12.6379C15.878 12.4345 16.4249 12.1723 16.9944 11.969C18.6939 11.3497 20.3391 11.5938 21.9571 12.2853C23.3085 12.8593 24.2215 13.8853 24.9628 15.1057C25.5368 16.0548 25.8984 17.0492 26.0023 18.1113C26.0159 18.2605 26.0746 18.4051 26.1786 18.5136C26.4046 18.7577 26.6713 19.0605 26.9605 19.4266C27.3492 19.9238 28.1673 19.6797 28.1944 19.0514C28.2125 18.5769 28.1899 18.0932 28.1176 17.6051C27.8057 15.4537 26.7933 13.6367 25.3379 12.0593C24.2577 10.8887 22.8656 10.2379 21.3515 9.82206C20.4882 9.58703 19.6114 9.41076 18.7165 9.46952C17.5142 9.54635 16.3571 9.84466 15.2679 10.3554C13.9526 10.9746 12.5831 11.2006 11.1368 11.074C10.6351 11.0288 10.1696 10.8978 9.73566 10.6492C9.54131 10.5362 9.35148 10.4187 9.16617 10.3012C8.89498 10.1339 8.62379 10.143 8.34809 10.2831C7.94131 10.491 7.69724 10.8164 7.58877 11.2684C7.17747 12.9949 7.11419 14.7305 7.44865 16.4752C8.08594 19.7656 9.73114 22.4187 12.4972 24.3351C14.278 25.569 16.2667 26.256 18.4272 26.3599C20.6012 26.4639 22.7074 26.1294 24.66 25.0808C24.6735 25.0718 24.6871 25.0673 24.7006 25.0582C24.8588 24.9588 24.9718 25.004 25.0441 25.1712C25.0893 25.2752 25.13 25.3746 25.1752 25.4786C25.6317 26.613 25.9436 27.7746 26.1244 28.9588C26.165 29.2119 26.052 29.465 25.8441 29.6141C23.0826 31.5441 19.643 32.5656 15.9639 32.2492C8.62832 31.6209 2.77973 25.6322 2.30967 18.2876C1.7447 9.23901 9.21589 1.75878 18.2464 2.31924C25.7673 2.78929 31.8328 8.88647 32.2667 16.4074C32.4475 19.5667 31.643 22.5226 30.1379 25.0175C30.0385 25.1848 30.0114 25.3791 30.0656 25.5644C30.1741 25.9351 30.2735 26.3192 30.3639 26.717C30.4995 27.3045 31.2679 27.4627 31.6068 26.9656C33.7221 23.8514 34.852 20.0141 34.5311 15.9057C33.8758 7.59833 27.2679 0.868388 18.9696 0.0819476Z" fill="white"/>
</g>
<defs>
<clipPath id="clip0_1_2041">
<rect width="168" height="34.5853" fill="white"/>
</clipPath>
</defs>
</svg>
