<?xml version="1.0" encoding="UTF-8" standalone="no"?>
<svg
   version="1.1"
   id="Banner_anim"
   viewBox="0 0 3741.5916 847.97405"
   xml:space="preserve"
   width="3741.5916"
   height="847.97406"
   preserveAspectRatio="xMaxYMid slice"
   sodipodi:docname="IndusFoods_Animated_Logo_Horizontal_Multi_Shade.svg"
   inkscape:export-filename="IndusFoods_Animated_Logo.svg"
   inkscape:export-xdpi="25.65753"
   inkscape:export-ydpi="25.65753"
   inkscape:version="1.4.2 (f4327f4, 2025-05-13)"
   xmlns:inkscape="http://www.inkscape.org/namespaces/inkscape"
   xmlns:sodipodi="http://sodipodi.sourceforge.net/DTD/sodipodi-0.dtd"
   xmlns:xlink="http://www.w3.org/1999/xlink"
   xmlns="http://www.w3.org/2000/svg"
   xmlns:svg="http://www.w3.org/2000/svg"><sodipodi:namedview
   id="namedview1"
   pagecolor="#ffffff"
   bordercolor="#000000"
   borderopacity="0.25"
   inkscape:showpageshadow="2"
   inkscape:pageopacity="0.0"
   inkscape:pagecheckerboard="0"
   inkscape:deskcolor="#d1d1d1"
   inkscape:zoom="0.46736842"
   inkscape:cx="1924.6059"
   inkscape:cy="193.63739"
   inkscape:window-width="3440"
   inkscape:window-height="1411"
   inkscape:window-x="2391"
   inkscape:window-y="-9"
   inkscape:window-maximized="1"
   inkscape:current-layer="Banner_anim"
   showgrid="true"><inkscape:grid
     id="grid1"
     units="px"
     originx="0"
     originy="0"
     spacingx="1"
     spacingy="0.99999999"
     empcolor="#0099e5"
     empopacity="0.30196078"
     color="#0099e5"
     opacity="0.14901961"
     empspacing="5"
     enabled="true"
     visible="true" /></sodipodi:namedview>
  <defs
   id="defs6"><linearGradient
     id="linearGradient6"
     inkscape:collect="always"><stop
       style="stop-color:#0a7ea8;stop-opacity:1;"
       offset="0.04888889"
       id="stop6" /><stop
       style="stop-color:#2eade2;stop-opacity:1;"
       offset="0.59884059"
       id="stop7" /></linearGradient><linearGradient
     id="linearGradient4"
     inkscape:collect="always"><stop
       style="stop-color:#2eade2;stop-opacity:1;"
       offset="0"
       id="stop4" /><stop
       style="stop-color:#2eade2;stop-opacity:0;"
       offset="1"
       id="stop5" /></linearGradient><meshgradient
     id="meshgradient440-5"
     gradientUnits="userSpaceOnUse"
     x="0"
     y="-0.46438599">
      <meshrow
   id="meshrow444-3">
        <meshpatch
   id="meshpatch444-3">
          <stop
   path="c 257.008,0  514.016,0  771.025,0"
   style="stop-color:#ffffff;stop-opacity:1"
   id="stop441-1" />
          <stop
   path="c 0,118.448  0,236.896  0,355.344"
   style="stop-color:#000000;stop-opacity:1"
   id="stop442-8" />
          <stop
   path="c -257.008,0  -514.016,0  -771.025,0"
   style="stop-color:#ffffff;stop-opacity:1"
   id="stop443-9" />
          <stop
   path="c 0,-118.448  0,-236.896  0,-355.344"
   style="stop-color:#000000;stop-opacity:1"
   id="stop444-2" />
        </meshpatch>
      </meshrow>
    </meshgradient><linearGradient
     inkscape:collect="always"
     xlink:href="#linearGradient4"
     id="linearGradient5"
     x1="44.88213"
     y1="263.03924"
     x2="533.753"
     y2="263.03924"
     gradientUnits="userSpaceOnUse" /><linearGradient
     inkscape:collect="always"
     xlink:href="#linearGradient6"
     id="linearGradient7"
     x1="289.3176"
     y1="18.652626"
     x2="289.3176"
     y2="507.52353"
     gradientUnits="userSpaceOnUse" /></defs>
  
  <g
   shape-rendering="geometricPrecision"
   id="sunrays_wrap"
   transform="matrix(3.6761972,0,0,3.7068078,723.15849,370.68078)"
   style="display:inline">
    <g
   id="sunrays_expand">
       <animateTransform
   id="sunExpand"
   attributeName="transform"
   type="scale"
   from="1"
   to="6"
   begin="goldDraw.end+0.3s"
   dur="2.2s"
   fill="freeze"
   calcMode="spline"
   keySplines="0.25 0 0.2 1" /><g
   id="sunrays_spin"><animateTransform
     attributeName="transform"
     type="rotate"
     from="0 0 0"
     to="360 0 0"
     dur="30s"
     repeatCount="indefinite" /><path
     d="m 0,0 v -100 a 100,100 0 0 1 28.173255,4.052734 z"
     fill="#d4af37"
     id="path1-0"
     style="fill:#d8ca50;fill-opacity:1" /><path
     d="m 0,0 28.173255,-95.947266 a 100,100 0 0 1 25.923152,11.824462 z"
     fill="#e7d768"
     id="path2-9" /><path
     d="m 0,0 54.096407,-84.122804 a 100,100 0 0 1 21.47855,18.633647 z"
     fill="#d4af37"
     id="path3"
     style="fill:#d8ca50;fill-opacity:1" /><path
     d="m 0,0 75.574957,-65.489157 a 100,100 0 0 1 15.26556,23.7034 z"
     fill="#e7d768"
     id="path4" /><path
     d="m 0,0 90.840517,-41.785757 a 100,100 0 0 1 7.800482,24.853164 z"
     fill="#d4af37"
     id="path5-0"
     style="fill:#d8ca50;fill-opacity:1" /><path
     d="m 0,0 98.640999,-16.932593 a 100,100 0 0 1 0,33.865186 z"
     fill="#e7d768"
     id="path6" /><path
     d="M 0,0 98.640999,16.932593 A 100,100 0 0 1 90.840517,41.785757 Z"
     fill="#d4af37"
     id="path7"
     style="fill:#d8ca50;fill-opacity:1" /><path
     d="m 0,0 90.840517,41.785757 a 100,100 0 0 1 -15.26556,23.7034 z"
     fill="#e7d768"
     id="path8" /><path
     d="M 0,0 75.574957,65.489157 A 100,100 0 0 1 54.096407,84.122804 Z"
     fill="#d4af37"
     id="path9"
     style="fill:#d8ca50;fill-opacity:1" /><path
     d="M 0,0 54.096407,84.122804 A 100,100 0 0 1 28.173255,95.947266 Z"
     fill="#e7d768"
     id="path10" /><path
     d="M 0,0 28.173255,95.947266 A 100,100 0 0 1 0,100 Z"
     fill="#d4af37"
     id="path11"
     style="fill:#d8ca50;fill-opacity:1" /><path
     d="M 0,0 V 100 A 100,100 0 0 1 -28.173255,95.947266 Z"
     fill="#e7d768"
     id="path12" /><path
     d="M 0,0 -28.173255,95.947266 A 100,100 0 0 1 -54.096407,84.122804 Z"
     fill="#d4af37"
     id="path13"
     style="fill:#d8ca50;fill-opacity:1" /><path
     d="M 0,0 -54.096407,84.122804 A 100,100 0 0 1 -75.574957,65.489157 Z"
     fill="#e7d768"
     id="path14" /><path
     d="m 0,0 -75.574957,65.489157 a 100,100 0 0 1 -15.26556,-23.7034 z"
     fill="#d4af37"
     id="path15"
     style="fill:#d8ca50;fill-opacity:1" /><path
     d="M 0,0 -90.840517,41.785757 A 100,100 0 0 1 -98.640999,16.932593 Z"
     fill="#e7d768"
     id="path16" /><path
     d="m 0,0 -98.640999,16.932593 a 100,100 0 0 1 0,-33.865186 z"
     fill="#d4af37"
     id="path17"
     style="fill:#d8ca50;fill-opacity:1" /><path
     d="m 0,0 -98.640999,-16.932593 a 100,100 0 0 1 7.800482,-24.853164 z"
     fill="#e7d768"
     id="path18" /><path
     d="m 0,0 -90.840517,-41.785757 a 100,100 0 0 1 15.26556,-23.7034 z"
     fill="#d4af37"
     id="path19"
     style="fill:#d8ca50;fill-opacity:1" /><path
     d="m 0,0 -75.574957,-65.489157 a 100,100 0 0 1 21.47855,-18.633647 z"
     fill="#e7d768"
     id="path20" /><path
     d="m 0,0 -54.096407,-84.122804 a 100,100 0 0 1 25.923152,-11.824462 z"
     fill="#d4af37"
     id="path21"
     style="fill:#d8ca50;fill-opacity:1" /><path
     d="M 0,0 -28.173255,-95.947266 A 100,100 0 0 1 0,-100 Z"
     fill="#e7d768"
     id="path22" /></g>
     </g>
  </g>
  <g
   id="Mountain Block"
   style="display:inline;fill:none;fill-opacity:1"
   transform="matrix(4.0881351,0,0,-4.1186749,-183.48421,1551.1732)">
    <g
   id="paths"
   transform="translate(0.14868716,0.02045603)"
   style="display:inline;fill:none;fill-opacity:1"><path
   id="darkpath"
   style="baseline-shift:baseline;display:inline;overflow:visible;opacity:1;vector-effect:none;fill:#ffffff;fill-opacity:1;fill-rule:evenodd;stroke:none;stroke-linejoin:round;paint-order:fill markers stroke;enable-background:accumulate;stop-color:#000000;stop-opacity:1"
   d="m 278.49176,305.03514 c -0.597,-0.425 -3.53192,-2.50728 -8.21192,-5.98828 -5.265,-3.926 -12.73803,-9.60442 -21.45703,-16.75342 -8.691,-7.183 -18.71437,-15.73886 -28.52637,-26.04786 -4.848,-5.203 -9.74986,-10.74561 -13.60986,-17.55761 -0.949,-1.711 -1.81587,-3.5286 -2.46387,-5.5166 -0.641,-1.988 -1.11109,-4.18603 -0.89209,-6.62403 0.188,-2.418 1.37197,-5.01911 3.18897,-6.76611 1.792,-1.769 3.90601,-2.82371 5.93701,-3.55371 8.168,-2.742 16.18762,-1.8794 23.39062,-1.8794 7.343,0.101 14.56219,0.1007 21.49219,-0.1333 6.906,-0.234 13.57005,-0.68358 19.51905,-1.72558 5.899,-0.989 11.24268,-2.89934 13.42968,-5.46534 1.109,-1.25 1.6843,-2.62892 2.0083,-4.39892 0.301,-1.758 0.31116,-3.74968 0.13916,-5.72168 -0.324,-3.954 -0.66619,-4.29717 -1.34619,-7.36817 -0.711,-3.089 -1.3366,-5.54646 -1.7666,-7.23046 -0.1869,-0.70877 -0.38818,-1.57435 -0.56689,-2.33936 -0.002,-0.14324 -0.005,-0.28722 -0.006,-0.43066 l 15,-0.12452 c 8.5e-4,0.1025 0.002,0.20675 0.004,0.31202 h -1.64209 c 0.395,2.008 0.95681,4.8716 1.38281,7.3916 0.531,3.375 0.74631,4.06209 0.88331,9.24609 0.047,2.582 -0.0594,5.50023 -0.83643,8.76123 -0.754,3.227 -2.52346,6.93301 -5.41846,9.68701 -2.867,2.754 -6.32797,4.39945 -9.66797,5.48145 -3.375,1.09 -6.76187,1.66322 -10.17187,2.07422 -6.812,0.777 -13.77258,0.81174 -20.91358,0.63574 -7.141,-0.179 -14.44514,-0.61597 -21.84814,-1.14697 -3.734,-0.246 -7.44492,-0.64952 -10.94092,-0.70752 -3.523,-0.051 -7.08132,0.15922 -10.13232,1.05322 -1.512,0.442 -2.85184,1.09502 -3.77784,1.91602 -0.926,0.824 -1.45599,1.79128 -1.66699,3.09228 -0.399,2.633 0.72917,6.05558 2.22217,9.12158 3.109,6.246 7.58555,11.96872 12.03955,17.26172 9.058,10.574 18.58519,19.62494 26.84619,27.21094 8.297,7.574 15.45749,13.63283 20.50049,17.81983 4.492,3.731 7.31672,5.96122 7.88672,6.40722 0.0351,-0.0228 -0.007,0.007 -0.007,0.007 z"
   transform="translate(7.0201124,-8.6962897)" />

</g>
    <path
   id="mountain"
   style="display:inline;mix-blend-mode:normal;fill:url(#linearGradient7);fill-rule:nonzero;stroke:none;fill-opacity:1"
   d="m 334.34021,355.34419 c -16.942,-20.614 -32.55078,-39.61061 -48.55078,-59.07861 -0.043,0.031 -1.17241,1.04858 -0.12159,0.0864 -0.44402,-0.5802 -3.39472,-2.67622 -7.88672,-6.40722 -5.043,-4.187 -12.20348,-10.24583 -20.50048,-17.81983 -8.261,-7.586 -17.7882,-16.63694 -26.8462,-27.21094 -4.454,-5.293 -8.93055,-11.01571 -12.03955,-17.26171 -1.493,-3.066 -2.62117,-6.48859 -2.22217,-9.12159 0.211,-1.301 0.741,-2.26828 1.667,-3.09228 0.926,-0.821 2.26583,-1.47402 3.77783,-1.91602 3.051,-0.894 6.60932,-1.10422 10.13232,-1.05322 3.496,0.058 7.20692,0.46152 10.94092,0.70752 7.403,0.531 14.70715,0.96797 21.84815,1.14697 7.141,0.176 14.10157,0.14126 20.91357,-0.63574 3.41,-0.411 6.79688,-0.98422 10.17188,-2.07422 3.34,-1.082 6.80097,-2.72744 9.66797,-5.48144 2.895,-2.754 4.66445,-6.46002 5.41845,-9.68702 0.777,-3.261 0.88343,-6.17923 0.83643,-8.76123 -0.137,-5.184 -0.3523,-5.87109 -0.8833,-9.24609 -0.426,-2.52 -0.98781,-5.3836 -1.38281,-7.3916 h 220.5542 c 1.34,0 3.32329,-0.84591 3.74529,0.82209 0.528,2.098 -0.23252,5.85419 -1.25652,7.04119 -31.535,30.473 -62.08238,59.11679 -91.35938,88.98779 -9.668,9.856 -18.45657,14.0984 -30.66357,7.5044 -11.106,-6.004 -17.2667,-1.46452 -23.7627,7.91748 -16.59,23.965 -34.14024,47.2469 -52.19824,72.0249 z M 253.59802,319.4145 c -17.66,-23.246 -34.9603,-46.01263 -53.5503,-70.47363 -11.027,17.883 -22.80218,14.20694 -35.63818,5.08594 -7.508,-5.339 -16.07359,-9.20612 -24.22559,-13.62012 -2.688,-1.453 -7.07916,-4.39874 -8.11816,-3.53174 -11.918,9.902 -17.21126,-1.84446 -23.84326,-7.29346 -15.532004,-12.769 -30.604923,-26.11685 -45.815923,-39.27685 -4.953,-4.285 -9.829113,-8.69561 -16.891113,-14.99561 -0.633,-0.614 -0.754552,-2.54415 -0.527552,-3.25515 0.23,-0.714 0.894802,-1.00754 1.933802,-1.00754 H 295.86755 c 0.192,0.82 0.41702,1.79752 0.62402,2.58252 0.43,1.684 1.05561,4.14147 1.76661,7.23047 0.68,3.071 1.02219,3.41416 1.34619,7.36816 0.172,1.972 0.16184,3.96368 -0.13916,5.72168 -0.324,1.77 -0.8993,3.14893 -2.0083,4.39893 -2.187,2.566 -7.53069,4.47633 -13.42969,5.46533 -5.949,1.042 -12.61305,1.49158 -19.51905,1.72558 -6.93,0.234 -14.14918,0.2343 -21.49218,0.1333 -7.203,0 -15.22263,-0.8626 -23.39063,1.8794 -2.031,0.73 -4.14501,1.78471 -5.93701,3.55371 -1.817,1.747 -3.00097,4.34811 -3.18897,6.76611 -0.219,2.438 0.25109,4.63603 0.89209,6.62403 0.648,1.988 1.51487,3.8056 2.46387,5.5166 3.86,6.812 8.76187,12.35462 13.60987,17.55762 9.812,10.309 19.83536,18.86485 28.52636,26.04785 8.719,7.149 16.19203,12.82742 21.45703,16.75342 4.68,3.481 7.61492,5.56328 8.21192,5.98828 -11.121,7.996 -21.0625,15.14917 -32.0625,23.05517 z" />
  </g>
  <g
   id="snow"
   style="display:inline;fill:url(#meshgradient440-5);fill-opacity:1"
   transform="matrix(4.0881351,0,0,-4.1186749,-183.48421,1551.1732)">
    <path
   style="display:inline;fill:#ffffff;fill-opacity:1;fill-rule:nonzero;stroke:none"
   d="m 141.555,229.789 c -6.793,-7.809 -12.035,-16.141 -19.395,-21.59 -0.801,-0.594 -1.637,-1.133 -2.508,-1.633 -6.078,-3.48 -13.73,-4.769 -21.121,-5.98 9.512,16.633 22.649,27.437 43.024,29.203 z"
   id="path470-5" />
    <path
   style="display:inline;fill:#ffffff;fill-opacity:1;fill-rule:nonzero;stroke:none"
   d="m 317.066,284.758 c -11.086,-12.871 -20.687,-24.028 -30.664,-35.617 -0.507,3.547 -1.078,7.519 -1.707,11.886 -6.574,-8.925 -12.82,-17.41 -19.066,-25.89 -1.219,0.801 -2.438,1.597 -3.652,2.398 6.074,9.711 12.039,19.5 18.265,29.11 4.074,6.289 8.438,12.398 12.844,18.457 12.328,16.949 24.75,33.824 37.125,50.73 1.184,-0.5 2.363,-1 3.543,-1.496 0.809,-9.414 1.617,-18.832 2.488,-29.063 -8.062,-4.957 -16.679,-10.261 -27.965,-17.207 4.161,-1.562 6.93,-2.601 8.789,-3.308"
   id="path468-4" />
    <path
   style="display:inline;fill:#ffffff;fill-opacity:1;fill-rule:nonzero;stroke:none"
   d="m 365.066,223.207 v 0.004 c -0.257,2.062 -0.91,4.043 -1.726,5.98 -3.203,7.59 -8.945,14.547 -3.32,23.586 0.695,1.11 1.546,2.25 2.605,3.426 0.84,0.938 1.199,2.309 1.246,3.988 0.149,5.039 -2.496,12.805 -3.242,19.668 0,-0.004 0.004,-0.004 0.004,-0.004 v 0.004 c 4.238,-5.394 7.437,-11.023 9.652,-16.625 6.125,-15.488 4.504,-30.738 -5.219,-40.027"
   id="path467-3" />
    <path
   style="display:inline;fill:#ffffff;fill-opacity:1;fill-rule:nonzero;stroke:none"
   d="m 431.82,240.883 c -1.632,-3.274 -3.613,-7.274 -6.718,-13.524 -7.289,11.481 -13.641,21.493 -19.989,31.493 0.559,0.679 1.114,1.359 1.672,2.039 0.16,0.195 0.324,0.394 0.485,0.589 1.671,-1.402 3.347,-2.808 5.039,-4.226 6.031,-5.063 12.281,-10.309 19.511,-16.371"
   id="path117-1" />
  </g>
<script
   id="mesh_polyfill"
   type="text/javascript">
!function(){const t=&quot;http://www.w3.org/2000/svg&quot;,e=&quot;http://www.w3.org/1999/xlink&quot;,s=&quot;http://www.w3.org/1999/xhtml&quot;,r=2;if(document.createElementNS(t,&quot;meshgradient&quot;).x)return;const n=(t,e,s,r)=&gt;{let n=new x(.5*(e.x+s.x),.5*(e.y+s.y)),o=new x(.5*(t.x+e.x),.5*(t.y+e.y)),i=new x(.5*(s.x+r.x),.5*(s.y+r.y)),a=new x(.5*(n.x+o.x),.5*(n.y+o.y)),h=new x(.5*(n.x+i.x),.5*(n.y+i.y)),l=new x(.5*(a.x+h.x),.5*(a.y+h.y));return[[t,o,a,l],[l,h,i,r]]},o=t=&gt;{let e=t[0].distSquared(t[1]),s=t[2].distSquared(t[3]),r=.25*t[0].distSquared(t[2]),n=.25*t[1].distSquared(t[3]),o=e&gt;s?e:s,i=r&gt;n?r:n;return 18*(o&gt;i?o:i)},i=(t,e)=&gt;Math.sqrt(t.distSquared(e)),a=(t,e)=&gt;t.scale(2/3).add(e.scale(1/3)),h=t=&gt;{let e,s,r,n,o,i,a,h=new g;return t.match(/(\w+\(\s*[^)]+\))+/g).forEach(t=&gt;{let l=t.match(/[\w.-]+/g),d=l.shift();switch(d){case&quot;translate&quot;:2===l.length?e=new g(1,0,0,1,l[0],l[1]):(console.error(&quot;mesh.js: translate does not have 2 arguments!&quot;),e=new g(1,0,0,1,0,0)),h=h.append(e);break;case&quot;scale&quot;:1===l.length?s=new g(l[0],0,0,l[0],0,0):2===l.length?s=new g(l[0],0,0,l[1],0,0):(console.error(&quot;mesh.js: scale does not have 1 or 2 arguments!&quot;),s=new g(1,0,0,1,0,0)),h=h.append(s);break;case&quot;rotate&quot;:if(3===l.length&amp;&amp;(e=new g(1,0,0,1,l[1],l[2]),h=h.append(e)),l[0]){r=l[0]*Math.PI/180;let t=Math.cos(r),e=Math.sin(r);Math.abs(t)&lt;1e-16&amp;&amp;(t=0),Math.abs(e)&lt;1e-16&amp;&amp;(e=0),a=new g(t,e,-e,t,0,0),h=h.append(a)}else console.error(&quot;math.js: No argument to rotate transform!&quot;);3===l.length&amp;&amp;(e=new g(1,0,0,1,-l[1],-l[2]),h=h.append(e));break;case&quot;skewX&quot;:l[0]?(r=l[0]*Math.PI/180,n=Math.tan(r),o=new g(1,0,n,1,0,0),h=h.append(o)):console.error(&quot;math.js: No argument to skewX transform!&quot;);break;case&quot;skewY&quot;:l[0]?(r=l[0]*Math.PI/180,n=Math.tan(r),i=new g(1,n,0,1,0,0),h=h.append(i)):console.error(&quot;math.js: No argument to skewY transform!&quot;);break;case&quot;matrix&quot;:6===l.length?h=h.append(new g(...l)):console.error(&quot;math.js: Incorrect number of arguments for matrix!&quot;);break;default:console.error(&quot;mesh.js: Unhandled transform type: &quot;+d)}}),h},l=t=&gt;{let e=[],s=t.split(/[ ,]+/);for(let t=0,r=s.length-1;t&lt;r;t+=2)e.push(new x(parseFloat(s[t]),parseFloat(s[t+1])));return e},d=(t,e)=&gt;{for(let s in e)t.setAttribute(s,e[s])},c=(t,e,s,r,n)=&gt;{let o,i,a=[0,0,0,0];for(let h=0;h&lt;3;++h)e[h]&lt;t[h]&amp;&amp;e[h]&lt;s[h]||t[h]&lt;e[h]&amp;&amp;s[h]&lt;e[h]?a[h]=0:(a[h]=.5*((e[h]-t[h])/r+(s[h]-e[h])/n),o=Math.abs(3*(e[h]-t[h])/r),i=Math.abs(3*(s[h]-e[h])/n),a[h]&gt;o?a[h]=o:a[h]&gt;i&amp;&amp;(a[h]=i));return a},u=[[1,0,0,0,0,0,0,0,0,0,0,0,0,0,0,0],[0,0,0,0,1,0,0,0,0,0,0,0,0,0,0,0],[-3,3,0,0,-2,-1,0,0,0,0,0,0,0,0,0,0],[2,-2,0,0,1,1,0,0,0,0,0,0,0,0,0,0],[0,0,0,0,0,0,0,0,1,0,0,0,0,0,0,0],[0,0,0,0,0,0,0,0,0,0,0,0,1,0,0,0],[0,0,0,0,0,0,0,0,-3,3,0,0,-2,-1,0,0],[0,0,0,0,0,0,0,0,2,-2,0,0,1,1,0,0],[-3,0,3,0,0,0,0,0,-2,0,-1,0,0,0,0,0],[0,0,0,0,-3,0,3,0,0,0,0,0,-2,0,-1,0],[9,-9,-9,9,6,3,-6,-3,6,-6,3,-3,4,2,2,1],[-6,6,6,-6,-3,-3,3,3,-4,4,-2,2,-2,-2,-1,-1],[2,0,-2,0,0,0,0,0,1,0,1,0,0,0,0,0],[0,0,0,0,2,0,-2,0,0,0,0,0,1,0,1,0],[-6,6,6,-6,-4,-2,4,2,-3,3,-3,3,-2,-1,-2,-1],[4,-4,-4,4,2,2,-2,-2,2,-2,2,-2,1,1,1,1]],f=t=&gt;{let e=[];for(let s=0;s&lt;16;++s){e[s]=0;for(let r=0;r&lt;16;++r)e[s]+=u[s][r]*t[r]}return e},p=(t,e,s)=&gt;{const r=e*e,n=s*s,o=e*e*e,i=s*s*s;return t[0]+t[1]*e+t[2]*r+t[3]*o+t[4]*s+t[5]*s*e+t[6]*s*r+t[7]*s*o+t[8]*n+t[9]*n*e+t[10]*n*r+t[11]*n*o+t[12]*i+t[13]*i*e+t[14]*i*r+t[15]*i*o},y=t=&gt;{let e=[],s=[],r=[];for(let s=0;s&lt;4;++s)e[s]=[],e[s][0]=n(t[0][s],t[1][s],t[2][s],t[3][s]),e[s][1]=[],e[s][1].push(...n(...e[s][0][0])),e[s][1].push(...n(...e[s][0][1])),e[s][2]=[],e[s][2].push(...n(...e[s][1][0])),e[s][2].push(...n(...e[s][1][1])),e[s][2].push(...n(...e[s][1][2])),e[s][2].push(...n(...e[s][1][3]));for(let t=0;t&lt;8;++t){s[t]=[];for(let r=0;r&lt;4;++r)s[t][r]=[],s[t][r][0]=n(e[0][2][t][r],e[1][2][t][r],e[2][2][t][r],e[3][2][t][r]),s[t][r][1]=[],s[t][r][1].push(...n(...s[t][r][0][0])),s[t][r][1].push(...n(...s[t][r][0][1])),s[t][r][2]=[],s[t][r][2].push(...n(...s[t][r][1][0])),s[t][r][2].push(...n(...s[t][r][1][1])),s[t][r][2].push(...n(...s[t][r][1][2])),s[t][r][2].push(...n(...s[t][r][1][3]))}for(let t=0;t&lt;8;++t){r[t]=[];for(let e=0;e&lt;8;++e)r[t][e]=[],r[t][e][0]=s[t][0][2][e],r[t][e][1]=s[t][1][2][e],r[t][e][2]=s[t][2][2][e],r[t][e][3]=s[t][3][2][e]}return r};class x{constructor(t,e){this.x=t||0,this.y=e||0}toString(){return`(x=${this.x}, y=${this.y})`}clone(){return new x(this.x,this.y)}add(t){return new x(this.x+t.x,this.y+t.y)}scale(t){return void 0===t.x?new x(this.x*t,this.y*t):new x(this.x*t.x,this.y*t.y)}distSquared(t){let e=this.x-t.x,s=this.y-t.y;return e*e+s*s}transform(t){let e=this.x*t.a+this.y*t.c+t.e,s=this.x*t.b+this.y*t.d+t.f;return new x(e,s)}}class g{constructor(t,e,s,r,n,o){void 0===t?(this.a=1,this.b=0,this.c=0,this.d=1,this.e=0,this.f=0):(this.a=t,this.b=e,this.c=s,this.d=r,this.e=n,this.f=o)}toString(){return`affine: ${this.a} ${this.c} ${this.e} \n       ${this.b} ${this.d} ${this.f}`}append(t){t instanceof g||console.error(&quot;mesh.js: argument to Affine.append is not affine!&quot;);let e=this.a*t.a+this.c*t.b,s=this.b*t.a+this.d*t.b,r=this.a*t.c+this.c*t.d,n=this.b*t.c+this.d*t.d,o=this.a*t.e+this.c*t.f+this.e,i=this.b*t.e+this.d*t.f+this.f;return new g(e,s,r,n,o,i)}}class w{constructor(t,e){this.nodes=t,this.colors=e}paintCurve(t,e){if(o(this.nodes)&gt;r){const s=n(...this.nodes);let r=[[],[]],o=[[],[]];for(let t=0;t&lt;4;++t)r[0][t]=this.colors[0][t],r[1][t]=(this.colors[0][t]+this.colors[1][t])/2,o[0][t]=r[1][t],o[1][t]=this.colors[1][t];let i=new w(s[0],r),a=new w(s[1],o);i.paintCurve(t,e),a.paintCurve(t,e)}else{let s=Math.round(this.nodes[0].x);if(s&gt;=0&amp;&amp;s&lt;e){let r=4*(~~this.nodes[0].y*e+s);t[r]=Math.round(this.colors[0][0]),t[r+1]=Math.round(this.colors[0][1]),t[r+2]=Math.round(this.colors[0][2]),t[r+3]=Math.round(this.colors[0][3])}}}}class m{constructor(t,e){this.nodes=t,this.colors=e}split(){let t=[[],[],[],[]],e=[[],[],[],[]],s=[[[],[]],[[],[]]],r=[[[],[]],[[],[]]];for(let s=0;s&lt;4;++s){const r=n(this.nodes[0][s],this.nodes[1][s],this.nodes[2][s],this.nodes[3][s]);t[0][s]=r[0][0],t[1][s]=r[0][1],t[2][s]=r[0][2],t[3][s]=r[0][3],e[0][s]=r[1][0],e[1][s]=r[1][1],e[2][s]=r[1][2],e[3][s]=r[1][3]}for(let t=0;t&lt;4;++t)s[0][0][t]=this.colors[0][0][t],s[0][1][t]=this.colors[0][1][t],s[1][0][t]=(this.colors[0][0][t]+this.colors[1][0][t])/2,s[1][1][t]=(this.colors[0][1][t]+this.colors[1][1][t])/2,r[0][0][t]=s[1][0][t],r[0][1][t]=s[1][1][t],r[1][0][t]=this.colors[1][0][t],r[1][1][t]=this.colors[1][1][t];return[new m(t,s),new m(e,r)]}paint(t,e){let s,n=!1;for(let t=0;t&lt;4;++t)if((s=o([this.nodes[0][t],this.nodes[1][t],this.nodes[2][t],this.nodes[3][t]]))&gt;r){n=!0;break}if(n){let s=this.split();s[0].paint(t,e),s[1].paint(t,e)}else{new w([...this.nodes[0]],[...this.colors[0]]).paintCurve(t,e)}}}class b{constructor(t){this.readMesh(t),this.type=t.getAttribute(&quot;type&quot;)||&quot;bilinear&quot;}readMesh(t){let e=[[]],s=[[]],r=Number(t.getAttribute(&quot;x&quot;)),n=Number(t.getAttribute(&quot;y&quot;));e[0][0]=new x(r,n);let o=t.children;for(let t=0,r=o.length;t&lt;r;++t){e[3*t+1]=[],e[3*t+2]=[],e[3*t+3]=[],s[t+1]=[];let r=o[t].children;for(let n=0,o=r.length;n&lt;o;++n){let o=r[n].children;for(let r=0,i=o.length;r&lt;i;++r){let i=r;0!==t&amp;&amp;++i;let h,d=o[r].getAttribute(&quot;path&quot;),c=&quot;l&quot;;null!=d&amp;&amp;(c=(h=d.match(/\s*([lLcC])\s*(.*)/))[1]);let u=l(h[2]);switch(c){case&quot;l&quot;:0===i?(e[3*t][3*n+3]=u[0].add(e[3*t][3*n]),e[3*t][3*n+1]=a(e[3*t][3*n],e[3*t][3*n+3]),e[3*t][3*n+2]=a(e[3*t][3*n+3],e[3*t][3*n])):1===i?(e[3*t+3][3*n+3]=u[0].add(e[3*t][3*n+3]),e[3*t+1][3*n+3]=a(e[3*t][3*n+3],e[3*t+3][3*n+3]),e[3*t+2][3*n+3]=a(e[3*t+3][3*n+3],e[3*t][3*n+3])):2===i?(0===n&amp;&amp;(e[3*t+3][3*n+0]=u[0].add(e[3*t+3][3*n+3])),e[3*t+3][3*n+1]=a(e[3*t+3][3*n],e[3*t+3][3*n+3]),e[3*t+3][3*n+2]=a(e[3*t+3][3*n+3],e[3*t+3][3*n])):(e[3*t+1][3*n]=a(e[3*t][3*n],e[3*t+3][3*n]),e[3*t+2][3*n]=a(e[3*t+3][3*n],e[3*t][3*n]));break;case&quot;L&quot;:0===i?(e[3*t][3*n+3]=u[0],e[3*t][3*n+1]=a(e[3*t][3*n],e[3*t][3*n+3]),e[3*t][3*n+2]=a(e[3*t][3*n+3],e[3*t][3*n])):1===i?(e[3*t+3][3*n+3]=u[0],e[3*t+1][3*n+3]=a(e[3*t][3*n+3],e[3*t+3][3*n+3]),e[3*t+2][3*n+3]=a(e[3*t+3][3*n+3],e[3*t][3*n+3])):2===i?(0===n&amp;&amp;(e[3*t+3][3*n+0]=u[0]),e[3*t+3][3*n+1]=a(e[3*t+3][3*n],e[3*t+3][3*n+3]),e[3*t+3][3*n+2]=a(e[3*t+3][3*n+3],e[3*t+3][3*n])):(e[3*t+1][3*n]=a(e[3*t][3*n],e[3*t+3][3*n]),e[3*t+2][3*n]=a(e[3*t+3][3*n],e[3*t][3*n]));break;case&quot;c&quot;:0===i?(e[3*t][3*n+1]=u[0].add(e[3*t][3*n]),e[3*t][3*n+2]=u[1].add(e[3*t][3*n]),e[3*t][3*n+3]=u[2].add(e[3*t][3*n])):1===i?(e[3*t+1][3*n+3]=u[0].add(e[3*t][3*n+3]),e[3*t+2][3*n+3]=u[1].add(e[3*t][3*n+3]),e[3*t+3][3*n+3]=u[2].add(e[3*t][3*n+3])):2===i?(e[3*t+3][3*n+2]=u[0].add(e[3*t+3][3*n+3]),e[3*t+3][3*n+1]=u[1].add(e[3*t+3][3*n+3]),0===n&amp;&amp;(e[3*t+3][3*n+0]=u[2].add(e[3*t+3][3*n+3]))):(e[3*t+2][3*n]=u[0].add(e[3*t+3][3*n]),e[3*t+1][3*n]=u[1].add(e[3*t+3][3*n]));break;case&quot;C&quot;:0===i?(e[3*t][3*n+1]=u[0],e[3*t][3*n+2]=u[1],e[3*t][3*n+3]=u[2]):1===i?(e[3*t+1][3*n+3]=u[0],e[3*t+2][3*n+3]=u[1],e[3*t+3][3*n+3]=u[2]):2===i?(e[3*t+3][3*n+2]=u[0],e[3*t+3][3*n+1]=u[1],0===n&amp;&amp;(e[3*t+3][3*n+0]=u[2])):(e[3*t+2][3*n]=u[0],e[3*t+1][3*n]=u[1]);break;default:console.error(&quot;mesh.js: &quot;+c+&quot; invalid path type.&quot;)}if(0===t&amp;&amp;0===n||r&gt;0){let e=window.getComputedStyle(o[r]).stopColor.match(/^rgb\s*\(\s*(\d+)\s*,\s*(\d+)\s*,\s*(\d+)\s*\)$/i),a=window.getComputedStyle(o[r]).stopOpacity,h=255;a&amp;&amp;(h=Math.floor(255*a)),e&amp;&amp;(0===i?(s[t][n]=[],s[t][n][0]=Math.floor(e[1]),s[t][n][1]=Math.floor(e[2]),s[t][n][2]=Math.floor(e[3]),s[t][n][3]=h):1===i?(s[t][n+1]=[],s[t][n+1][0]=Math.floor(e[1]),s[t][n+1][1]=Math.floor(e[2]),s[t][n+1][2]=Math.floor(e[3]),s[t][n+1][3]=h):2===i?(s[t+1][n+1]=[],s[t+1][n+1][0]=Math.floor(e[1]),s[t+1][n+1][1]=Math.floor(e[2]),s[t+1][n+1][2]=Math.floor(e[3]),s[t+1][n+1][3]=h):3===i&amp;&amp;(s[t+1][n]=[],s[t+1][n][0]=Math.floor(e[1]),s[t+1][n][1]=Math.floor(e[2]),s[t+1][n][2]=Math.floor(e[3]),s[t+1][n][3]=h))}}e[3*t+1][3*n+1]=new x,e[3*t+1][3*n+2]=new x,e[3*t+2][3*n+1]=new x,e[3*t+2][3*n+2]=new x,e[3*t+1][3*n+1].x=(-4*e[3*t][3*n].x+6*(e[3*t][3*n+1].x+e[3*t+1][3*n].x)+-2*(e[3*t][3*n+3].x+e[3*t+3][3*n].x)+3*(e[3*t+3][3*n+1].x+e[3*t+1][3*n+3].x)+-1*e[3*t+3][3*n+3].x)/9,e[3*t+1][3*n+2].x=(-4*e[3*t][3*n+3].x+6*(e[3*t][3*n+2].x+e[3*t+1][3*n+3].x)+-2*(e[3*t][3*n].x+e[3*t+3][3*n+3].x)+3*(e[3*t+3][3*n+2].x+e[3*t+1][3*n].x)+-1*e[3*t+3][3*n].x)/9,e[3*t+2][3*n+1].x=(-4*e[3*t+3][3*n].x+6*(e[3*t+3][3*n+1].x+e[3*t+2][3*n].x)+-2*(e[3*t+3][3*n+3].x+e[3*t][3*n].x)+3*(e[3*t][3*n+1].x+e[3*t+2][3*n+3].x)+-1*e[3*t][3*n+3].x)/9,e[3*t+2][3*n+2].x=(-4*e[3*t+3][3*n+3].x+6*(e[3*t+3][3*n+2].x+e[3*t+2][3*n+3].x)+-2*(e[3*t+3][3*n].x+e[3*t][3*n+3].x)+3*(e[3*t][3*n+2].x+e[3*t+2][3*n].x)+-1*e[3*t][3*n].x)/9,e[3*t+1][3*n+1].y=(-4*e[3*t][3*n].y+6*(e[3*t][3*n+1].y+e[3*t+1][3*n].y)+-2*(e[3*t][3*n+3].y+e[3*t+3][3*n].y)+3*(e[3*t+3][3*n+1].y+e[3*t+1][3*n+3].y)+-1*e[3*t+3][3*n+3].y)/9,e[3*t+1][3*n+2].y=(-4*e[3*t][3*n+3].y+6*(e[3*t][3*n+2].y+e[3*t+1][3*n+3].y)+-2*(e[3*t][3*n].y+e[3*t+3][3*n+3].y)+3*(e[3*t+3][3*n+2].y+e[3*t+1][3*n].y)+-1*e[3*t+3][3*n].y)/9,e[3*t+2][3*n+1].y=(-4*e[3*t+3][3*n].y+6*(e[3*t+3][3*n+1].y+e[3*t+2][3*n].y)+-2*(e[3*t+3][3*n+3].y+e[3*t][3*n].y)+3*(e[3*t][3*n+1].y+e[3*t+2][3*n+3].y)+-1*e[3*t][3*n+3].y)/9,e[3*t+2][3*n+2].y=(-4*e[3*t+3][3*n+3].y+6*(e[3*t+3][3*n+2].y+e[3*t+2][3*n+3].y)+-2*(e[3*t+3][3*n].y+e[3*t][3*n+3].y)+3*(e[3*t][3*n+2].y+e[3*t+2][3*n].y)+-1*e[3*t][3*n].y)/9}}this.nodes=e,this.colors=s}paintMesh(t,e){let s=(this.nodes.length-1)/3,r=(this.nodes[0].length-1)/3;if(&quot;bilinear&quot;===this.type||s&lt;2||r&lt;2){let n;for(let o=0;o&lt;s;++o)for(let s=0;s&lt;r;++s){let r=[];for(let t=3*o,e=3*o+4;t&lt;e;++t)r.push(this.nodes[t].slice(3*s,3*s+4));let i=[];i.push(this.colors[o].slice(s,s+2)),i.push(this.colors[o+1].slice(s,s+2)),(n=new m(r,i)).paint(t,e)}}else{let n,o,a,h,l,d,u;const x=s,g=r;s++,r++;let w=new Array(s);for(let t=0;t&lt;s;++t){w[t]=new Array(r);for(let e=0;e&lt;r;++e)w[t][e]=[],w[t][e][0]=this.nodes[3*t][3*e],w[t][e][1]=this.colors[t][e]}for(let t=0;t&lt;s;++t)for(let e=0;e&lt;r;++e)0!==t&amp;&amp;t!==x&amp;&amp;(n=i(w[t-1][e][0],w[t][e][0]),o=i(w[t+1][e][0],w[t][e][0]),w[t][e][2]=c(w[t-1][e][1],w[t][e][1],w[t+1][e][1],n,o)),0!==e&amp;&amp;e!==g&amp;&amp;(n=i(w[t][e-1][0],w[t][e][0]),o=i(w[t][e+1][0],w[t][e][0]),w[t][e][3]=c(w[t][e-1][1],w[t][e][1],w[t][e+1][1],n,o));for(let t=0;t&lt;r;++t){w[0][t][2]=[],w[x][t][2]=[];for(let e=0;e&lt;4;++e)n=i(w[1][t][0],w[0][t][0]),o=i(w[x][t][0],w[x-1][t][0]),w[0][t][2][e]=n&gt;0?2*(w[1][t][1][e]-w[0][t][1][e])/n-w[1][t][2][e]:0,w[x][t][2][e]=o&gt;0?2*(w[x][t][1][e]-w[x-1][t][1][e])/o-w[x-1][t][2][e]:0}for(let t=0;t&lt;s;++t){w[t][0][3]=[],w[t][g][3]=[];for(let e=0;e&lt;4;++e)n=i(w[t][1][0],w[t][0][0]),o=i(w[t][g][0],w[t][g-1][0]),w[t][0][3][e]=n&gt;0?2*(w[t][1][1][e]-w[t][0][1][e])/n-w[t][1][3][e]:0,w[t][g][3][e]=o&gt;0?2*(w[t][g][1][e]-w[t][g-1][1][e])/o-w[t][g-1][3][e]:0}for(let s=0;s&lt;x;++s)for(let r=0;r&lt;g;++r){let n=i(w[s][r][0],w[s+1][r][0]),o=i(w[s][r+1][0],w[s+1][r+1][0]),c=i(w[s][r][0],w[s][r+1][0]),x=i(w[s+1][r][0],w[s+1][r+1][0]),g=[[],[],[],[]];for(let t=0;t&lt;4;++t){(d=[])[0]=w[s][r][1][t],d[1]=w[s+1][r][1][t],d[2]=w[s][r+1][1][t],d[3]=w[s+1][r+1][1][t],d[4]=w[s][r][2][t]*n,d[5]=w[s+1][r][2][t]*n,d[6]=w[s][r+1][2][t]*o,d[7]=w[s+1][r+1][2][t]*o,d[8]=w[s][r][3][t]*c,d[9]=w[s+1][r][3][t]*x,d[10]=w[s][r+1][3][t]*c,d[11]=w[s+1][r+1][3][t]*x,d[12]=0,d[13]=0,d[14]=0,d[15]=0,u=f(d);for(let e=0;e&lt;9;++e){g[t][e]=[];for(let s=0;s&lt;9;++s)g[t][e][s]=p(u,e/8,s/8),g[t][e][s]&gt;255?g[t][e][s]=255:g[t][e][s]&lt;0&amp;&amp;(g[t][e][s]=0)}}h=[];for(let t=3*s,e=3*s+4;t&lt;e;++t)h.push(this.nodes[t].slice(3*r,3*r+4));l=y(h);for(let s=0;s&lt;8;++s)for(let r=0;r&lt;8;++r)(a=new m(l[s][r],[[[g[0][s][r],g[1][s][r],g[2][s][r],g[3][s][r]],[g[0][s][r+1],g[1][s][r+1],g[2][s][r+1],g[3][s][r+1]]],[[g[0][s+1][r],g[1][s+1][r],g[2][s+1][r],g[3][s+1][r]],[g[0][s+1][r+1],g[1][s+1][r+1],g[2][s+1][r+1],g[3][s+1][r+1]]]])).paint(t,e)}}}transform(t){if(t instanceof x)for(let e=0,s=this.nodes.length;e&lt;s;++e)for(let s=0,r=this.nodes[0].length;s&lt;r;++s)this.nodes[e][s]=this.nodes[e][s].add(t);else if(t instanceof g)for(let e=0,s=this.nodes.length;e&lt;s;++e)for(let s=0,r=this.nodes[0].length;s&lt;r;++s)this.nodes[e][s]=this.nodes[e][s].transform(t)}scale(t){for(let e=0,s=this.nodes.length;e&lt;s;++e)for(let s=0,r=this.nodes[0].length;s&lt;r;++s)this.nodes[e][s]=this.nodes[e][s].scale(t)}}document.querySelectorAll(&quot;rect,circle,ellipse,path,text&quot;).forEach((r,n)=&gt;{let o=r.getAttribute(&quot;id&quot;);o||(o=&quot;patchjs_shape&quot;+n,r.setAttribute(&quot;id&quot;,o));const i=r.style.fill.match(/^url\(\s*&quot;?\s*#([^\s&quot;]+)&quot;?\s*\)/),a=r.style.stroke.match(/^url\(\s*&quot;?\s*#([^\s&quot;]+)&quot;?\s*\)/);if(i&amp;&amp;i[1]){const a=document.getElementById(i[1]);if(a&amp;&amp;&quot;meshgradient&quot;===a.nodeName){const i=r.getBBox();let l=document.createElementNS(s,&quot;canvas&quot;);d(l,{width:i.width,height:i.height});const c=l.getContext(&quot;2d&quot;);let u=c.createImageData(i.width,i.height);const f=new b(a);&quot;objectBoundingBox&quot;===a.getAttribute(&quot;gradientUnits&quot;)&amp;&amp;f.scale(new x(i.width,i.height));const p=a.getAttribute(&quot;gradientTransform&quot;);null!=p&amp;&amp;f.transform(h(p)),&quot;userSpaceOnUse&quot;===a.getAttribute(&quot;gradientUnits&quot;)&amp;&amp;f.transform(new x(-i.x,-i.y)),f.paintMesh(u.data,l.width),c.putImageData(u,0,0);const y=document.createElementNS(t,&quot;image&quot;);d(y,{width:i.width,height:i.height,x:i.x,y:i.y});let g=l.toDataURL();y.setAttributeNS(e,&quot;xlink:href&quot;,g),r.parentNode.insertBefore(y,r),r.style.fill=&quot;none&quot;;const w=document.createElementNS(t,&quot;use&quot;);w.setAttributeNS(e,&quot;xlink:href&quot;,&quot;#&quot;+o);const m=&quot;patchjs_clip&quot;+n,M=document.createElementNS(t,&quot;clipPath&quot;);M.setAttribute(&quot;id&quot;,m),M.appendChild(w),r.parentElement.insertBefore(M,r),y.setAttribute(&quot;clip-path&quot;,&quot;url(#&quot;+m+&quot;)&quot;),u=null,l=null,g=null}}if(a&amp;&amp;a[1]){const o=document.getElementById(a[1]);if(o&amp;&amp;&quot;meshgradient&quot;===o.nodeName){const i=parseFloat(r.style.strokeWidth.slice(0,-2))*(parseFloat(r.style.strokeMiterlimit)||parseFloat(r.getAttribute(&quot;stroke-miterlimit&quot;))||1),a=r.getBBox(),l=Math.trunc(a.width+i),c=Math.trunc(a.height+i),u=Math.trunc(a.x-i/2),f=Math.trunc(a.y-i/2);let p=document.createElementNS(s,&quot;canvas&quot;);d(p,{width:l,height:c});const y=p.getContext(&quot;2d&quot;);let g=y.createImageData(l,c);const w=new b(o);&quot;objectBoundingBox&quot;===o.getAttribute(&quot;gradientUnits&quot;)&amp;&amp;w.scale(new x(l,c));const m=o.getAttribute(&quot;gradientTransform&quot;);null!=m&amp;&amp;w.transform(h(m)),&quot;userSpaceOnUse&quot;===o.getAttribute(&quot;gradientUnits&quot;)&amp;&amp;w.transform(new x(-u,-f)),w.paintMesh(g.data,p.width),y.putImageData(g,0,0);const M=document.createElementNS(t,&quot;image&quot;);d(M,{width:l,height:c,x:0,y:0});let S=p.toDataURL();M.setAttributeNS(e,&quot;xlink:href&quot;,S);const k=&quot;pattern_clip&quot;+n,A=document.createElementNS(t,&quot;pattern&quot;);d(A,{id:k,patternUnits:&quot;userSpaceOnUse&quot;,width:l,height:c,x:u,y:f}),A.appendChild(M),o.parentNode.appendChild(A),r.style.stroke=&quot;url(#&quot;+k+&quot;)&quot;,g=null,p=null,S=null}}})}();
</script><g
   id="logo_text"
   transform="matrix(0.56617502,0,0,0.56617502,1850.4511,94.829674)"
   style="fill:#2eade2;fill-opacity:1;stroke:#2eade2;stroke-width:8.69517;stroke-dasharray:none;stroke-opacity:1"><path
     d="m -2.3095935,-67.708206 c 14.7409765,-2.795332 28.7245135,-5.0261 41.9850695,-6.98834 13.281466,-1.914037 25.034167,-3.366788 35.285872,-4.468396 10.245181,-1.1567 18.796159,-1.989792 25.598732,-2.499281 6.86447,-0.564581 11.24334,-0.778014 13.10231,-0.778014 8.81963,0 13.12289,4.378903 13.12289,13.040306 V 390.65777 c 0,6.5408 -3.22899,10.30003 -9.79052,11.40852 -4.65438,0.8331 -9.79068,1.55603 -15.38132,2.28586 -5.569896,0.69538 -11.105499,1.23243 -16.406911,1.63863 -5.301746,0.42688 -10.245181,0.72295 -14.768577,0.80555 -4.516706,0.11024 -7.821474,0.18591 -10.031566,0.18591 -6.561359,0 -9.838693,-3.35992 -9.838693,-10.21743 V -9.1301146 c 0,-7.6906154 -0.784874,-13.8252004 -2.21026,-18.5827874 -1.500662,-4.922804 -3.738523,-8.530585 -6.609535,-11.325917 -2.877872,-2.767793 -6.299735,-4.626753 -10.279307,-5.700821 -3.896936,-1.156701 -8.38604,-1.666186 -13.281298,-1.666186 -5.996959,0 -12.0489529,0.426869 -18.04574457,1.21176 z"
     style="clip-rule:evenodd;fill:#2eade2;fill-opacity:1;fill-rule:nonzero;stroke:#2eade2;stroke-width:8.69517;stroke-linejoin:round;stroke-miterlimit:2;stroke-dasharray:none;stroke-opacity:1"
     id="path33-6" /><path
     d="m 644.3215,-89.409915 c 2.98811,0 5.30124,0.915711 6.93991,2.636975 1.63883,1.748806 3.54598,4.007111 5.75608,6.719828 L 940.26883,295.88491 930.02398,-71.825472 c 0,-3.249743 2.23084,-5.0261 6.56136,-5.349692 4.95046,-0.778015 11.53942,-1.58357 19.69144,-2.416662 8.19986,-0.839971 16.13157,-1.266841 23.80149,-1.266841 4.33069,0 6.56135,2.099933 6.56135,6.182785 l -9.84538,399.657042 v 75.09536 c 0,3.2222 -2.20323,4.99856 -6.58913,5.26707 -4.89542,0.53702 -10.45846,0.99833 -16.59309,1.26684 -6.16206,0.29607 -12.3723,0.37181 -18.66518,0.37181 -2.47188,0 -4.33069,-0.45441 -5.70087,-1.39766 -1.37019,-0.96392 -2.74723,-2.52682 -4.11741,-4.70249 L 639.80496,22.066091 650.04981,399.21589 c 0,3.27728 -2.20324,5.05364 -6.58896,5.32215 -4.89526,0.80555 -11.67024,1.53538 -20.27642,2.07239 -8.60634,0.53705 -16.35221,0.80557 -23.13404,0.80557 -4.37887,0 -6.58896,-2.07241 -6.58896,-6.10705 L 603.7133,-25.888356 570.09353,-71.825472 c -1.0741,-1.101607 -1.6385,-2.55436 -1.6385,-4.516598 0,-3.545809 2.44412,-6.051967 7.39458,-7.394563 4.33052,-0.805538 9.97636,-1.535352 16.77877,-2.285829 6.80943,-0.647199 13.77009,-1.266857 20.71017,-1.803883 6.96785,-0.481963 13.31576,-0.915727 19.04423,-1.211777 5.75591,-0.316715 9.70805,-0.371793 11.93872,-0.371793"
     style="clip-rule:evenodd;fill:#2eade2;fill-opacity:1;fill-rule:nonzero;stroke:#2eade2;stroke-width:8.69517;stroke-linejoin:round;stroke-miterlimit:2;stroke-dasharray:none;stroke-opacity:1"
     id="path34-1" /><path
     d="m 1513.3193,366.02301 c 10.4379,2.4511 20.9236,4.17235 31.5748,5.10873 10.6513,0.9157 21.7016,1.45273 33.2136,1.45273 32.7591,0 62.0481,-5.02608 87.7294,-14.95434 25.6607,-9.94893 47.2797,-24.31115 64.7403,-42.89393 17.5086,-18.50014 30.8175,-41.06938 39.9884,-67.58375 9.1433,-26.57632 13.6874,-56.26469 13.6874,-89.43003 0,-31.43718 -4.7024,-60.161663 -14.0867,-86.06324 -9.4672,-25.949816 -23.1889,-48.22297 -41.2071,-67.0467136 -18.0457,-18.7480194 -40.2089,-33.1860014 -66.4546,-43.4584964 -26.1976,-10.224311 -56.1272,-15.360567 -89.7468,-15.360567 h -20.8962 c -12.3243,0 -21.7637,1.046527 -28.4835,3.063844 -6.6992,2.072412 -10.059,7.587336 -10.059,16.620531 z m -66.4339,32.75912 c -6.5615,0 -9.7838,-3.35992 -9.7838,-10.21744 V -16.097793 c 0,-13.8734 -3.0432,-23.154461 -9.0401,-27.615981 -5.9967,-4.551029 -13.7976,-6.80932 -23.3678,-6.80932 -5.4874,0 -11.4843,0.433763 -18.0526,1.26684 l -2.4993,-22.135454 c 30.6315,-5.301508 61.5867,-9.329265 92.8933,-12.482619 31.3063,-3.194663 62.6677,-4.730032 94.1049,-4.730032 26.2251,0 51.8583,1.535369 76.8372,4.489057 25.0409,2.988122 48.519,8.041745 70.4963,15.147133 21.9978,7.153574 42.1986,16.510376 60.4852,28.290701 18.2868,11.780345 34.0741,26.383559 47.3898,43.8922599 13.2608,17.5087011 23.5606,38.1363381 30.9278,61.8829291 7.3946,23.801621 11.0503,51.211049 11.0503,82.407269 0,41.3379 -7.3118,78.0215 -21.9151,110.0508 -14.6306,32.08437 -35.0172,59.28035 -61.1047,81.41582 -26.1152,22.12858 -57.1254,38.91436 -93.0586,50.37109 -35.9057,11.53939 -75.0886,17.26773 -117.4454,17.26773 -12.2967,0 -23.1889,-0.4062 -32.5733,-1.23929 -9.4118,-0.80556 -18.796,-1.69373 -28.1047,-2.66454 -9.2812,-0.96389 -19.2023,-1.82451 -29.7158,-2.68516 -10.4928,-0.80555 -22.9686,-1.23931 -37.5236,-1.23931"
     style="clip-rule:evenodd;fill:#2eade2;fill-opacity:1;fill-rule:nonzero;stroke:#2eade2;stroke-width:8.69517;stroke-linejoin:round;stroke-miterlimit:2;stroke-dasharray:none;stroke-opacity:1"
     id="path35-4" /><path
     d="m 2361.3934,245.94069 c -0.2685,20.48993 2.3136,37.78521 7.7733,51.82385 5.508,14.03862 13.0954,25.39209 22.9686,34.04662 9.8387,8.60633 21.2678,14.71336 34.4252,18.39688 13.0954,3.73859 27.3475,5.57001 42.598,5.57001 19.7394,0 39.052,-3.20154 58.0134,-9.41188 19.0372,-6.26541 37.9712,-14.06619 56.8293,-23.37477 V -68.135075 c 0,-6.244757 3.2771,-10.141694 9.8386,-11.484291 4.3859,-0.812431 9.3637,-1.535368 14.9269,-2.017318 5.6252,-0.53704 11.1608,-1.053422 16.6481,-1.397673 5.46,-0.433746 10.4377,-0.729815 14.9544,-1.080945 4.496,-0.296069 7.8558,-0.371791 10.059,-0.371791 6.5339,0 9.8457,3.332359 9.8457,10.244956 V 384.50253 c 0,6.56144 -3.3118,10.32758 -9.8457,11.42918 -4.6818,0.80557 -9.6252,1.56291 -14.9818,2.28584 -5.3498,0.72293 -10.5137,1.23932 -15.5948,1.6111 -5.0329,0.43377 -9.6321,0.75736 -13.7149,0.8331 -4.1174,0.11007 -7.2639,0.19279 -9.4188,0.19279 -6.2931,0 -9.5978,-3.35992 -9.8389,-10.22432 l -2.8778,-33.61287 c -25.6607,14.27961 -52.6915,26.00488 -80.9546,35.44431 -28.2906,9.41186 -56.9392,14.14877 -85.9324,14.14877 -18.0181,0 -35.0657,-2.50616 -51.2041,-7.39454 -16.1664,-4.89529 -30.1774,-12.39999 -42.061,-22.54171 -11.8628,-10.14167 -21.2748,-23.05115 -28.2977,-38.72844 -6.9399,-15.67727 -10.4306,-34.26005 -10.4306,-55.53489 V -15.264697 c 0,-7.690618 -0.7575,-13.818324 -2.2653,-18.582788 -1.4733,-4.922821 -3.6835,-8.551247 -6.5614,-11.319042 -2.8504,-2.774668 -6.2929,-4.626752 -10.2174,-5.728359 -3.9522,-1.136039 -8.4205,-1.64554 -13.3432,-1.64554 -5.4806,0 -11.4568,0.406222 -18.0183,1.18424 l -2.4719,-22.479727 c 14.7893,-2.802209 28.7521,-5.060515 42.0334,-6.995216 13.2607,-1.90716 24.986,-3.387452 35.2379,-4.468412 10.2723,-1.17733 18.8236,-2.017317 25.6537,-2.499265 6.7748,-0.564581 11.1882,-0.805553 13.1229,-0.805553 8.7164,0 13.1022,4.385778 13.1022,13.067845 z"
     style="clip-rule:evenodd;fill:#2eade2;fill-opacity:1;fill-rule:nonzero;stroke:#2eade2;stroke-width:8.69517;stroke-linejoin:round;stroke-miterlimit:2;stroke-dasharray:none;stroke-opacity:1"
     id="path36-2" /><path
     d="m 3280.5213,38.066963 c -2.7197,-15.085162 -7.1536,-28.022189 -13.3432,-38.72846318 -6.1002,-10.75446082 -13.7425,-19.81519482 -22.7002,-26.92058282 -9.033,-7.043418 -19.2023,-12.372446 -30.5764,-15.787437 -11.326,-3.332376 -23.5332,-5.081179 -36.6835,-5.081179 -12.8544,0 -25.1442,1.535369 -36.8764,4.736925 -11.7804,3.194663 -22.1287,8.062407 -31.1412,14.947468 -9.0606,6.836858 -16.221,15.546463 -21.5984,26.1701049 -5.2669,10.7062746 -7.9317,23.4023301 -7.9317,38.1639011 0,13.150461 3.1191,24.366213 9.3844,33.833178 6.3206,9.411863 14.7409,17.646399 25.2546,24.634738 10.4652,6.940124 22.5621,13.233074 36.2842,18.589674 13.6324,5.45982 27.8635,11.02297 42.6253,16.4002 16.3796,6.29294 32.8141,13.07472 49.1937,20.28339 16.4003,7.31192 31.086,16.11102 44.0783,26.45928 12.9369,10.38267 23.5056,22.99609 31.5472,37.76455 8.0419,14.71338 12.0765,32.88995 12.0765,54.46082 0,18.90639 -2.6646,35.58199 -7.9593,50.02685 -5.329,14.49303 -12.751,27.16157 -22.1352,37.99865 -9.4397,10.73379 -20.4693,19.87717 -33.0278,27.16156 -12.5307,7.44963 -26.0875,13.39833 -40.615,17.83231 -14.5205,4.57168 -29.5506,7.7457 -45.2624,9.70793 -15.7599,1.91405 -31.2237,2.82975 -46.5018,2.82975 -18.3141,0 -36.5733,-1.12914 -54.7567,-3.28418 -18.1765,-2.09994 -36.2773,-5.27396 -54.3231,-9.38431 -2.4511,-0.50952 -4.4683,-1.74882 -5.9489,-3.49762 -1.4803,-1.72126 -2.4164,-3.62844 -2.6574,-5.57002 -0.5647,-5.70084 -1.0811,-14.09372 -1.6733,-25.19932 -0.5094,-11.05051 -0.9913,-22.32137 -1.37,-33.7781 -0.4819,-11.53937 -0.8055,-21.89449 -1.0465,-31.14802 -0.2685,-9.38433 -0.4062,-14.78909 -0.4062,-16.45529 l 20.4691,-2.01733 c 1.9624,16.40711 6.2105,30.60411 12.9373,42.62541 6.6714,11.97312 15.1678,21.92204 25.4127,29.72282 10.2518,7.80075 21.9769,13.52914 35.2582,17.18511 13.2608,3.73857 27.4922,5.53557 42.8183,5.53557 13.6599,0 26.9206,-1.50093 39.775,-4.6474 12.8338,-3.20156 24.2354,-8.26209 34.2118,-15.22288 10.0317,-6.96768 17.9909,-15.84252 23.9945,-26.84484 6.0246,-10.9679 9.0057,-24.17347 9.0057,-39.775 0,-12.79932 -3.0915,-23.80165 -9.4118,-32.75912 -6.2931,-9.03319 -14.7136,-17.0474 -25.1995,-23.98753 -10.4927,-6.96768 -22.5417,-13.26064 -36.0913,-18.63787 -13.5016,-5.48739 -27.4922,-11.11249 -42.0128,-16.8615 -16.3794,-6.5408 -32.814,-13.61176 -49.2144,-21.06141 -16.3521,-7.53226 -31.0654,-16.62052 -44.0299,-27.27172 -12.9921,-10.73379 -23.5608,-23.61576 -31.575,-38.78355 -8.0416,-15.14024 -12.1039,-33.805636 -12.1039,-55.968624 0,-26.707151 5.3291,-49.1868746 15.7874,-67.20508 10.4931,-18.025082 24.3388,-32.490602 41.4205,-43.437836 17.0476,-10.974787 36.4704,-18.748019 58.1996,-23.374787 21.7291,-4.647418 43.9197,-6.988324 66.6196,-6.988324 15.0097,0 31.3823,1.101607 49.187,3.525148 17.7774,2.33403 34.4254,5.404767 50.027,9.191551 2.4717,0.543919 4.4408,1.748804 5.9692,3.470068 1.4252,1.776345 2.3685,3.63532 2.6371,5.514943 0.5644,5.783437 1.074,13.797657 1.6385,23.994431 0.5922,10.272495 1.081,20.655181 1.6456,31.1962058 0.5645,10.5685654 0.9364,19.9804452 1.2325,28.4559532 0.2134,8.523691 0.4061,13.522253 0.4061,15.195316 z"
     style="clip-rule:evenodd;fill:#2eade2;fill-opacity:1;fill-rule:nonzero;stroke:#2eade2;stroke-width:8.69517;stroke-linejoin:round;stroke-miterlimit:2;stroke-dasharray:none;stroke-opacity:1"
     id="path37-3" /><path
     d="m 2546.5645,369.56183 c -0.6915,-3.66315 -1.8318,-6.78301 -3.4245,-9.40485 -1.5764,-2.60537 -3.5191,-4.79092 -5.8199,-6.51137 -2.3173,-1.70398 -4.9185,-3.00461 -7.845,-3.82368 -2.8934,-0.82318 -6.0298,-1.25534 -9.4048,-1.25534 -3.2804,0 -6.4331,0.37042 -9.4378,1.15656 -3.0252,0.77379 -5.6758,1.94683 -7.9932,3.61789 -2.313,1.65459 -4.1488,3.7784 -5.5151,6.3673 -1.3666,2.58891 -2.0417,5.67584 -2.0417,9.24434 0,3.19806 0.8068,5.91868 2.412,8.21535 1.6093,2.28433 3.762,4.27644 6.4619,5.96395 2.6878,1.68754 5.7911,3.21865 9.2938,4.50281 3.5068,1.33356 7.1411,2.68357 10.936,3.97186 4.1941,1.54346 8.4046,3.18159 12.6029,4.93497 4.1982,1.76984 7.9767,3.906 11.2859,6.41671 3.3297,2.52305 6.0463,5.57706 8.1042,9.162 2.058,3.5685 3.1033,7.96017 3.1033,13.19972 0,4.6016 -0.7079,8.63519 -2.0414,12.14194 -1.383,3.50264 -3.2805,6.5731 -5.6759,9.19495 -2.4284,2.62182 -5.2437,4.8403 -8.4747,6.60603 -3.2145,1.81923 -6.6883,3.24745 -10.4008,4.30936 -3.7291,1.12776 -7.5898,1.89742 -11.5904,2.36253 -4.0542,0.4692 -8.0261,0.69147 -11.9321,0.69147 -4.6961,0 -9.3719,-0.27165 -14.0352,-0.81906 -4.6634,-0.49803 -9.2938,-1.2677 -13.9242,-2.25142 -0.642,-0.12759 -1.14,-0.43215 -1.5269,-0.85198 -0.3705,-0.41571 -0.6092,-0.88492 -0.675,-1.35002 -0.1606,-1.38294 -0.2716,-3.42443 -0.4486,-6.108 -0.1153,-2.6877 -0.243,-5.42066 -0.3376,-8.1989 -0.1152,-2.79882 -0.2099,-5.3054 -0.2922,-7.55681 -0.045,-2.26786 -0.077,-3.56849 -0.077,-3.98832 l 5.2395,-0.49803 c 0.5145,3.98832 1.5929,7.42922 3.3298,10.35152 1.704,2.89759 3.8731,5.30953 6.5113,7.20284 2.6055,1.89744 5.6101,3.28037 9.0345,4.1653 3.375,0.91785 7.0423,1.35002 10.9648,1.35002 3.5068,0 6.8983,-0.37043 10.2116,-1.14011 3.2762,-0.77379 6.2027,-1.9921 8.7627,-3.68374 2.5725,-1.68752 4.614,-3.84014 6.141,-6.51136 1.5434,-2.66712 2.3131,-5.86517 2.3131,-9.64357 0,-3.10341 -0.7861,-5.77464 -2.4283,-7.94371 -1.6053,-2.18555 -3.762,-4.13238 -6.4455,-5.81989 -2.6837,-1.68753 -5.7871,-3.21454 -9.2444,-4.51928 -3.4738,-1.33356 -7.0589,-2.68357 -10.7714,-4.08298 -4.2147,-1.59285 -8.4087,-3.29684 -12.6235,-5.11196 -4.1941,-1.81924 -7.956,-4.03771 -11.2859,-6.61015 -3.3297,-2.61772 -6.0461,-5.73758 -8.0877,-9.40486 -2.058,-3.67962 -3.1033,-8.19889 -3.1033,-13.5866 0,-6.46199 1.3665,-11.92791 4.0541,-16.28666 2.6836,-4.38756 6.2356,-7.89432 10.6109,-10.54496 4.371,-2.65476 9.3389,-4.5522 14.9201,-5.65937 5.5771,-1.12365 11.2529,-1.70399 17.0728,-1.70399 3.8607,0 8.0548,0.27164 12.6071,0.85199 4.5645,0.56388 8.8245,1.31709 12.8127,2.23494 0.6586,0.12759 1.1567,0.4157 1.5271,0.85199 0.3869,0.41571 0.6133,0.86846 0.6914,1.33355 0.1277,1.39942 0.2593,3.32977 0.4199,5.8199 0.1605,2.47778 0.2715,5.00083 0.4157,7.55681 0.144,2.55599 0.2592,4.84031 0.321,6.91472 0.066,2.05796 0.099,3.26393 0.099,3.67963 z"
     style="clip-rule:evenodd;fill:#0a7ea8;fill-opacity:1;fill-rule:nonzero;stroke:#0a7ea8;stroke-width:5.198;stroke-linejoin:round;stroke-miterlimit:2;stroke-dasharray:none;stroke-opacity:1"
     id="path38-2"
     transform="matrix(1.6727919,0,0,1.6727919,-2919.0031,-37.710903)" /><path
     d="m 1791.6655,455.91772 c 0,1.62167 -0.8191,2.58892 -2.4449,2.8441 -1.1566,0.24284 -2.4448,0.40336 -3.8278,0.56388 -1.3953,0.17698 -2.7494,0.33751 -4.0665,0.43629 -1.3335,0.0947 -2.556,0.16052 -3.6796,0.17287 -1.1279,0.0165 -1.9469,0.0658 -2.5107,0.0658 -1.6217,0 -2.4283,-0.83553 -2.4283,-2.52305 v -99.31274 c 0,-3.45737 -0.7862,-5.74169 -2.3462,-6.86534 -1.5765,-1.12363 -16.6572,-1.68751 -18.9537,-1.68751 -1.4324,0 -2.8976,0.11112 -4.3753,0.28811 l -0.6091,-5.59353 c 1.4118,-0.27576 3.4697,-0.59681 6.1904,-1.01251 2.7328,-0.40336 18.7109,-0.82317 21.6537,-1.23888 2.9758,-0.38691 5.8199,-0.74088 8.5693,-0.99606 2.7495,-0.27577 4.9061,-0.40336 6.4949,-0.40336 h 36.2735 c 2.3009,0 4.7252,-0.0495 7.2358,-0.0658 2.5231,-0.0288 5.289,-0.0782 8.3595,-0.16051 1.0619,0 1.6875,0.51448 1.8315,1.52699 0.144,0.91785 0.2593,2.14028 0.354,3.66727 0.099,1.59287 0.2099,3.28038 0.3046,5.09551 0.1316,1.85216 0.1935,3.71665 0.2758,5.65937 0.049,1.97975 0.111,3.74548 0.1275,5.35479 0.066,1.64225 0.066,3.03755 0.1111,4.18176 0.049,1.14011 0.049,1.88099 0.049,2.15263 l -5.0955,0.48156 c -1.1731,-4.80738 -2.3296,-8.51993 -3.5232,-11.18703 -1.173,-2.65478 -2.7,-4.58513 -4.5316,-5.8199 -1.8192,-1.20596 -4.1654,-1.94683 -6.9641,-2.1732 -2.8112,-0.23873 -6.4949,-0.37044 -10.9648,-0.37044 h -17.1386 c -1.1566,0 -2.0251,0.0165 -2.5889,0.0988 -0.5599,0.0617 -1.0125,0.23872 -1.2842,0.51449 -0.2428,0.28811 -0.4198,0.65854 -0.4363,1.17303 -0.062,0.51448 -0.062,1.18949 -0.062,2.07442 v 45.57957 c 5.5607,-0.27164 10.6273,-0.53095 15.1918,-0.75732 4.5359,-0.23872 8.4748,-0.41571 11.7551,-0.60916 3.3092,-0.17698 5.964,-0.32103 7.9725,-0.43217 1.9798,-0.0823 3.231,-0.11525 3.7167,-0.11525 1.881,0 2.8441,0.99606 2.8441,3.05401 0,1.27182 -0.066,2.58891 -0.2099,3.9554 -0.1111,1.36646 -0.3046,2.81527 -0.4981,4.39167 l -40.7722,-1.4488 z"
     style="clip-rule:evenodd;fill:#0a7ea8;fill-opacity:1;fill-rule:nonzero;stroke:#0a7ea8;stroke-width:5.198;stroke-linejoin:round;stroke-miterlimit:2;stroke-dasharray:none;stroke-opacity:1"
     id="path39-2"
     transform="matrix(1.6727919,0,0,1.6727919,-2919.0031,-37.710903)" /><path
     d="m 1961.5084,346.04353 c -6.6883,0 -12.393,1.35001 -17.1386,4.11591 -4.758,2.68357 -8.6639,6.30145 -11.6727,10.89893 -3.021,4.53573 -5.2396,9.75882 -6.6719,15.67749 -1.4118,5.88164 -2.169,12.03903 -2.169,18.43928 0,7.12464 0.8026,14.15049 2.3295,21.09403 1.5147,6.93119 3.9554,13.12152 7.2851,18.55452 3.3134,5.433 7.635,9.85348 12.9446,13.19973 5.3054,3.37505 11.6686,5.05021 19.1308,5.05021 6.6882,0 12.4135,-1.39941 17.1551,-4.23114 4.7415,-2.82764 8.6351,-6.57312 11.6728,-11.21998 3.0209,-4.64686 5.2559,-9.9852 6.6717,-15.99854 1.4324,-6.01335 2.1239,-12.18721 2.1239,-18.62037 0,-7.10406 -0.7408,-14.09698 -2.2844,-20.91705 -1.527,-6.83242 -3.9554,-12.90749 -7.2851,-18.26229 -3.3256,-5.32187 -7.6514,-9.61477 -12.9568,-12.89515 -5.2726,-3.28038 -11.6728,-4.88558 -19.135,-4.88558 m 5.0668,-8.56932 c 8.7956,0 16.7064,1.36647 23.7611,4.08297 7.0753,2.73297 13.1216,6.68836 18.1059,11.76739 4.9844,5.14489 8.8409,11.44635 11.5574,18.90849 2.7331,7.45804 4.0871,15.91622 4.0871,25.41986 0,10.30624 -1.527,19.43532 -4.5522,27.3955 -3.0046,7.97251 -7.3139,14.61559 -12.8951,20.03212 -5.5606,5.38773 -12.2653,9.50363 -20.1103,12.3148 -7.8655,2.83175 -16.6119,4.24762 -26.2554,4.24762 -8.7628,0 -16.7229,-1.41587 -23.7982,-4.24762 -7.1206,-2.81117 -13.1504,-6.84887 -18.1511,-12.07196 -4.9844,-5.21074 -8.8245,-11.61099 -11.5123,-19.15133 -2.6836,-7.56916 -4.0171,-16.10967 -4.0171,-25.59273 0,-10.2733 1.5105,-19.3283 4.5193,-27.23908 3.0375,-7.84493 7.3139,-14.45096 12.9075,-19.75637 5.5647,-5.3054 12.2531,-9.29372 20.1145,-12.02669 7.8613,-2.7165 16.6241,-4.08297 26.2389,-4.08297"
     style="clip-rule:evenodd;fill:#0a7ea8;fill-opacity:1;fill-rule:nonzero;stroke:#0a7ea8;stroke-width:5.198;stroke-linejoin:round;stroke-miterlimit:2;stroke-dasharray:none;stroke-opacity:1"
     id="path40-1"
     transform="matrix(1.6727919,0,0,1.6727919,-2919.0031,-37.710903)" /><path
     d="m 2154.9561,346.04353 c -6.6718,0 -12.3765,1.35001 -17.1386,4.11591 -4.7415,2.68357 -8.6475,6.30145 -11.6562,10.89893 -3.0211,4.53573 -5.256,9.75882 -6.6884,15.67749 -1.4282,5.88164 -2.1197,12.03903 -2.1197,18.43928 0,7.12464 0.7533,14.15049 2.2967,21.09403 1.4982,6.93119 3.9389,13.12152 7.2688,18.55452 3.3297,5.433 7.6515,9.85348 12.9444,13.19973 5.3055,3.37505 11.6851,5.05021 19.1802,5.05021 6.6554,0 12.3641,-1.39941 17.1222,-4.23114 4.7415,-2.82764 8.631,-6.57312 11.6397,-11.21998 3.0541,-4.64686 5.2726,-9.9852 6.6884,-15.99854 1.4489,-6.01335 2.1526,-12.18721 2.1526,-18.62037 0,-7.10406 -0.7696,-14.09698 -2.2965,-20.91705 -1.5271,-6.83242 -3.9555,-12.90749 -7.3017,-18.26229 -3.3092,-5.32187 -7.6351,-9.61477 -12.9405,-12.89515 -5.3054,-3.28038 -11.6727,-4.88558 -19.1514,-4.88558 m 5.0832,-8.56932 c 8.7628,0 16.69,1.36647 23.7611,4.08297 7.0753,2.73297 13.0887,6.68836 18.0896,11.76739 5.0007,5.14489 8.8574,11.44635 11.5738,18.90849 2.7166,7.45804 4.0872,15.91622 4.0872,25.41986 0,10.30624 -1.5312,19.43532 -4.5687,27.3955 -3.0047,7.97251 -7.2976,14.61559 -12.8787,20.03212 -5.5606,5.38773 -12.2984,9.50363 -20.1103,12.3148 -7.8656,2.83175 -16.6119,4.24762 -26.2719,4.24762 -8.7627,0 -16.69,-1.41587 -23.7982,-4.24762 -7.0876,-2.81117 -13.1502,-6.84887 -18.1182,-12.07196 -5.0008,-5.21074 -8.841,-11.61099 -11.5287,-19.15133 -2.7,-7.56916 -4.0335,-16.10967 -4.0335,-25.59273 0,-10.2733 1.5105,-19.3283 4.5315,-27.23908 3.0253,-7.84493 7.3346,-14.45096 12.8952,-19.75637 5.5648,-5.3054 12.286,-9.29372 20.1309,-12.02669 7.8614,-2.7165 16.6077,-4.08297 26.2389,-4.08297"
     style="clip-rule:evenodd;fill:#0a7ea8;fill-opacity:1;fill-rule:nonzero;stroke:#0a7ea8;stroke-width:5.198;stroke-linejoin:round;stroke-miterlimit:2;stroke-dasharray:none;stroke-opacity:1"
     id="path41-6"
     transform="matrix(1.6727919,0,0,1.6727919,-2919.0031,-37.710903)" /><path
     d="m 2311.3772,450.53 c 2.5725,0.61327 5.1944,1.02899 7.8325,1.27183 2.6507,0.22636 5.4167,0.33749 8.2648,0.33749 8.166,0 15.4347,-1.23888 21.8309,-3.71255 6.3508,-2.46131 11.7384,-6.02981 16.0931,-10.6602 4.3423,-4.61393 7.6391,-10.19511 9.9358,-16.80114 2.2678,-6.61015 3.4122,-14.00645 3.4122,-22.23827 0,-7.81198 -1.1772,-14.94898 -3.5233,-21.39861 -2.3461,-6.41259 -5.7375,-11.97729 -10.2569,-16.65708 -4.4698,-4.66332 -9.9523,-8.24828 -16.4965,-10.80426 -6.5114,-2.53952 -13.9694,-3.82368 -22.3329,-3.82368 h -5.1902 c -3.0581,0 -5.4041,0.27165 -7.0752,0.78613 -1.6712,0.49803 -2.4943,1.86452 -2.4943,4.08299 z m -16.5088,8.12069 c -1.6424,0 -2.4614,-0.8026 -2.4614,-2.52305 V 355.51012 c 0,-3.45324 -0.7573,-5.75404 -2.2514,-6.87768 -1.4612,-1.1113 -3.3915,-1.67519 -5.8034,-1.67519 -1.3665,0 -2.8442,0.11526 -4.4863,0.29224 l -0.5928,-5.48238 c 7.5857,-1.30476 15.2866,-2.31727 23.0861,-3.08693 7.7668,-0.83965 15.5622,-1.20597 23.3948,-1.20597 6.5115,0 12.8747,0.36632 19.0978,1.12363 6.2233,0.75734 12.0597,2.00857 17.5257,3.76194 5.4658,1.75338 10.4831,4.13239 15.0313,7.05879 4.5686,2.89349 8.4911,6.5443 11.7879,10.89893 3.2928,4.35876 5.8528,9.47072 7.6844,15.40585 1.848,5.89809 2.7659,12.73051 2.7659,20.44784 0,10.28978 -1.8357,19.4065 -5.4659,27.38315 -3.6179,7.98898 -8.6845,14.74318 -15.196,20.2585 -6.4785,5.48239 -14.1957,9.66005 -23.1354,12.53706 -8.9399,2.84821 -18.6493,4.24762 -29.1984,4.24762 -3.0539,0 -5.754,-0.0823 -8.1,-0.29223 -2.3502,-0.20579 -4.6798,-0.41571 -6.9971,-0.64208 -2.2638,-0.25519 -4.7415,-0.4651 -7.3798,-0.65855 -2.5889,-0.24284 -5.7211,-0.35397 -9.306,-0.35397"
     style="clip-rule:evenodd;fill:#0a7ea8;fill-opacity:1;fill-rule:nonzero;stroke:#0a7ea8;stroke-width:5.198;stroke-linejoin:round;stroke-miterlimit:2;stroke-dasharray:none;stroke-opacity:1"
     id="path42"
     transform="matrix(1.6727919,0,0,1.6727919,-2919.0031,-37.710903)" /><path
     d="m 2770.6716,447.0603 c 0,1.60519 0.082,2.90994 0.144,3.82368 0.1152,0.90137 0.3705,1.62578 0.8231,2.1238 0.4487,0.51449 1.1731,0.852 2.1857,0.94666 1.0454,0.14817 2.4612,0.22637 4.2929,0.22637 h 10.0797 c 5.4331,0 9.903,-0.14405 13.311,-0.40336 3.412,-0.28811 6.322,-1.12363 8.7174,-2.53951 2.379,-1.44468 4.4987,-3.60142 6.318,-6.52783 1.8315,-2.94288 3.873,-7.02586 6.0916,-12.33127 l 5.1283,1.1113 c 0,0.48156 -0.1934,1.72045 -0.5309,3.76193 -0.3376,2.05796 -0.7532,4.40404 -1.2677,7.02586 -0.5145,2.66712 -1.0784,5.38362 -1.6876,8.18244 -0.5968,2.74943 -1.2059,5.19428 -1.8356,7.20284 -0.8686,2.34606 -2.5395,3.49029 -4.9968,3.49029 -5.0666,-0.0823 -11.4174,-0.0988 -18.9743,-0.19346 -7.6061,-0.0823 -16.7189,-0.11112 -27.3955,-0.11112 h -16.9122 c -0.9509,0 -1.5929,-0.29224 -1.9305,-0.86846 -0.3539,-0.5968 -0.498,-1.16068 -0.498,-1.69163 V 360.7044 c 0,-1.89744 -0.1934,-3.44091 -0.5803,-4.6304 -0.354,-1.18949 -0.9179,-2.1238 -1.6382,-2.79882 -0.7079,-0.70381 -1.5598,-1.14011 -2.5435,-1.39529 -0.9796,-0.32516 -2.0869,-0.45276 -3.3092,-0.45276 -1.4818,0 -2.9923,0.11526 -4.4699,0.32105 l -0.6298,-5.60998 c 3.6674,-0.70794 7.1411,-1.23889 10.4379,-1.72046 3.3257,-0.49801 6.2193,-0.83553 8.7751,-1.12363 2.5726,-0.27577 4.6799,-0.49803 6.3839,-0.61328 1.704,-0.12759 2.7823,-0.2099 3.2474,-0.2099 2.1732,0 3.264,1.11128 3.264,3.24745 z"
     style="clip-rule:evenodd;fill:#0a7ea8;fill-opacity:1;fill-rule:nonzero;stroke:#0a7ea8;stroke-width:5.198;stroke-linejoin:round;stroke-miterlimit:2;stroke-dasharray:none;stroke-opacity:1"
     id="path43"
     transform="matrix(1.6727919,0,0,1.6727919,-2919.0031,-37.710903)" /><path
     d="m 2884.9538,346.1382 c 3.6632,-0.70794 7.1535,-1.23889 10.4668,-1.73693 3.2804,-0.48154 6.1904,-0.81906 8.7463,-1.10716 2.5395,-0.29223 4.6798,-0.49803 6.3674,-0.61328 1.704,-0.12759 2.7946,-0.2099 3.2639,-0.2099 2.1691,0 3.264,1.11128 3.264,3.2639 v 114.377 c 0,1.59288 -0.8233,2.56011 -2.445,2.84821 -1.1729,0.19346 -2.4283,0.37045 -3.8278,0.54742 -1.3994,0.19346 -2.7658,0.30458 -4.083,0.41571 -1.3335,0.0988 -2.5395,0.16052 -3.6836,0.17699 -1.1073,0.0658 -1.9263,0.0658 -2.4902,0.0658 -1.6257,0 -2.4448,-0.83552 -2.4448,-2.52305 V 360.7044 c 0,-1.89744 -0.1935,-3.44091 -0.5475,-4.61394 -0.3827,-1.20595 -0.9302,-2.14026 -1.6217,-2.82762 -0.7243,-0.69147 -1.5763,-1.12777 -2.5559,-1.38295 -0.996,-0.3375 -2.0909,-0.45276 -3.3133,-0.45276 -1.4776,0 -2.9882,0.11526 -4.4699,0.30458 z"
     style="clip-rule:evenodd;fill:#0a7ea8;fill-opacity:1;fill-rule:nonzero;stroke:#0a7ea8;stroke-width:5.198;stroke-linejoin:round;stroke-miterlimit:2;stroke-dasharray:none;stroke-opacity:1"
     id="path44"
     transform="matrix(1.6727919,0,0,1.6727919,-2919.0031,-37.710903)" /><path
     d="m 3102.7596,369.69354 -38.0104,92.71909 c -0.2716,0.75734 -0.8973,1.23889 -1.8481,1.36649 -1.2059,0.11113 -2.5889,0.20991 -4.1159,0.30457 -1.527,0.0823 -3.0541,0.0823 -4.6468,0.0823 -1.0579,0 -1.8317,-0.48156 -2.235,-1.51053 l -35.6603,-94.20082 -11.7179,93.87977 c -0.1606,0.81907 -0.7574,1.25124 -1.8523,1.35002 -1.2059,0.11113 -2.7493,0.23872 -4.548,0.33751 -1.7863,0.0782 -3.6838,0.14405 -5.6429,0.14405 -0.9672,0 -1.4323,-0.37043 -1.4323,-1.11129 0,-0.49803 0.049,-0.81906 0.1152,-1.01252 l 19.8881,-108.25253 -3.2804,-9.0015 c -0.1441,-0.3869 -0.2099,-0.72439 -0.2099,-0.99605 0,-1.11129 0.675,-1.75337 2.0414,-1.93035 1.0784,-0.19345 2.3462,-0.3869 3.8114,-0.58035 1.4611,-0.17698 2.9265,-0.30457 4.2764,-0.44862 1.3995,-0.11113 2.6671,-0.22639 3.8402,-0.28813 1.1443,-0.0823 1.9962,-0.11523 2.5437,-0.11523 0.7532,0 1.3335,0.2099 1.7369,0.59679 0.3992,0.41572 0.7696,1.01252 1.1236,1.75338 l 36.4957,96.1106 37.3972,-85.61503 -1.029,-8.48701 c -0.066,-0.0823 -0.079,-0.32103 -0.079,-0.77378 0,-1.14011 0.6421,-1.88097 1.9263,-2.15262 1.0784,-0.19345 2.3502,-0.3869 3.762,-0.58035 1.4158,-0.17698 2.8152,-0.30457 4.1816,-0.44862 1.3666,-0.11113 2.6054,-0.22639 3.7126,-0.28813 1.1278,-0.0823 1.9469,-0.11523 2.5107,-0.11523 1.6875,0 2.6507,0.80671 2.8606,2.35017 l 13.8419,116.80539 c 0.066,0.27165 0.1151,0.46511 0.1151,0.67501 v 0.43218 c 0,1.31708 -0.6462,2.05795 -1.9468,2.26785 -1.1566,0.19346 -2.4901,0.37045 -3.9719,0.54742 -1.494,0.19346 -2.9758,0.30458 -4.3711,0.41571 -1.4323,0.0988 -2.7329,0.16052 -3.9224,0.17699 -1.206,0.0658 -2.0579,0.0658 -2.6054,0.0658 -0.6132,0 -1.1278,-0.0988 -1.527,-0.35396 -0.4198,-0.22638 -0.6461,-0.64208 -0.7079,-1.15657 z"
     style="clip-rule:evenodd;fill:#0a7ea8;fill-opacity:1;fill-rule:nonzero;stroke:#0a7ea8;stroke-width:5.198;stroke-linejoin:round;stroke-miterlimit:2;stroke-dasharray:none;stroke-opacity:1"
     id="path45"
     transform="matrix(1.6727919,0,0,1.6727919,-2919.0031,-37.710903)" /><path
     d="m 3198.1787,346.1382 c 3.6673,-0.70794 7.1247,-1.23889 10.4503,-1.73693 3.2804,-0.48154 6.2068,-0.81906 8.7628,-1.10716 2.5437,-0.29223 4.6468,-0.49803 6.3508,-0.61328 1.7204,-0.12759 2.7823,-0.2099 3.264,-0.2099 2.1896,0 3.2803,1.11128 3.2803,3.2639 v 114.377 c 0,1.59288 -0.8191,2.56011 -2.4572,2.84821 -1.1607,0.19346 -2.4284,0.37045 -3.8278,0.54742 -1.3829,0.19346 -2.7329,0.30458 -4.0664,0.41571 -1.3378,0.0988 -2.5437,0.16052 -3.6674,0.17699 -1.1236,0.0658 -1.9633,0.0658 -2.523,0.0658 -1.6094,0 -2.4284,-0.83552 -2.4284,-2.52305 V 360.7044 c 0,-1.89744 -0.1934,-3.44091 -0.5639,-4.61394 -0.3869,-1.20595 -0.9178,-2.14026 -1.6217,-2.82762 -0.7079,-0.69147 -1.5764,-1.12777 -2.5723,-1.38295 -0.9674,-0.3375 -2.0745,-0.45276 -3.297,-0.45276 -1.494,0 -2.9758,0.11526 -4.4863,0.30458 z"
     style="clip-rule:evenodd;fill:#0a7ea8;fill-opacity:1;fill-rule:nonzero;stroke:#0a7ea8;stroke-width:5.198;stroke-linejoin:round;stroke-miterlimit:2;stroke-dasharray:none;stroke-opacity:1"
     id="path46"
     transform="matrix(1.6727919,0,0,1.6727919,-2919.0031,-37.710903)" /><path
     d="m 3329.7602,352.9706 c -4.437,0 -8.0713,0.11525 -10.9648,0.35397 -2.8605,0.20991 -5.2724,1.01252 -7.1864,2.36253 -1.8974,1.28828 -3.4738,3.39563 -4.725,6.23972 -1.2883,2.87703 -2.4779,6.84888 -3.6179,12.02669 l -5.1285,-0.49802 c 0,-0.27577 0,-1.01252 0.061,-2.26788 0.049,-1.20596 0.1153,-2.63829 0.1934,-4.35873 0.1112,-1.72047 0.2265,-3.58497 0.3211,-5.59353 0.1276,-2.05796 0.2264,-4.03358 0.3704,-5.96395 0.1276,-1.94683 0.2594,-3.76195 0.4033,-5.42065 0.1277,-1.63814 0.2553,-2.9717 0.3994,-3.90601 0.082,-1.02897 0.675,-1.54347 1.8356,-1.54347 6.1739,0.14407 12.0885,0.24285 17.7314,0.30459 5.6264,0.0823 10.8372,0.0823 15.5952,0.0823 h 33.9398 c 4.762,0 9.9851,0 15.7104,-0.0823 5.6922,-0.0617 11.6727,-0.16052 17.8301,-0.30459 0.9631,0 1.5105,0.5145 1.6382,1.54347 0.1439,0.93431 0.2427,2.26787 0.3539,3.90601 0.099,1.6587 0.1934,3.47382 0.2922,5.42065 0.1111,1.93037 0.2058,3.90599 0.2388,5.96395 0.082,2.00856 0.144,3.87306 0.1769,5.59353 0.041,1.72044 0.066,3.15277 0.1111,4.35873 0.041,1.25536 0.041,1.99211 0.041,2.26788 l -5.0954,0.49802 c -1.1567,-5.17781 -2.3173,-9.14966 -3.5192,-12.02669 -1.1771,-2.84409 -2.6876,-4.95144 -4.5193,-6.23972 -1.8479,-1.35001 -4.1817,-2.15262 -7.0094,-2.36253 -2.7988,-0.23872 -6.4496,-0.35397 -10.9359,-0.35397 H 3361.25 v 107.14123 c 0,1.59288 -0.8068,2.56011 -2.4613,2.83176 -1.14,0.20991 -2.4119,0.3869 -3.7949,0.56387 -1.3994,0.19346 -2.7493,0.30458 -4.083,0.41571 -1.3335,0.0988 -2.5724,0.16052 -3.6673,0.17699 -1.14,0.0658 -1.9591,0.0658 -2.4901,0.0658 -1.6422,0 -2.4612,-0.83552 -2.4612,-2.52305 V 352.9706 Z"
     style="clip-rule:evenodd;fill:#0a7ea8;fill-opacity:1;fill-rule:nonzero;stroke:#0a7ea8;stroke-width:5.198;stroke-linejoin:round;stroke-miterlimit:2;stroke-dasharray:none;stroke-opacity:1"
     id="path47"
     transform="matrix(1.6727919,0,0,1.6727919,-2919.0031,-37.710903)" /><path
     d="m 3495.2979,447.0603 c 0,1.60519 0.049,2.90994 0.1441,3.82368 0.099,0.90137 0.354,1.62578 0.8026,2.1238 0.4528,0.51449 1.1772,0.852 2.2061,0.94666 1.0125,0.14817 2.4408,0.22637 4.2765,0.22637 h 13.1503 c 5.4495,0 9.8411,-0.14405 13.2491,-0.35397 3.3915,-0.23871 6.285,-1.02898 8.6641,-2.31313 2.3624,-1.35414 4.4533,-3.47383 6.2725,-6.35085 1.7987,-2.86467 3.7909,-6.98059 6.0586,-12.26952 l 5.0832,1.11128 c 0,0.48157 -0.1317,1.68753 -0.4527,3.67963 -0.2881,1.94683 -0.708,4.2435 -1.173,6.86533 -0.4652,2.63831 -1.0126,5.28894 -1.6382,7.9931 -0.5967,2.74943 -1.2059,5.11197 -1.8193,7.12053 -0.8849,2.34606 -2.5723,3.49029 -5.0007,3.49029 -2.5232,0 -5.4989,-0.0329 -8.9687,-0.0658 -3.4573,-0.0165 -7.3015,-0.0329 -11.5615,-0.0782 -4.2435,-0.0329 -8.8121,-0.0823 -13.6483,-0.0988 -4.8733,-0.0329 -9.9523,-0.0618 -15.2413,-0.0618 h -16.9493 c -0.9467,0 -1.5723,-0.29224 -1.9263,-0.86846 -0.321,-0.5968 -0.498,-1.16068 -0.498,-1.69163 v -97.95865 c 0,-3.45736 -0.7903,-5.74169 -2.3501,-6.84887 -1.56,-1.14422 -3.5027,-1.69164 -5.8199,-1.69164 -1.4159,0 -2.8935,0.0988 -4.3712,0.29223 l -0.6297,-5.6141 c 1.4488,-0.25519 3.5232,-0.62562 6.2233,-0.99605 2.733,-0.39924 5.5482,-0.8026 8.5199,-1.22242 2.9593,-0.41571 5.8076,-0.73675 8.5529,-1.01252 2.7494,-0.28811 4.9226,-0.44863 6.499,-0.44863 h 37.0884 c 2.3173,0 4.7457,0 7.2358,-0.0165 2.5108,-0.0658 5.2889,-0.0823 8.3594,-0.16052 1.0783,0 1.6917,0.53095 1.8357,1.527 0.062,0.95077 0.144,2.21847 0.2553,3.76194 0.099,1.57639 0.1769,3.28037 0.2592,5.12842 0.045,1.81923 0.1441,3.68374 0.2386,5.59763 0.1154,1.89744 0.1935,3.66316 0.2759,5.30541 0.041,1.6052 0.1111,3.00462 0.1276,4.14473 0.066,1.17715 0.066,1.88097 0.066,2.14027 l -5.0996,0.51448 c -1.1565,-4.80737 -2.3461,-8.53639 -3.519,-11.19114 -1.1731,-2.66712 -2.7001,-4.59748 -4.5358,-5.83637 -1.8152,-1.22242 -4.1612,-1.94271 -6.9764,-2.18555 -2.8153,-0.24284 -6.4785,-0.33751 -10.9648,-0.33751 h -17.929 c -1.173,0 -2.0415,0.0165 -2.6011,0.0947 -0.564,0.0823 -1.0126,0.24284 -1.2883,0.51449 -0.2553,0.24284 -0.4034,0.67501 -0.4323,1.16068 -0.049,0.53095 -0.049,1.20597 -0.049,2.08678 v 41.2908 c 5.5482,-0.29224 10.6767,-0.54742 15.3236,-0.77379 4.6427,-0.22227 8.697,-0.39924 12.1213,-0.60916 3.4409,-0.17699 6.2233,-0.27576 8.3101,-0.41983 2.1073,-0.0947 3.3956,-0.12759 3.8772,-0.12759 1.8974,0 2.8606,1.01252 2.8606,3.05401 0,1.28828 -0.079,2.62183 -0.2265,3.97185 -0.144,1.35001 -0.2881,2.84409 -0.498,4.38756 l -41.7683,-1.44467 z"
     style="clip-rule:evenodd;fill:#0a7ea8;fill-opacity:1;fill-rule:nonzero;stroke:#0a7ea8;stroke-width:5.198;stroke-linejoin:round;stroke-miterlimit:2;stroke-dasharray:none;stroke-opacity:1"
     id="path48"
     transform="matrix(1.6727919,0,0,1.6727919,-2919.0031,-37.710903)" /><path
     d="m 3647.2655,454.6953 c 2.589,0.60916 5.1779,1.02898 7.8286,1.27182 2.6547,0.23872 5.4205,0.36631 8.2647,0.36631 8.1495,0 15.4347,-1.28415 21.8184,-3.72901 6.3674,-2.4572 11.7345,-6.04627 16.1097,-10.6602 4.3381,-4.59747 7.6515,-10.20746 9.9358,-16.78468 2.2678,-6.6225 3.3914,-14.00232 3.3914,-22.26707 0,-7.79553 -1.1565,-14.93663 -3.5025,-21.38216 -2.3502,-6.44961 -5.7582,-11.99375 -10.261,-16.67354 -4.4698,-4.64686 -9.9811,-8.24828 -16.4925,-10.80426 -6.5279,-2.53952 -13.9571,-3.81133 -22.3328,-3.81133 h -5.2109 c -3.0539,0 -5.3999,0.25929 -7.0752,0.75732 -1.6546,0.51449 -2.4737,1.91391 -2.4737,4.13237 z m -16.5294,8.15362 c -1.6382,0 -2.4572,-0.83965 -2.4572,-2.56009 V 359.67542 c 0,-3.4409 -0.7244,-5.75404 -2.235,-6.8818 -1.4817,-1.10717 -3.4121,-1.65459 -5.8075,-1.65459 -1.35,0 -2.8441,0.11113 -4.4822,0.2881 l -0.6298,-5.48239 c 7.6227,-1.30062 15.3235,-2.31314 23.1026,-3.11985 7.7997,-0.78614 15.5828,-1.15657 23.3949,-1.15657 6.5442,0 12.895,0.37043 19.1183,1.11129 6.2028,0.73676 12.0719,2.00856 17.5215,3.77841 5.47,1.74926 10.4997,4.09944 15.0518,7.00939 4.5316,2.92641 8.4541,6.54429 11.7674,10.91539 3.2968,4.35875 5.8529,9.47071 7.7009,15.4182 1.8192,5.88576 2.7494,12.7017 2.7494,20.45195 0,10.27331 -1.8316,19.40652 -5.4495,27.37904 -3.6507,7.96016 -8.7133,14.72672 -15.1959,20.22557 -6.4949,5.49886 -14.2121,9.69709 -23.1519,12.52471 -8.9192,2.86468 -18.6493,4.29289 -29.1942,4.29289 -3.054,0 -5.7581,-0.0782 -8.1043,-0.32104 -2.346,-0.19345 -4.6632,-0.38689 -6.9928,-0.64208 -2.3008,-0.22637 -4.758,-0.46509 -7.38,-0.65854 -2.6052,-0.19346 -5.7416,-0.30458 -9.3265,-0.30458"
     style="clip-rule:evenodd;fill:#0a7ea8;fill-opacity:1;fill-rule:nonzero;stroke:#0a7ea8;stroke-width:5.198;stroke-linejoin:round;stroke-miterlimit:2;stroke-dasharray:none;stroke-opacity:1"
     id="path49"
     transform="matrix(1.6727919,0,0,1.6727919,-2919.0031,-37.710903)" /></g></svg>
