<?xml version="1.0" encoding="UTF-8" standalone="no"?>
<svg
   version="1.1"
   id="Banner_anim"
   viewBox="0 0 1999.129 1368.1792"
   xml:space="preserve"
   width="1999.129"
   height="1368.1792"
   preserveAspectRatio="xMaxYMid slice"
   sodipodi:docname="IndusFoods_Animated_Logo_Square_Final.svg"
   inkscape:export-filename="IndusFoods_Animated_Logo_Square.svg"
   inkscape:export-xdpi="9.6068678"
   inkscape:export-ydpi="9.6068678"
   inkscape:version="1.4.2 (f4327f4, 2025-05-13)"
   xmlns:inkscape="http://www.inkscape.org/namespaces/inkscape"
   xmlns:sodipodi="http://sodipodi.sourceforge.net/DTD/sodipodi-0.dtd"
   xmlns:xlink="http://www.w3.org/1999/xlink"
   xmlns="http://www.w3.org/2000/svg"
   xmlns:svg="http://www.w3.org/2000/svg"><sodipodi:namedview
   id="namedview1"
   pagecolor="#ffffff"
   bordercolor="#000000"
   borderopacity="0.25"
   inkscape:showpageshadow="2"
   inkscape:pageopacity="0.0"
   inkscape:pagecheckerboard="0"
   inkscape:deskcolor="#d1d1d1"
   inkscape:zoom="0.32854543"
   inkscape:cx="1130.7417"
   inkscape:cy="1355.9769"
   inkscape:window-width="3440"
   inkscape:window-height="1411"
   inkscape:window-x="2391"
   inkscape:window-y="-9"
   inkscape:window-maximized="1"
   inkscape:current-layer="logo_text-8" />
  <defs
   id="defs6"><linearGradient
     id="linearGradient3"
     inkscape:collect="always"><stop
       style="stop-color:#0a7ea8;stop-opacity:1;"
       offset="0.04694836"
       id="stop3" /><stop
       style="stop-color:#2eade2;stop-opacity:1;"
       offset="0.59624416"
       id="stop4" /></linearGradient><meshgradient
     id="meshgradient29"
     gradientTransform="scale(0.89714301,1.1146495)" /><meshgradient
     id="meshgradient440-5"
     gradientUnits="userSpaceOnUse"
     x="0"
     y="-0.46438599">
      <meshrow
   id="meshrow444-3">
        <meshpatch
   id="meshpatch444-3">
          <stop
   path="c 257.008,0  514.016,0  771.025,0"
   style="stop-color:#ffffff;stop-opacity:1"
   id="stop441-1" />
          <stop
   path="c 0,118.448  0,236.896  0,355.344"
   style="stop-color:#000000;stop-opacity:1"
   id="stop442-8" />
          <stop
   path="c -257.008,0  -514.016,0  -771.025,0"
   style="stop-color:#ffffff;stop-opacity:1"
   id="stop443-9" />
          <stop
   path="c 0,-118.448  0,-236.896  0,-355.344"
   style="stop-color:#000000;stop-opacity:1"
   id="stop444-2" />
        </meshpatch>
      </meshrow>
    </meshgradient><meshgradient
     id="meshgradient448"
     gradientUnits="userSpaceOnUse"
     x="0"
     y="-0.46438599">
      <meshrow
   id="meshrow452">
        <meshpatch
   id="meshpatch452">
          <stop
   path="c 257.008,0  514.016,0  771.025,0"
   style="stop-color:#ffffff;stop-opacity:1"
   id="stop449" />
          <stop
   path="c 0,118.448  0,236.896  0,355.344"
   style="stop-color:#000000;stop-opacity:1"
   id="stop450" />
          <stop
   path="c -257.008,0  -514.016,0  -771.025,0"
   style="stop-color:#ffffff;stop-opacity:1"
   id="stop451" />
          <stop
   path="c 0,-118.448  0,-236.896  0,-355.344"
   style="stop-color:#000000;stop-opacity:1"
   id="stop452" />
        </meshpatch>
      </meshrow>
    </meshgradient><linearGradient
     inkscape:collect="always"
     xlink:href="#linearGradient3"
     id="linearGradient4"
     x1="289.31744"
     y1="18.753012"
     x2="289.31744"
     y2="507.62387"
     gradientUnits="userSpaceOnUse" /></defs>
  
  <g
   shape-rendering="geometricPrecision"
   id="sunrays_wrap"
   transform="matrix(3.6761972,0,0,3.7068078,723.15898,370.68078)"
   style="display:inline">
    <g
   id="sunrays_expand">
       <animateTransform
   id="sunExpand"
   attributeName="transform"
   type="scale"
   from="1"
   to="6"
   begin="goldDraw.end+0.3s"
   dur="2.2s"
   fill="freeze"
   calcMode="spline"
   keySplines="0.25 0 0.2 1" /><g
   id="sunrays_spin"><animateTransform
     attributeName="transform"
     type="rotate"
     from="0 0 0"
     to="360 0 0"
     dur="30s"
     repeatCount="indefinite" /><path
     d="m 0,0 v -100 a 100,100 0 0 1 28.173255,4.052734 z"
     fill="#d4af37"
     id="path1-0"
     style="fill:#d8ca50;fill-opacity:1" /><path
     d="m 0,0 28.173255,-95.947266 a 100,100 0 0 1 25.923152,11.824462 z"
     fill="#e7d768"
     id="path2-9" /><path
     d="m 0,0 54.096407,-84.122804 a 100,100 0 0 1 21.47855,18.633647 z"
     fill="#d4af37"
     id="path3"
     style="fill:#d8ca50;fill-opacity:1" /><path
     d="m 0,0 75.574957,-65.489157 a 100,100 0 0 1 15.26556,23.7034 z"
     fill="#e7d768"
     id="path4" /><path
     d="m 0,0 90.840517,-41.785757 a 100,100 0 0 1 7.800482,24.853164 z"
     fill="#d4af37"
     id="path5-0"
     style="fill:#d8ca50;fill-opacity:1" /><path
     d="m 0,0 98.640999,-16.932593 a 100,100 0 0 1 0,33.865186 z"
     fill="#e7d768"
     id="path6" /><path
     d="M 0,0 98.640999,16.932593 A 100,100 0 0 1 90.840517,41.785757 Z"
     fill="#d4af37"
     id="path7"
     style="fill:#d8ca50;fill-opacity:1" /><path
     d="m 0,0 90.840517,41.785757 a 100,100 0 0 1 -15.26556,23.7034 z"
     fill="#e7d768"
     id="path8" /><path
     d="M 0,0 75.574957,65.489157 A 100,100 0 0 1 54.096407,84.122804 Z"
     fill="#d4af37"
     id="path9"
     style="fill:#d8ca50;fill-opacity:1" /><path
     d="M 0,0 54.096407,84.122804 A 100,100 0 0 1 28.173255,95.947266 Z"
     fill="#e7d768"
     id="path10" /><path
     d="M 0,0 28.173255,95.947266 A 100,100 0 0 1 0,100 Z"
     fill="#d4af37"
     id="path11"
     style="fill:#d8ca50;fill-opacity:1" /><path
     d="M 0,0 V 100 A 100,100 0 0 1 -28.173255,95.947266 Z"
     fill="#e7d768"
     id="path12" /><path
     d="M 0,0 -28.173255,95.947266 A 100,100 0 0 1 -54.096407,84.122804 Z"
     fill="#d4af37"
     id="path13"
     style="fill:#d8ca50;fill-opacity:1" /><path
     d="M 0,0 -54.096407,84.122804 A 100,100 0 0 1 -75.574957,65.489157 Z"
     fill="#e7d768"
     id="path14" /><path
     d="m 0,0 -75.574957,65.489157 a 100,100 0 0 1 -15.26556,-23.7034 z"
     fill="#d4af37"
     id="path15"
     style="fill:#d8ca50;fill-opacity:1" /><path
     d="M 0,0 -90.840517,41.785757 A 100,100 0 0 1 -98.640999,16.932593 Z"
     fill="#e7d768"
     id="path16" /><path
     d="m 0,0 -98.640999,16.932593 a 100,100 0 0 1 0,-33.865186 z"
     fill="#d4af37"
     id="path17"
     style="fill:#d8ca50;fill-opacity:1" /><path
     d="m 0,0 -98.640999,-16.932593 a 100,100 0 0 1 7.800482,-24.853164 z"
     fill="#e7d768"
     id="path18" /><path
     d="m 0,0 -90.840517,-41.785757 a 100,100 0 0 1 15.26556,-23.7034 z"
     fill="#d4af37"
     id="path19"
     style="fill:#d8ca50;fill-opacity:1" /><path
     d="m 0,0 -75.574957,-65.489157 a 100,100 0 0 1 21.47855,-18.633647 z"
     fill="#e7d768"
     id="path20" /><path
     d="m 0,0 -54.096407,-84.122804 a 100,100 0 0 1 25.923152,-11.824462 z"
     fill="#d4af37"
     id="path21"
     style="fill:#d8ca50;fill-opacity:1" /><path
     d="M 0,0 -28.173255,-95.947266 A 100,100 0 0 1 0,-100 Z"
     fill="#e7d768"
     id="path22" /></g>
     </g>
  </g>
  <g
   id="Mountain Block"
   style="display:inline;fill:url(#meshgradient448);fill-opacity:1"
   transform="matrix(4.0881351,0,0,-4.1186749,-183.48369,1551.1732)">
    <g
   id="paths"
   transform="translate(0.14868716,0.02045603)"
   style="display:inline;fill:url(#meshgradient29);fill-opacity:1"><path
   id="darkpath"
   style="baseline-shift:baseline;display:inline;overflow:visible;opacity:1;vector-effect:none;fill:#ffffff;fill-opacity:1;fill-rule:evenodd;stroke:none;stroke-linejoin:round;paint-order:fill markers stroke;enable-background:accumulate;stop-color:#000000;stop-opacity:1"
   d="m 278.49176,305.03514 c -0.597,-0.425 -3.53192,-2.50728 -8.21192,-5.98828 -5.265,-3.926 -12.73803,-9.60442 -21.45703,-16.75342 -8.691,-7.183 -18.71437,-15.73886 -28.52637,-26.04786 -4.848,-5.203 -9.74986,-10.74561 -13.60986,-17.55761 -0.949,-1.711 -1.81587,-3.5286 -2.46387,-5.5166 -0.641,-1.988 -1.11109,-4.18603 -0.89209,-6.62403 0.188,-2.418 1.37197,-5.01911 3.18897,-6.76611 1.792,-1.769 3.90601,-2.82371 5.93701,-3.55371 8.168,-2.742 16.18762,-1.8794 23.39062,-1.8794 7.343,0.101 14.56219,0.1007 21.49219,-0.1333 6.906,-0.234 13.57005,-0.68358 19.51905,-1.72558 5.899,-0.989 11.24268,-2.89934 13.42968,-5.46534 1.109,-1.25 1.6843,-2.62892 2.0083,-4.39892 0.301,-1.758 0.31116,-3.74968 0.13916,-5.72168 -0.324,-3.954 -0.66619,-4.29717 -1.34619,-7.36817 -0.711,-3.089 -1.3366,-5.54646 -1.7666,-7.23046 -0.1869,-0.70877 -0.38818,-1.57435 -0.56689,-2.33936 -0.002,-0.14324 -0.005,-0.28722 -0.006,-0.43066 l 15,-0.12452 c 8.5e-4,0.1025 0.002,0.20675 0.004,0.31202 h -1.64209 c 0.395,2.008 0.95681,4.8716 1.38281,7.3916 0.531,3.375 0.74631,4.06209 0.88331,9.24609 0.047,2.582 -0.0594,5.50023 -0.83643,8.76123 -0.754,3.227 -2.52346,6.93301 -5.41846,9.68701 -2.867,2.754 -6.32797,4.39945 -9.66797,5.48145 -3.375,1.09 -6.76187,1.66322 -10.17187,2.07422 -6.812,0.777 -13.77258,0.81174 -20.91358,0.63574 -7.141,-0.179 -14.44514,-0.61597 -21.84814,-1.14697 -3.734,-0.246 -7.44492,-0.64952 -10.94092,-0.70752 -3.523,-0.051 -7.08132,0.15922 -10.13232,1.05322 -1.512,0.442 -2.85184,1.09502 -3.77784,1.91602 -0.926,0.824 -1.45599,1.79128 -1.66699,3.09228 -0.399,2.633 0.72917,6.05558 2.22217,9.12158 3.109,6.246 7.58555,11.96872 12.03955,17.26172 9.058,10.574 18.58519,19.62494 26.84619,27.21094 8.297,7.574 15.45749,13.63283 20.50049,17.81983 4.492,3.731 7.31672,5.96122 7.88672,6.40722 0.0351,-0.0228 -0.007,0.007 -0.007,0.007 z"
   transform="translate(7.0201124,-8.6962897)" />

</g>
    
  <path
   id="mountain-5"
   style="display:inline;mix-blend-mode:normal;fill:url(#linearGradient4);fill-opacity:1;fill-rule:nonzero;stroke:none"
   d="m 334.34008,355.34549 c -16.942,-20.614 -32.55078,-39.61061 -48.55078,-59.07861 -0.043,0.031 -1.17241,1.04858 -0.12159,0.0864 -0.44402,-0.5802 -3.39472,-2.67622 -7.88672,-6.40722 -5.043,-4.187 -12.20348,-10.24583 -20.50048,-17.81983 -8.261,-7.586 -17.7882,-16.63694 -26.8462,-27.21094 -4.454,-5.293 -8.93055,-11.01571 -12.03955,-17.26171 -1.493,-3.066 -2.62117,-6.48859 -2.22217,-9.12159 0.211,-1.301 0.741,-2.26828 1.667,-3.09228 0.926,-0.821 2.26583,-1.47402 3.77783,-1.91602 3.051,-0.894 6.60932,-1.10422 10.13232,-1.05322 3.496,0.058 7.20692,0.46152 10.94092,0.70752 7.403,0.531 14.70715,0.96797 21.84815,1.14697 7.141,0.176 14.10157,0.14126 20.91357,-0.63574 3.41,-0.411 6.79688,-0.98422 10.17188,-2.07422 3.34,-1.082 6.80097,-2.72744 9.66797,-5.48144 2.895,-2.754 4.66445,-6.46002 5.41845,-9.68702 0.777,-3.261 0.88343,-6.17923 0.83643,-8.76123 -0.137,-5.184 -0.3523,-5.87109 -0.8833,-9.24609 -0.426,-2.52 -0.98781,-5.3836 -1.38281,-7.3916 h 220.5542 c 1.34,0 3.46382,-0.2021 3.74529,0.82209 0.528,2.098 -0.23252,5.85419 -1.25652,7.04119 -31.535,30.473 -62.08238,59.11679 -91.35938,88.98779 -9.668,9.856 -18.45657,14.0984 -30.66357,7.5044 -11.106,-6.004 -17.2667,-1.46452 -23.7627,7.91748 -16.59,23.965 -34.14024,47.2469 -52.19824,72.0249 z M 253.59789,319.4158 c -17.66,-23.246 -34.9603,-46.01263 -53.5503,-70.47363 -11.027,17.883 -22.80218,14.20694 -35.63818,5.08594 -7.508,-5.339 -16.07359,-9.20612 -24.22559,-13.62012 -2.688,-1.453 -7.07916,-4.39874 -8.11816,-3.53174 -11.918,9.902 -17.21126,-1.84446 -23.84326,-7.29346 -15.531996,-12.769 -30.604916,-26.11685 -45.815916,-39.27685 -4.953,-4.285 -9.82912,-8.69561 -16.89112,-14.99561 -0.633,-0.614 -0.75455,-2.54415 -0.52755,-3.25515 0.23,-0.714 0.8948,-1.00754 1.9338,-1.00754 H 295.86742 c 0.192,0.82 0.41702,1.79752 0.62402,2.58252 0.43,1.684 1.05561,4.14147 1.76661,7.23047 0.68,3.071 1.02219,3.41416 1.34619,7.36816 0.172,1.972 0.16184,3.96368 -0.13916,5.72168 -0.324,1.77 -0.8993,3.14893 -2.0083,4.39893 -2.187,2.566 -7.53069,4.47633 -13.42969,5.46533 -5.949,1.042 -12.61305,1.49158 -19.51905,1.72558 -6.93,0.234 -14.14918,0.2343 -21.49218,0.1333 -7.203,0 -15.22263,-0.8626 -23.39063,1.8794 -2.031,0.73 -4.14501,1.78471 -5.93701,3.55371 -1.817,1.747 -3.00097,4.34811 -3.18897,6.76611 -0.219,2.438 0.25109,4.63603 0.89209,6.62403 0.648,1.988 1.51487,3.8056 2.46387,5.5166 3.86,6.812 8.76187,12.35462 13.60987,17.55762 9.812,10.309 19.83536,18.86485 28.52636,26.04785 8.719,7.149 16.19203,12.82742 21.45703,16.75342 4.68,3.481 7.61492,5.56328 8.21192,5.98828 -11.121,7.996 -21.0625,15.14917 -32.0625,23.05517 z"
   sodipodi:nodetypes="scccccccccccccccccccscccccsscccccccccsccccccccccccccccccc"
   inkscape:label="mountain" /></g>
  <g
   id="snow"
   style="display:inline;fill:url(#meshgradient440-5);fill-opacity:1"
   transform="matrix(4.0881351,0,0,-4.1186749,-183.48369,1551.1732)">
    <path
   style="display:inline;fill:#ffffff;fill-opacity:1;fill-rule:nonzero;stroke:none"
   d="m 141.555,229.789 c -6.793,-7.809 -12.035,-16.141 -19.395,-21.59 -0.801,-0.594 -1.637,-1.133 -2.508,-1.633 -6.078,-3.48 -13.73,-4.769 -21.121,-5.98 9.512,16.633 22.649,27.437 43.024,29.203 z"
   id="path470-5" />
    <path
   style="display:inline;fill:#ffffff;fill-opacity:1;fill-rule:nonzero;stroke:none"
   d="m 317.066,284.758 c -11.086,-12.871 -20.687,-24.028 -30.664,-35.617 -0.507,3.547 -1.078,7.519 -1.707,11.886 -6.574,-8.925 -12.82,-17.41 -19.066,-25.89 -1.219,0.801 -2.438,1.597 -3.652,2.398 6.074,9.711 12.039,19.5 18.265,29.11 4.074,6.289 8.438,12.398 12.844,18.457 12.328,16.949 24.75,33.824 37.125,50.73 1.184,-0.5 2.363,-1 3.543,-1.496 0.809,-9.414 1.617,-18.832 2.488,-29.063 -8.062,-4.957 -16.679,-10.261 -27.965,-17.207 4.161,-1.562 6.93,-2.601 8.789,-3.308"
   id="path468-4" />
    <path
   style="display:inline;fill:#ffffff;fill-opacity:1;fill-rule:nonzero;stroke:none"
   d="m 365.066,223.207 v 0.004 c -0.257,2.062 -0.91,4.043 -1.726,5.98 -3.203,7.59 -8.945,14.547 -3.32,23.586 0.695,1.11 1.546,2.25 2.605,3.426 0.84,0.938 1.199,2.309 1.246,3.988 0.149,5.039 -2.496,12.805 -3.242,19.668 0,-0.004 0.004,-0.004 0.004,-0.004 v 0.004 c 4.238,-5.394 7.437,-11.023 9.652,-16.625 6.125,-15.488 4.504,-30.738 -5.219,-40.027"
   id="path467-3" />
    <path
   style="display:inline;fill:#ffffff;fill-opacity:1;fill-rule:nonzero;stroke:none"
   d="m 431.82,240.883 c -1.632,-3.274 -3.613,-7.274 -6.718,-13.524 -7.289,11.481 -13.641,21.493 -19.989,31.493 0.559,0.679 1.114,1.359 1.672,2.039 0.16,0.195 0.324,0.394 0.485,0.589 1.671,-1.402 3.347,-2.808 5.039,-4.226 6.031,-5.063 12.281,-10.309 19.511,-16.371"
   id="path117-1" />
  </g>
<script
   id="mesh_polyfill"
   type="text/javascript">
!function(){const t=&quot;http://www.w3.org/2000/svg&quot;,e=&quot;http://www.w3.org/1999/xlink&quot;,s=&quot;http://www.w3.org/1999/xhtml&quot;,r=2;if(document.createElementNS(t,&quot;meshgradient&quot;).x)return;const n=(t,e,s,r)=&gt;{let n=new x(.5*(e.x+s.x),.5*(e.y+s.y)),o=new x(.5*(t.x+e.x),.5*(t.y+e.y)),i=new x(.5*(s.x+r.x),.5*(s.y+r.y)),a=new x(.5*(n.x+o.x),.5*(n.y+o.y)),h=new x(.5*(n.x+i.x),.5*(n.y+i.y)),l=new x(.5*(a.x+h.x),.5*(a.y+h.y));return[[t,o,a,l],[l,h,i,r]]},o=t=&gt;{let e=t[0].distSquared(t[1]),s=t[2].distSquared(t[3]),r=.25*t[0].distSquared(t[2]),n=.25*t[1].distSquared(t[3]),o=e&gt;s?e:s,i=r&gt;n?r:n;return 18*(o&gt;i?o:i)},i=(t,e)=&gt;Math.sqrt(t.distSquared(e)),a=(t,e)=&gt;t.scale(2/3).add(e.scale(1/3)),h=t=&gt;{let e,s,r,n,o,i,a,h=new g;return t.match(/(\w+\(\s*[^)]+\))+/g).forEach(t=&gt;{let l=t.match(/[\w.-]+/g),d=l.shift();switch(d){case&quot;translate&quot;:2===l.length?e=new g(1,0,0,1,l[0],l[1]):(console.error(&quot;mesh.js: translate does not have 2 arguments!&quot;),e=new g(1,0,0,1,0,0)),h=h.append(e);break;case&quot;scale&quot;:1===l.length?s=new g(l[0],0,0,l[0],0,0):2===l.length?s=new g(l[0],0,0,l[1],0,0):(console.error(&quot;mesh.js: scale does not have 1 or 2 arguments!&quot;),s=new g(1,0,0,1,0,0)),h=h.append(s);break;case&quot;rotate&quot;:if(3===l.length&amp;&amp;(e=new g(1,0,0,1,l[1],l[2]),h=h.append(e)),l[0]){r=l[0]*Math.PI/180;let t=Math.cos(r),e=Math.sin(r);Math.abs(t)&lt;1e-16&amp;&amp;(t=0),Math.abs(e)&lt;1e-16&amp;&amp;(e=0),a=new g(t,e,-e,t,0,0),h=h.append(a)}else console.error(&quot;math.js: No argument to rotate transform!&quot;);3===l.length&amp;&amp;(e=new g(1,0,0,1,-l[1],-l[2]),h=h.append(e));break;case&quot;skewX&quot;:l[0]?(r=l[0]*Math.PI/180,n=Math.tan(r),o=new g(1,0,n,1,0,0),h=h.append(o)):console.error(&quot;math.js: No argument to skewX transform!&quot;);break;case&quot;skewY&quot;:l[0]?(r=l[0]*Math.PI/180,n=Math.tan(r),i=new g(1,n,0,1,0,0),h=h.append(i)):console.error(&quot;math.js: No argument to skewY transform!&quot;);break;case&quot;matrix&quot;:6===l.length?h=h.append(new g(...l)):console.error(&quot;math.js: Incorrect number of arguments for matrix!&quot;);break;default:console.error(&quot;mesh.js: Unhandled transform type: &quot;+d)}}),h},l=t=&gt;{let e=[],s=t.split(/[ ,]+/);for(let t=0,r=s.length-1;t&lt;r;t+=2)e.push(new x(parseFloat(s[t]),parseFloat(s[t+1])));return e},d=(t,e)=&gt;{for(let s in e)t.setAttribute(s,e[s])},c=(t,e,s,r,n)=&gt;{let o,i,a=[0,0,0,0];for(let h=0;h&lt;3;++h)e[h]&lt;t[h]&amp;&amp;e[h]&lt;s[h]||t[h]&lt;e[h]&amp;&amp;s[h]&lt;e[h]?a[h]=0:(a[h]=.5*((e[h]-t[h])/r+(s[h]-e[h])/n),o=Math.abs(3*(e[h]-t[h])/r),i=Math.abs(3*(s[h]-e[h])/n),a[h]&gt;o?a[h]=o:a[h]&gt;i&amp;&amp;(a[h]=i));return a},u=[[1,0,0,0,0,0,0,0,0,0,0,0,0,0,0,0],[0,0,0,0,1,0,0,0,0,0,0,0,0,0,0,0],[-3,3,0,0,-2,-1,0,0,0,0,0,0,0,0,0,0],[2,-2,0,0,1,1,0,0,0,0,0,0,0,0,0,0],[0,0,0,0,0,0,0,0,1,0,0,0,0,0,0,0],[0,0,0,0,0,0,0,0,0,0,0,0,1,0,0,0],[0,0,0,0,0,0,0,0,-3,3,0,0,-2,-1,0,0],[0,0,0,0,0,0,0,0,2,-2,0,0,1,1,0,0],[-3,0,3,0,0,0,0,0,-2,0,-1,0,0,0,0,0],[0,0,0,0,-3,0,3,0,0,0,0,0,-2,0,-1,0],[9,-9,-9,9,6,3,-6,-3,6,-6,3,-3,4,2,2,1],[-6,6,6,-6,-3,-3,3,3,-4,4,-2,2,-2,-2,-1,-1],[2,0,-2,0,0,0,0,0,1,0,1,0,0,0,0,0],[0,0,0,0,2,0,-2,0,0,0,0,0,1,0,1,0],[-6,6,6,-6,-4,-2,4,2,-3,3,-3,3,-2,-1,-2,-1],[4,-4,-4,4,2,2,-2,-2,2,-2,2,-2,1,1,1,1]],f=t=&gt;{let e=[];for(let s=0;s&lt;16;++s){e[s]=0;for(let r=0;r&lt;16;++r)e[s]+=u[s][r]*t[r]}return e},p=(t,e,s)=&gt;{const r=e*e,n=s*s,o=e*e*e,i=s*s*s;return t[0]+t[1]*e+t[2]*r+t[3]*o+t[4]*s+t[5]*s*e+t[6]*s*r+t[7]*s*o+t[8]*n+t[9]*n*e+t[10]*n*r+t[11]*n*o+t[12]*i+t[13]*i*e+t[14]*i*r+t[15]*i*o},y=t=&gt;{let e=[],s=[],r=[];for(let s=0;s&lt;4;++s)e[s]=[],e[s][0]=n(t[0][s],t[1][s],t[2][s],t[3][s]),e[s][1]=[],e[s][1].push(...n(...e[s][0][0])),e[s][1].push(...n(...e[s][0][1])),e[s][2]=[],e[s][2].push(...n(...e[s][1][0])),e[s][2].push(...n(...e[s][1][1])),e[s][2].push(...n(...e[s][1][2])),e[s][2].push(...n(...e[s][1][3]));for(let t=0;t&lt;8;++t){s[t]=[];for(let r=0;r&lt;4;++r)s[t][r]=[],s[t][r][0]=n(e[0][2][t][r],e[1][2][t][r],e[2][2][t][r],e[3][2][t][r]),s[t][r][1]=[],s[t][r][1].push(...n(...s[t][r][0][0])),s[t][r][1].push(...n(...s[t][r][0][1])),s[t][r][2]=[],s[t][r][2].push(...n(...s[t][r][1][0])),s[t][r][2].push(...n(...s[t][r][1][1])),s[t][r][2].push(...n(...s[t][r][1][2])),s[t][r][2].push(...n(...s[t][r][1][3]))}for(let t=0;t&lt;8;++t){r[t]=[];for(let e=0;e&lt;8;++e)r[t][e]=[],r[t][e][0]=s[t][0][2][e],r[t][e][1]=s[t][1][2][e],r[t][e][2]=s[t][2][2][e],r[t][e][3]=s[t][3][2][e]}return r};class x{constructor(t,e){this.x=t||0,this.y=e||0}toString(){return`(x=${this.x}, y=${this.y})`}clone(){return new x(this.x,this.y)}add(t){return new x(this.x+t.x,this.y+t.y)}scale(t){return void 0===t.x?new x(this.x*t,this.y*t):new x(this.x*t.x,this.y*t.y)}distSquared(t){let e=this.x-t.x,s=this.y-t.y;return e*e+s*s}transform(t){let e=this.x*t.a+this.y*t.c+t.e,s=this.x*t.b+this.y*t.d+t.f;return new x(e,s)}}class g{constructor(t,e,s,r,n,o){void 0===t?(this.a=1,this.b=0,this.c=0,this.d=1,this.e=0,this.f=0):(this.a=t,this.b=e,this.c=s,this.d=r,this.e=n,this.f=o)}toString(){return`affine: ${this.a} ${this.c} ${this.e} \n       ${this.b} ${this.d} ${this.f}`}append(t){t instanceof g||console.error(&quot;mesh.js: argument to Affine.append is not affine!&quot;);let e=this.a*t.a+this.c*t.b,s=this.b*t.a+this.d*t.b,r=this.a*t.c+this.c*t.d,n=this.b*t.c+this.d*t.d,o=this.a*t.e+this.c*t.f+this.e,i=this.b*t.e+this.d*t.f+this.f;return new g(e,s,r,n,o,i)}}class w{constructor(t,e){this.nodes=t,this.colors=e}paintCurve(t,e){if(o(this.nodes)&gt;r){const s=n(...this.nodes);let r=[[],[]],o=[[],[]];for(let t=0;t&lt;4;++t)r[0][t]=this.colors[0][t],r[1][t]=(this.colors[0][t]+this.colors[1][t])/2,o[0][t]=r[1][t],o[1][t]=this.colors[1][t];let i=new w(s[0],r),a=new w(s[1],o);i.paintCurve(t,e),a.paintCurve(t,e)}else{let s=Math.round(this.nodes[0].x);if(s&gt;=0&amp;&amp;s&lt;e){let r=4*(~~this.nodes[0].y*e+s);t[r]=Math.round(this.colors[0][0]),t[r+1]=Math.round(this.colors[0][1]),t[r+2]=Math.round(this.colors[0][2]),t[r+3]=Math.round(this.colors[0][3])}}}}class m{constructor(t,e){this.nodes=t,this.colors=e}split(){let t=[[],[],[],[]],e=[[],[],[],[]],s=[[[],[]],[[],[]]],r=[[[],[]],[[],[]]];for(let s=0;s&lt;4;++s){const r=n(this.nodes[0][s],this.nodes[1][s],this.nodes[2][s],this.nodes[3][s]);t[0][s]=r[0][0],t[1][s]=r[0][1],t[2][s]=r[0][2],t[3][s]=r[0][3],e[0][s]=r[1][0],e[1][s]=r[1][1],e[2][s]=r[1][2],e[3][s]=r[1][3]}for(let t=0;t&lt;4;++t)s[0][0][t]=this.colors[0][0][t],s[0][1][t]=this.colors[0][1][t],s[1][0][t]=(this.colors[0][0][t]+this.colors[1][0][t])/2,s[1][1][t]=(this.colors[0][1][t]+this.colors[1][1][t])/2,r[0][0][t]=s[1][0][t],r[0][1][t]=s[1][1][t],r[1][0][t]=this.colors[1][0][t],r[1][1][t]=this.colors[1][1][t];return[new m(t,s),new m(e,r)]}paint(t,e){let s,n=!1;for(let t=0;t&lt;4;++t)if((s=o([this.nodes[0][t],this.nodes[1][t],this.nodes[2][t],this.nodes[3][t]]))&gt;r){n=!0;break}if(n){let s=this.split();s[0].paint(t,e),s[1].paint(t,e)}else{new w([...this.nodes[0]],[...this.colors[0]]).paintCurve(t,e)}}}class b{constructor(t){this.readMesh(t),this.type=t.getAttribute(&quot;type&quot;)||&quot;bilinear&quot;}readMesh(t){let e=[[]],s=[[]],r=Number(t.getAttribute(&quot;x&quot;)),n=Number(t.getAttribute(&quot;y&quot;));e[0][0]=new x(r,n);let o=t.children;for(let t=0,r=o.length;t&lt;r;++t){e[3*t+1]=[],e[3*t+2]=[],e[3*t+3]=[],s[t+1]=[];let r=o[t].children;for(let n=0,o=r.length;n&lt;o;++n){let o=r[n].children;for(let r=0,i=o.length;r&lt;i;++r){let i=r;0!==t&amp;&amp;++i;let h,d=o[r].getAttribute(&quot;path&quot;),c=&quot;l&quot;;null!=d&amp;&amp;(c=(h=d.match(/\s*([lLcC])\s*(.*)/))[1]);let u=l(h[2]);switch(c){case&quot;l&quot;:0===i?(e[3*t][3*n+3]=u[0].add(e[3*t][3*n]),e[3*t][3*n+1]=a(e[3*t][3*n],e[3*t][3*n+3]),e[3*t][3*n+2]=a(e[3*t][3*n+3],e[3*t][3*n])):1===i?(e[3*t+3][3*n+3]=u[0].add(e[3*t][3*n+3]),e[3*t+1][3*n+3]=a(e[3*t][3*n+3],e[3*t+3][3*n+3]),e[3*t+2][3*n+3]=a(e[3*t+3][3*n+3],e[3*t][3*n+3])):2===i?(0===n&amp;&amp;(e[3*t+3][3*n+0]=u[0].add(e[3*t+3][3*n+3])),e[3*t+3][3*n+1]=a(e[3*t+3][3*n],e[3*t+3][3*n+3]),e[3*t+3][3*n+2]=a(e[3*t+3][3*n+3],e[3*t+3][3*n])):(e[3*t+1][3*n]=a(e[3*t][3*n],e[3*t+3][3*n]),e[3*t+2][3*n]=a(e[3*t+3][3*n],e[3*t][3*n]));break;case&quot;L&quot;:0===i?(e[3*t][3*n+3]=u[0],e[3*t][3*n+1]=a(e[3*t][3*n],e[3*t][3*n+3]),e[3*t][3*n+2]=a(e[3*t][3*n+3],e[3*t][3*n])):1===i?(e[3*t+3][3*n+3]=u[0],e[3*t+1][3*n+3]=a(e[3*t][3*n+3],e[3*t+3][3*n+3]),e[3*t+2][3*n+3]=a(e[3*t+3][3*n+3],e[3*t][3*n+3])):2===i?(0===n&amp;&amp;(e[3*t+3][3*n+0]=u[0]),e[3*t+3][3*n+1]=a(e[3*t+3][3*n],e[3*t+3][3*n+3]),e[3*t+3][3*n+2]=a(e[3*t+3][3*n+3],e[3*t+3][3*n])):(e[3*t+1][3*n]=a(e[3*t][3*n],e[3*t+3][3*n]),e[3*t+2][3*n]=a(e[3*t+3][3*n],e[3*t][3*n]));break;case&quot;c&quot;:0===i?(e[3*t][3*n+1]=u[0].add(e[3*t][3*n]),e[3*t][3*n+2]=u[1].add(e[3*t][3*n]),e[3*t][3*n+3]=u[2].add(e[3*t][3*n])):1===i?(e[3*t+1][3*n+3]=u[0].add(e[3*t][3*n+3]),e[3*t+2][3*n+3]=u[1].add(e[3*t][3*n+3]),e[3*t+3][3*n+3]=u[2].add(e[3*t][3*n+3])):2===i?(e[3*t+3][3*n+2]=u[0].add(e[3*t+3][3*n+3]),e[3*t+3][3*n+1]=u[1].add(e[3*t+3][3*n+3]),0===n&amp;&amp;(e[3*t+3][3*n+0]=u[2].add(e[3*t+3][3*n+3]))):(e[3*t+2][3*n]=u[0].add(e[3*t+3][3*n]),e[3*t+1][3*n]=u[1].add(e[3*t+3][3*n]));break;case&quot;C&quot;:0===i?(e[3*t][3*n+1]=u[0],e[3*t][3*n+2]=u[1],e[3*t][3*n+3]=u[2]):1===i?(e[3*t+1][3*n+3]=u[0],e[3*t+2][3*n+3]=u[1],e[3*t+3][3*n+3]=u[2]):2===i?(e[3*t+3][3*n+2]=u[0],e[3*t+3][3*n+1]=u[1],0===n&amp;&amp;(e[3*t+3][3*n+0]=u[2])):(e[3*t+2][3*n]=u[0],e[3*t+1][3*n]=u[1]);break;default:console.error(&quot;mesh.js: &quot;+c+&quot; invalid path type.&quot;)}if(0===t&amp;&amp;0===n||r&gt;0){let e=window.getComputedStyle(o[r]).stopColor.match(/^rgb\s*\(\s*(\d+)\s*,\s*(\d+)\s*,\s*(\d+)\s*\)$/i),a=window.getComputedStyle(o[r]).stopOpacity,h=255;a&amp;&amp;(h=Math.floor(255*a)),e&amp;&amp;(0===i?(s[t][n]=[],s[t][n][0]=Math.floor(e[1]),s[t][n][1]=Math.floor(e[2]),s[t][n][2]=Math.floor(e[3]),s[t][n][3]=h):1===i?(s[t][n+1]=[],s[t][n+1][0]=Math.floor(e[1]),s[t][n+1][1]=Math.floor(e[2]),s[t][n+1][2]=Math.floor(e[3]),s[t][n+1][3]=h):2===i?(s[t+1][n+1]=[],s[t+1][n+1][0]=Math.floor(e[1]),s[t+1][n+1][1]=Math.floor(e[2]),s[t+1][n+1][2]=Math.floor(e[3]),s[t+1][n+1][3]=h):3===i&amp;&amp;(s[t+1][n]=[],s[t+1][n][0]=Math.floor(e[1]),s[t+1][n][1]=Math.floor(e[2]),s[t+1][n][2]=Math.floor(e[3]),s[t+1][n][3]=h))}}e[3*t+1][3*n+1]=new x,e[3*t+1][3*n+2]=new x,e[3*t+2][3*n+1]=new x,e[3*t+2][3*n+2]=new x,e[3*t+1][3*n+1].x=(-4*e[3*t][3*n].x+6*(e[3*t][3*n+1].x+e[3*t+1][3*n].x)+-2*(e[3*t][3*n+3].x+e[3*t+3][3*n].x)+3*(e[3*t+3][3*n+1].x+e[3*t+1][3*n+3].x)+-1*e[3*t+3][3*n+3].x)/9,e[3*t+1][3*n+2].x=(-4*e[3*t][3*n+3].x+6*(e[3*t][3*n+2].x+e[3*t+1][3*n+3].x)+-2*(e[3*t][3*n].x+e[3*t+3][3*n+3].x)+3*(e[3*t+3][3*n+2].x+e[3*t+1][3*n].x)+-1*e[3*t+3][3*n].x)/9,e[3*t+2][3*n+1].x=(-4*e[3*t+3][3*n].x+6*(e[3*t+3][3*n+1].x+e[3*t+2][3*n].x)+-2*(e[3*t+3][3*n+3].x+e[3*t][3*n].x)+3*(e[3*t][3*n+1].x+e[3*t+2][3*n+3].x)+-1*e[3*t][3*n+3].x)/9,e[3*t+2][3*n+2].x=(-4*e[3*t+3][3*n+3].x+6*(e[3*t+3][3*n+2].x+e[3*t+2][3*n+3].x)+-2*(e[3*t+3][3*n].x+e[3*t][3*n+3].x)+3*(e[3*t][3*n+2].x+e[3*t+2][3*n].x)+-1*e[3*t][3*n].x)/9,e[3*t+1][3*n+1].y=(-4*e[3*t][3*n].y+6*(e[3*t][3*n+1].y+e[3*t+1][3*n].y)+-2*(e[3*t][3*n+3].y+e[3*t+3][3*n].y)+3*(e[3*t+3][3*n+1].y+e[3*t+1][3*n+3].y)+-1*e[3*t+3][3*n+3].y)/9,e[3*t+1][3*n+2].y=(-4*e[3*t][3*n+3].y+6*(e[3*t][3*n+2].y+e[3*t+1][3*n+3].y)+-2*(e[3*t][3*n].y+e[3*t+3][3*n+3].y)+3*(e[3*t+3][3*n+2].y+e[3*t+1][3*n].y)+-1*e[3*t+3][3*n].y)/9,e[3*t+2][3*n+1].y=(-4*e[3*t+3][3*n].y+6*(e[3*t+3][3*n+1].y+e[3*t+2][3*n].y)+-2*(e[3*t+3][3*n+3].y+e[3*t][3*n].y)+3*(e[3*t][3*n+1].y+e[3*t+2][3*n+3].y)+-1*e[3*t][3*n+3].y)/9,e[3*t+2][3*n+2].y=(-4*e[3*t+3][3*n+3].y+6*(e[3*t+3][3*n+2].y+e[3*t+2][3*n+3].y)+-2*(e[3*t+3][3*n].y+e[3*t][3*n+3].y)+3*(e[3*t][3*n+2].y+e[3*t+2][3*n].y)+-1*e[3*t][3*n].y)/9}}this.nodes=e,this.colors=s}paintMesh(t,e){let s=(this.nodes.length-1)/3,r=(this.nodes[0].length-1)/3;if(&quot;bilinear&quot;===this.type||s&lt;2||r&lt;2){let n;for(let o=0;o&lt;s;++o)for(let s=0;s&lt;r;++s){let r=[];for(let t=3*o,e=3*o+4;t&lt;e;++t)r.push(this.nodes[t].slice(3*s,3*s+4));let i=[];i.push(this.colors[o].slice(s,s+2)),i.push(this.colors[o+1].slice(s,s+2)),(n=new m(r,i)).paint(t,e)}}else{let n,o,a,h,l,d,u;const x=s,g=r;s++,r++;let w=new Array(s);for(let t=0;t&lt;s;++t){w[t]=new Array(r);for(let e=0;e&lt;r;++e)w[t][e]=[],w[t][e][0]=this.nodes[3*t][3*e],w[t][e][1]=this.colors[t][e]}for(let t=0;t&lt;s;++t)for(let e=0;e&lt;r;++e)0!==t&amp;&amp;t!==x&amp;&amp;(n=i(w[t-1][e][0],w[t][e][0]),o=i(w[t+1][e][0],w[t][e][0]),w[t][e][2]=c(w[t-1][e][1],w[t][e][1],w[t+1][e][1],n,o)),0!==e&amp;&amp;e!==g&amp;&amp;(n=i(w[t][e-1][0],w[t][e][0]),o=i(w[t][e+1][0],w[t][e][0]),w[t][e][3]=c(w[t][e-1][1],w[t][e][1],w[t][e+1][1],n,o));for(let t=0;t&lt;r;++t){w[0][t][2]=[],w[x][t][2]=[];for(let e=0;e&lt;4;++e)n=i(w[1][t][0],w[0][t][0]),o=i(w[x][t][0],w[x-1][t][0]),w[0][t][2][e]=n&gt;0?2*(w[1][t][1][e]-w[0][t][1][e])/n-w[1][t][2][e]:0,w[x][t][2][e]=o&gt;0?2*(w[x][t][1][e]-w[x-1][t][1][e])/o-w[x-1][t][2][e]:0}for(let t=0;t&lt;s;++t){w[t][0][3]=[],w[t][g][3]=[];for(let e=0;e&lt;4;++e)n=i(w[t][1][0],w[t][0][0]),o=i(w[t][g][0],w[t][g-1][0]),w[t][0][3][e]=n&gt;0?2*(w[t][1][1][e]-w[t][0][1][e])/n-w[t][1][3][e]:0,w[t][g][3][e]=o&gt;0?2*(w[t][g][1][e]-w[t][g-1][1][e])/o-w[t][g-1][3][e]:0}for(let s=0;s&lt;x;++s)for(let r=0;r&lt;g;++r){let n=i(w[s][r][0],w[s+1][r][0]),o=i(w[s][r+1][0],w[s+1][r+1][0]),c=i(w[s][r][0],w[s][r+1][0]),x=i(w[s+1][r][0],w[s+1][r+1][0]),g=[[],[],[],[]];for(let t=0;t&lt;4;++t){(d=[])[0]=w[s][r][1][t],d[1]=w[s+1][r][1][t],d[2]=w[s][r+1][1][t],d[3]=w[s+1][r+1][1][t],d[4]=w[s][r][2][t]*n,d[5]=w[s+1][r][2][t]*n,d[6]=w[s][r+1][2][t]*o,d[7]=w[s+1][r+1][2][t]*o,d[8]=w[s][r][3][t]*c,d[9]=w[s+1][r][3][t]*x,d[10]=w[s][r+1][3][t]*c,d[11]=w[s+1][r+1][3][t]*x,d[12]=0,d[13]=0,d[14]=0,d[15]=0,u=f(d);for(let e=0;e&lt;9;++e){g[t][e]=[];for(let s=0;s&lt;9;++s)g[t][e][s]=p(u,e/8,s/8),g[t][e][s]&gt;255?g[t][e][s]=255:g[t][e][s]&lt;0&amp;&amp;(g[t][e][s]=0)}}h=[];for(let t=3*s,e=3*s+4;t&lt;e;++t)h.push(this.nodes[t].slice(3*r,3*r+4));l=y(h);for(let s=0;s&lt;8;++s)for(let r=0;r&lt;8;++r)(a=new m(l[s][r],[[[g[0][s][r],g[1][s][r],g[2][s][r],g[3][s][r]],[g[0][s][r+1],g[1][s][r+1],g[2][s][r+1],g[3][s][r+1]]],[[g[0][s+1][r],g[1][s+1][r],g[2][s+1][r],g[3][s+1][r]],[g[0][s+1][r+1],g[1][s+1][r+1],g[2][s+1][r+1],g[3][s+1][r+1]]]])).paint(t,e)}}}transform(t){if(t instanceof x)for(let e=0,s=this.nodes.length;e&lt;s;++e)for(let s=0,r=this.nodes[0].length;s&lt;r;++s)this.nodes[e][s]=this.nodes[e][s].add(t);else if(t instanceof g)for(let e=0,s=this.nodes.length;e&lt;s;++e)for(let s=0,r=this.nodes[0].length;s&lt;r;++s)this.nodes[e][s]=this.nodes[e][s].transform(t)}scale(t){for(let e=0,s=this.nodes.length;e&lt;s;++e)for(let s=0,r=this.nodes[0].length;s&lt;r;++s)this.nodes[e][s]=this.nodes[e][s].scale(t)}}document.querySelectorAll(&quot;rect,circle,ellipse,path,text&quot;).forEach((r,n)=&gt;{let o=r.getAttribute(&quot;id&quot;);o||(o=&quot;patchjs_shape&quot;+n,r.setAttribute(&quot;id&quot;,o));const i=r.style.fill.match(/^url\(\s*&quot;?\s*#([^\s&quot;]+)&quot;?\s*\)/),a=r.style.stroke.match(/^url\(\s*&quot;?\s*#([^\s&quot;]+)&quot;?\s*\)/);if(i&amp;&amp;i[1]){const a=document.getElementById(i[1]);if(a&amp;&amp;&quot;meshgradient&quot;===a.nodeName){const i=r.getBBox();let l=document.createElementNS(s,&quot;canvas&quot;);d(l,{width:i.width,height:i.height});const c=l.getContext(&quot;2d&quot;);let u=c.createImageData(i.width,i.height);const f=new b(a);&quot;objectBoundingBox&quot;===a.getAttribute(&quot;gradientUnits&quot;)&amp;&amp;f.scale(new x(i.width,i.height));const p=a.getAttribute(&quot;gradientTransform&quot;);null!=p&amp;&amp;f.transform(h(p)),&quot;userSpaceOnUse&quot;===a.getAttribute(&quot;gradientUnits&quot;)&amp;&amp;f.transform(new x(-i.x,-i.y)),f.paintMesh(u.data,l.width),c.putImageData(u,0,0);const y=document.createElementNS(t,&quot;image&quot;);d(y,{width:i.width,height:i.height,x:i.x,y:i.y});let g=l.toDataURL();y.setAttributeNS(e,&quot;xlink:href&quot;,g),r.parentNode.insertBefore(y,r),r.style.fill=&quot;none&quot;;const w=document.createElementNS(t,&quot;use&quot;);w.setAttributeNS(e,&quot;xlink:href&quot;,&quot;#&quot;+o);const m=&quot;patchjs_clip&quot;+n,M=document.createElementNS(t,&quot;clipPath&quot;);M.setAttribute(&quot;id&quot;,m),M.appendChild(w),r.parentElement.insertBefore(M,r),y.setAttribute(&quot;clip-path&quot;,&quot;url(#&quot;+m+&quot;)&quot;),u=null,l=null,g=null}}if(a&amp;&amp;a[1]){const o=document.getElementById(a[1]);if(o&amp;&amp;&quot;meshgradient&quot;===o.nodeName){const i=parseFloat(r.style.strokeWidth.slice(0,-2))*(parseFloat(r.style.strokeMiterlimit)||parseFloat(r.getAttribute(&quot;stroke-miterlimit&quot;))||1),a=r.getBBox(),l=Math.trunc(a.width+i),c=Math.trunc(a.height+i),u=Math.trunc(a.x-i/2),f=Math.trunc(a.y-i/2);let p=document.createElementNS(s,&quot;canvas&quot;);d(p,{width:l,height:c});const y=p.getContext(&quot;2d&quot;);let g=y.createImageData(l,c);const w=new b(o);&quot;objectBoundingBox&quot;===o.getAttribute(&quot;gradientUnits&quot;)&amp;&amp;w.scale(new x(l,c));const m=o.getAttribute(&quot;gradientTransform&quot;);null!=m&amp;&amp;w.transform(h(m)),&quot;userSpaceOnUse&quot;===o.getAttribute(&quot;gradientUnits&quot;)&amp;&amp;w.transform(new x(-u,-f)),w.paintMesh(g.data,p.width),y.putImageData(g,0,0);const M=document.createElementNS(t,&quot;image&quot;);d(M,{width:l,height:c,x:0,y:0});let S=p.toDataURL();M.setAttributeNS(e,&quot;xlink:href&quot;,S);const k=&quot;pattern_clip&quot;+n,A=document.createElementNS(t,&quot;pattern&quot;);d(A,{id:k,patternUnits:&quot;userSpaceOnUse&quot;,width:l,height:c,x:u,y:f}),A.appendChild(M),o.parentNode.appendChild(A),r.style.stroke=&quot;url(#&quot;+k+&quot;)&quot;,g=null,p=null,S=null}}})}();
</script><g
   id="logo_text"
   transform="matrix(0.60177177,0,0,0.60177177,15.004045,863.76015)"
   style="display:none;stroke:#000000;stroke-opacity:1"><path
     d="m 2808,539 v 7 l 1,2 h 12 l 4,2 4,6 v 166 l 1,2 3,2 h 112 l 2,-1 4,-8 3,-17 1,-1 v -4 l 1,-1 1,-11 1,-1 v -3 l -5,-2 h -4 v 2 l -8,16 -5,7 -6,5 -7,3 h -4 l -1,1 h -23 l -1,1 h -22 l -1,-1 h -7 l -3,-2 -1,-3 v -71 l 1,-1 h 28 l 1,1 h 28 l 1,1 h 9 l 1,-2 v -11 l 1,-1 -1,-3 -3,-2 -29,1 -1,1 h -19 l -1,1 h -15 l -1,-1 v -69 l 2,-3 h 53 l 1,1 h 4 l 3,2 h 2 l 6,6 4,8 4,15 1,-1 h 7 v -20 l -1,-1 v -19 l -1,-1 v -3 l -1,-1 h -95 l -1,1 h -9 l -1,1 h -7 l -1,1 h -6 l -1,1 h -6 l -1,1 z m -264,-7 -3,2 v 7 l -1,1 -1,31 -1,1 v 5 l 1,1 h 6 l 1,1 1,-1 2,-10 5,-12 7,-8 4,-2 h 3 l 1,-1 h 15 l 1,-1 h 24 l 1,1 v 177 l 1,3 2,1 h 10 l 1,-1 14,-1 3,-2 V 548 l 2,-2 h 25 l 1,1 h 14 l 1,1 h 3 l 4,2 6,6 3,6 5,18 h 8 v -28 l -1,-1 v -15 l -1,-3 -2,-1 h -10 l -1,1 h -143 l -1,-1 z m -120,-3 -17,1 -1,1 h -7 l -1,1 h -6 l -1,1 -16,2 1,9 h 12 l 3,1 4,4 1,8 1,1 v 168 l 2,2 h 10 l 1,-1 14,-1 3,-2 1,-3 V 535 l -1,-1 v -3 z m -511,0 -17,1 -1,1 -15,1 -1,1 -15,2 1,9 h 12 l 5,3 3,6 v 172 l 1,2 2,1 19,-1 1,-1 h 5 l 3,-2 V 532 l -1,-2 z m -288,6 1,9 h 12 l 4,2 4,6 v 170 l 1,2 3,2 h 107 l 2,-1 3,-4 v -3 l 4,-13 v -4 l 1,-1 v -4 l 2,-6 v -5 l 1,-1 v -6 l -1,-1 -7,-1 -11,22 -8,8 -8,4 h -5 l -1,1 -40,1 -1,-1 h -7 l -3,-3 -1,-3 V 532 l -1,-2 -2,-1 h -7 l -1,1 h -9 l -1,1 -15,1 -1,1 z m 1431,0 1,9 h 4 l 1,-1 8,1 6,5 1,3 v 171 l 1,2 2,1 h 19 l 1,1 h 11 l 1,1 h 12 l 1,1 29,-1 1,-1 h 6 l 1,-1 9,-1 4,-2 h 3 l 12,-4 14,-7 12,-8 11,-10 13,-18 8,-19 2,-12 1,-1 v -6 l 1,-1 v -28 l -1,-1 v -6 l -1,-1 -1,-8 -7,-18 -7,-11 -13,-13 -11,-7 -18,-8 -10,-2 -4,-2 -18,-2 -1,-1 h -10 l -1,-1 h -38 l -1,1 h -13 l -1,1 -17,1 -1,1 h -6 l -1,1 h -6 l -1,1 h -6 z m 56,8 h 3 l 1,-1 h 28 l 1,1 h 7 l 17,5 9,4 14,10 10,11 8,13 5,14 1,8 1,1 v 6 l 1,1 v 24 l -1,1 -1,12 -5,16 -9,16 -10,11 -11,8 -10,5 -9,3 h -4 l -5,2 h -7 l -1,1 h -22 l -1,-1 -12,-1 -2,-2 V 548 Z M 2064,530 v 3 l 6,15 -2,6 v 5 l -2,6 v 5 l -2,6 -2,16 -1,1 v 4 l -2,6 v 5 l -2,6 v 5 l -2,6 -2,16 -1,1 v 4 l -2,6 v 5 l -2,6 -2,16 -1,1 -2,15 -2,6 v 5 l -2,6 v 5 l -2,6 v 4 l 1,1 19,-1 2,-2 1,-11 1,-1 v -7 l 1,-1 v -7 l 1,-1 v -7 l 1,-1 1,-16 1,-1 v -7 l 1,-1 v -7 l 1,-1 v -7 l 1,-1 v -7 l 1,-1 v -7 l 1,-1 v -7 l 1,-1 v -7 l 1,-1 v -7 l 1,-1 v -7 l 1,-1 v -7 l 1,-1 v -7 l 1,-1 v -7 l 2,-2 2,3 10,29 4,8 10,29 4,8 7,21 4,8 1,5 2,3 7,21 4,8 1,5 2,4 2,1 h 11 l 7,-2 13,-31 v -2 l 3,-5 4,-12 3,-5 6,-17 3,-5 6,-17 3,-5 4,-12 3,-5 6,-17 8,-17 1,1 1,14 1,1 1,17 1,1 v 7 l 1,1 v 8 l 1,1 v 7 l 1,1 v 8 l 1,1 v 8 l 1,1 v 7 l 1,1 v 8 l 1,1 v 7 l 1,1 v 8 l 1,1 v 8 l 1,1 3,30 3,2 h 10 l 1,-1 14,-1 3,-2 -1,-16 -1,-1 -2,-24 -1,-1 v -7 l -1,-1 v -8 l -1,-1 v -7 l -1,-1 v -8 l -1,-1 -2,-24 -1,-1 v -7 l -1,-1 v -8 l -1,-1 v -7 l -1,-1 v -8 l -1,-1 v -7 l -1,-1 v -8 l -1,-1 -2,-24 -1,-1 v -7 l -1,-1 v -8 l -3,-5 -21,1 -1,1 h -4 l -3,4 1,1 1,15 -10,21 -3,9 -4,7 -3,9 -4,7 v 2 l -10,21 -3,9 -4,7 -3,9 -4,7 -3,9 -4,7 -3,9 -3,4 -2,-3 -7,-21 -4,-8 -7,-21 -4,-8 -1,-5 -2,-3 -1,-5 -4,-8 -1,-5 -2,-3 -1,-5 -2,-3 -1,-5 -4,-8 -1,-5 -2,-3 -1,-5 -2,-3 -1,-5 -2,-3 -8,-22 -2,-2 h -12 l -1,1 -13,1 z M 162,526 H 71 l -1,1 H 60 l -1,1 h -8 l -1,1 -34,1 -1,1 -10,1 1,9 33,1 1,1 h 3 l 4,4 1,3 v 168 l 2,3 21,-1 1,-1 h 4 l 2,-1 1,-2 v -81 l 1,-1 66,2 1,-15 -2,-3 -3,-1 -3,1 h -19 l -1,1 h -19 l -1,1 H 80 l -1,-1 v -76 l 2,-3 h 51 l 1,1 7,1 2,1 9,10 5,15 v 3 l 1,1 8,-1 -1,-37 -1,-1 v -5 z m 1154,4 -13,-2 -1,-1 h -6 l -1,-1 h -8 l -1,-1 h -26 l -1,1 -13,1 -14,4 -12,6 -8,6 -9,11 -3,6 -2,7 v 4 l -1,1 v 17 l 4,13 6,9 16,13 24,11 28,10 13,7 7,6 5,7 1,3 v 13 l -5,11 -8,8 -5,3 -8,3 -9,1 -1,1 h -17 l -1,-1 h -5 l -10,-3 -7,-4 -7,-6 -5,-7 -4,-9 -1,-7 h -9 l 1,33 1,1 v 9 l 1,2 6,2 h 4 l 1,1 12,1 1,1 h 10 l 1,1 h 26 l 1,-1 h 8 l 1,-1 10,-1 13,-4 12,-6 6,-4 7,-7 5,-7 3,-6 v -3 l 3,-9 v -17 l -1,-1 -1,-7 -8,-13 -15,-12 -14,-7 -10,-3 -16,-7 -8,-2 -15,-7 -7,-5 -7,-8 -2,-5 v -5 l -1,-1 2,-12 6,-10 11,-8 10,-3 h 5 l 1,-1 18,1 13,5 3,2 10,11 3,6 2,9 h 9 l -1,-34 -1,-1 v -5 z m -441,-2 1,9 h 13 l 2,1 5,6 v 6 l 1,1 v 166 l 2,2 h 17 l 1,1 h 10 l 1,1 h 10 l 1,1 h 26 l 1,-1 h 9 l 1,-1 15,-2 4,-2 h 3 l 9,-3 15,-7 16,-11 11,-11 8,-11 4,-9 2,-2 1,-5 3,-6 v -3 l 3,-9 v -6 l 1,-1 1,-18 -1,-1 -1,-19 -6,-20 -5,-10 -5,-7 -13,-13 -11,-7 -18,-8 -14,-3 -1,-1 -10,-1 -1,-1 h -7 l -1,-1 h -10 l -1,-1 h -35 l -1,1 h -12 l -1,1 -18,1 -1,1 h -7 l -1,1 h -6 l -1,1 z m 57,8 h 3 l 1,-1 h 26 l 1,1 h 7 l 1,1 8,1 9,3 5,3 h 2 l 15,10 12,13 8,14 4,11 1,8 1,1 v 5 l 1,1 v 29 l -1,1 -1,11 -5,15 -8,14 -13,14 -12,8 -15,6 h -4 l -5,2 h -7 l -1,1 h -25 l -1,-1 h -5 l -6,-2 V 539 Z M 691,521 h -22 l -1,1 h -8 l -1,1 -10,1 -16,5 -20,11 -15,14 -10,15 -1,4 -3,5 -6,21 -1,19 -1,1 1,23 1,1 2,15 5,14 5,10 11,15 13,11 17,9 17,5 16,1 1,1 23,-1 1,-1 h 6 l 5,-2 h 4 l 21,-8 14,-9 6,-5 9,-10 9,-14 8,-22 v -4 l 2,-6 v -7 l 1,-1 v -29 l -1,-1 v -7 l -1,-1 -1,-9 -4,-12 -7,-14 -7,-10 -10,-10 -10,-7 -12,-6 -12,-4 h -4 l -6,-2 h -7 z m -27,14 h 16 l 1,1 9,1 12,5 11,8 9,10 10,18 5,17 v 5 l 2,7 v 8 l 1,1 v 24 l -1,1 v 7 l -1,1 -1,9 -4,13 -8,15 -10,11 -8,6 -6,3 -10,3 -15,1 -1,-1 -13,-1 -14,-6 -7,-5 -12,-13 -9,-16 -4,-11 v -3 l -2,-5 v -5 l -1,-1 v -5 l -1,-1 v -8 l -1,-1 v -25 l 1,-1 v -6 l 1,-1 v -5 l 1,-1 1,-8 6,-15 8,-12 10,-9 10,-6 10,-3 h 4 z M 375,521 h -22 l -1,1 h -8 l -1,1 -10,1 -4,2 -9,2 -17,8 -12,9 -8,8 -6,8 -8,15 -6,19 -1,12 -1,1 v 32 l 1,1 v 6 l 1,1 v 4 l 1,1 v 4 l 2,4 v 3 l 7,16 8,12 17,16 17,9 17,5 17,1 1,1 22,-1 1,-1 h 6 l 1,-1 8,-1 7,-3 h 3 l 13,-6 17,-12 11,-12 10,-17 6,-17 v -4 l 2,-6 v -6 l 1,-1 v -16 l 1,-1 -1,-1 v -15 l -1,-1 v -6 l -1,-1 v -4 l -4,-14 -9,-18 -5,-7 -12,-12 -14,-9 -19,-7 h -4 l -6,-2 h -7 z m -32,15 h 5 l 1,-1 h 15 l 1,1 h 5 l 10,3 11,6 12,11 6,8 7,14 5,16 v 5 l 1,1 v 5 l 2,7 v 31 l -1,1 v 5 l -1,1 -1,9 -3,10 -8,16 -12,13 -13,8 -10,3 -15,1 -1,-1 -13,-1 -6,-2 -12,-7 -10,-9 -7,-9 -8,-16 -5,-17 v -5 l -2,-7 v -10 l -1,-1 v -19 l 1,-1 v -8 l 1,-1 1,-10 4,-13 5,-10 11,-14 8,-6 10,-5 z M 119,8 h -19 l -1,1 h -9 l -1,1 H 79 l -1,1 h -7 l -1,1 -30,3 -1,1 h -5 l -1,1 h -5 l -1,1 h -5 l -1,1 h -5 l -1,1 h -5 l -1,1 -8,1 2,22 h 4 l 1,-1 h 21 l 11,4 7,7 3,6 1,8 1,1 v 408 l 2,5 4,3 h 23 l 1,-1 h 11 l 1,-1 h 9 l 7,-2 h 6 l 6,-2 3,-3 2,-6 V 20 l -1,-1 v -5 l -1,-2 z m 3096,11 -14,-3 -1,-1 -14,-2 -1,-1 h -6 l -1,-1 h -5 l -7,-2 h -7 l -1,-1 -19,-1 -1,-1 h -46 l -1,1 h -11 l -1,1 -14,1 -1,1 -14,2 -25,7 -3,2 -7,2 -21,11 -15,11 -12,12 -14,19 -7,14 -5,15 -2,15 -1,1 v 9 l -1,1 v 22 l 1,1 1,15 1,1 v 4 l 4,14 4,7 1,4 12,18 5,6 16,15 17,12 10,5 2,2 42,19 h 2 l 10,5 h 2 l 3,2 h 2 l 3,2 h 2 l 3,2 h 2 l 3,2 27,10 5,3 h 2 l 18,9 19,13 12,12 8,12 4,14 1,13 -1,1 -1,17 -7,19 -10,14 -7,7 -8,6 -17,9 -19,6 -11,1 -1,1 h -7 l -1,1 h -29 l -1,-1 h -8 l -1,-1 -10,-1 -17,-5 -13,-6 -11,-7 -14,-13 -12,-17 -8,-19 v -3 l -3,-9 -1,-10 -1,-1 -1,1 -18,1 v 30 l 1,1 v 26 l 1,1 1,38 1,1 v 9 l 5,6 5,2 h 4 l 1,1 h 4 l 1,1 h 4 l 1,1 h 4 l 6,2 h 6 l 1,1 h 6 l 1,1 h 6 l 1,1 h 6 l 1,1 21,1 1,1 h 25 l 1,1 h 8 l 1,-1 h 22 l 1,-1 19,-1 1,-1 22,-3 28,-8 17,-8 h 2 l 13,-7 17,-12 16,-16 10,-14 4,-9 2,-2 8,-23 v -4 l 2,-6 v -6 l 1,-1 1,-23 -1,-1 v -13 l -1,-1 -1,-11 -2,-4 -2,-9 -6,-13 -11,-16 -7,-8 -12,-11 -17,-12 -12,-6 -2,-2 -29,-13 h -2 l -5,-3 h -2 l -23,-10 -5,-1 -8,-4 -5,-1 -8,-4 -5,-1 -3,-2 -12,-4 -15,-7 -15,-9 -8,-6 -16,-17 -8,-17 -1,-13 -1,-1 1,-18 1,-1 v -5 l 2,-4 1,-6 7,-14 9,-11 9,-8 18,-10 20,-6 13,-1 1,-1 h 26 l 1,1 13,1 17,5 12,6 9,6 15,15 7,10 8,16 3,9 3,15 21,-2 -4,-87 -1,-1 v -9 z m -1034,-3 1,3 v 8 l 1,1 v 8 l 1,2 h 4 l 1,-1 h 20 l 10,3 3,2 6,7 3,6 v 4 l 1,1 v 6 l 1,1 v 311 l 1,1 v 6 l 1,1 v 7 l 5,18 9,19 9,13 15,15 10,7 15,8 25,8 10,1 1,1 h 6 l 1,1 h 10 l 1,1 h 18 l 1,-1 24,-1 1,-1 h 7 l 1,-1 h 4 l 1,-1 h 4 l 5,-2 12,-2 4,-2 13,-3 3,-2 11,-3 3,-2 5,-1 10,-5 7,-2 31,-15 6,-4 2,1 2,32 2,6 4,3 h 22 l 1,-1 19,-1 1,-1 13,-1 8,-4 2,-5 V 12 l -2,-4 -3,-2 h -21 l -1,1 -24,1 -1,1 h -6 l -1,1 -9,1 -2,1 -4,5 v 385 l -2,2 -12,6 h -2 l -5,3 h -2 l -20,9 -30,9 h -4 l -5,2 h -6 l -1,1 h -7 l -1,1 h -30 l -1,-1 h -8 l -1,-1 h -5 l -1,-1 -8,-1 -21,-8 -12,-8 -13,-13 -12,-20 -5,-15 v -4 l -2,-6 v -6 l -1,-1 v -14 l -1,-1 V 9 l -1,-2 -6,-5 h -19 l -1,1 -20,1 -1,1 -31,3 -1,1 h -6 l -1,1 h -5 l -1,1 h -5 l -1,1 h -5 l -1,1 h -5 l -1,1 z m -827,2 2,22 h 5 l 1,-1 h 19 l 1,1 7,1 7,4 4,4 5,13 v 406 l 1,1 v 3 l 3,4 2,1 41,1 1,1 32,2 1,1 20,1 1,1 h 14 l 1,1 51,-1 1,-1 h 10 l 1,-1 15,-1 1,-1 h 5 l 1,-1 15,-2 1,-1 8,-1 8,-3 7,-1 24,-8 33,-15 20,-12 14,-10 12,-10 19,-19 13,-16 13,-20 11,-21 v -2 l 5,-10 2,-8 2,-3 v -3 l 2,-4 v -3 l 2,-4 1,-8 2,-5 1,-10 1,-1 v -6 l 1,-1 v -7 l 1,-1 v -12 l 1,-1 v -40 l -1,-1 -1,-20 -1,-1 -2,-17 -1,-1 -4,-19 -3,-6 -3,-11 -4,-7 v -2 l -11,-21 -8,-12 -8,-10 -20,-20 -23,-17 -5,-2 -7,-5 -28,-13 -27,-9 h -3 l -17,-5 h -4 l -1,-1 h -4 l -1,-1 h -4 l -6,-2 -22,-2 -1,-1 -20,-1 -1,-1 h -15 l -1,-1 h -72 l -1,1 h -18 l -1,1 h -13 l -1,1 -21,1 -1,1 -25,2 -1,1 h -7 l -1,1 h -8 l -7,2 h -6 l -1,1 h -6 l -7,2 z m 135,20 8,-1 1,-1 h 12 l 1,-1 h 35 l 1,1 h 18 l 1,1 15,1 1,1 h 5 l 1,1 h 4 l 1,1 15,3 18,6 25,12 17,11 10,8 24,25 10,14 12,22 v 2 l 7,15 1,6 4,10 3,17 1,1 v 4 l 1,1 1,15 1,1 v 12 l 1,1 v 32 l -1,1 v 12 l -1,1 -1,16 -1,1 -3,19 -2,4 v 3 l -2,4 v 3 l -3,9 -2,3 -4,12 -7,14 -13,20 -21,23 -19,15 -15,9 -17,8 -20,7 h -3 l -9,3 h -4 l -1,1 h -4 l -1,1 h -5 l -1,1 -16,1 -1,1 h -20 l -1,1 -41,-2 -1,-1 h -7 l -1,-1 -14,-2 -2,-2 V 49 l 2,-5 z M 559,9 l -1,2 v 5 l 34,47 -1,64 -1,1 v 41 l -1,1 v 40 l -1,1 v 41 l -1,1 v 41 l -1,1 v 40 l -1,1 v 41 l -1,1 v 41 l -1,1 v 40 l -1,1 v 21 l 1,2 5,2 h 4 l 1,-1 h 21 l 1,-1 17,-1 5,-3 -2,-104 -1,-1 v -36 l -1,-1 v -36 l -1,-1 v -36 l -1,-1 v -36 l -1,-1 v -35 l -1,-1 v -36 l -1,-1 v -36 l -1,-1 v -5 l 1,-1 277,368 7,6 h 26 l 1,-1 h 11 l 6,-3 v -90 l 1,-1 1,-80 1,-1 1,-80 1,-1 v -40 l 1,-1 1,-80 1,-1 1,-80 1,-1 V 14 l -2,-4 -3,-1 -25,1 -1,1 -16,1 -1,1 h -4 l -3,2 v 39 l 1,1 1,71 1,1 2,106 1,1 v 35 l 1,1 v 35 l 1,1 v 35 l 1,1 v 31 l -1,1 L 909,362 643,8 635,1 h -20 l -1,1 h -14 l -1,1 h -10 l -1,1 -17,1 -1,1 h -5 z"
     fill="#2eade2"
     fill-rule="evenodd"
     id="path1"
     style="display:none;stroke:#000000;stroke-width:1.67279;stroke-dasharray:none;stroke-opacity:1" /></g><g
   id="logo_text-8"
   transform="matrix(0.59690809,0,0,0.59690809,7.2396058,575.37365)"
   style="fill:#2eade2;fill-opacity:1;stroke:#2eade2;stroke-width:8.69517;stroke-dasharray:none;stroke-opacity:1"><g
     id="g3"
     style="fill:#2eade2;fill-opacity:1;stroke:#2eade2;stroke-width:8.69517;stroke-dasharray:none;stroke-opacity:1"
     transform="matrix(1.0017618,0,0,1.0017618,-3.3249184,539.62633)"><path
       d="m 1743.6081,31.76916 c 8.8122,-1.671058 17.1716,-3.004618 25.0988,-4.177651 7.9397,-1.144217 14.9655,-2.012676 21.094,-2.67122 6.1246,-0.691479 11.2364,-1.189504 15.303,-1.494078 4.1036,-0.337508 6.7213,-0.465099 7.8326,-0.465099 5.2724,0 7.8449,2.617721 7.8449,7.795534 V 305.78171 c 0,3.91011 -1.9303,6.15739 -5.8528,6.82005 -2.7824,0.49803 -5.8529,0.9302 -9.195,1.36649 -3.3297,0.4157 -6.6389,0.73675 -9.8081,0.97958 -3.1694,0.25519 -6.1246,0.43218 -8.8287,0.48156 -2.7001,0.0659 -4.6757,0.11114 -5.9969,0.11114 -3.9224,0 -5.8816,-2.00857 -5.8816,-6.10801 V 66.787318 c 0,-4.597473 -0.4692,-8.264746 -1.3213,-11.108846 -0.8971,-2.942867 -2.2349,-5.099609 -3.9512,-6.770667 -1.7204,-1.654595 -3.766,-2.765887 -6.145,-3.407968 -2.3296,-0.691479 -5.0132,-0.996051 -7.9396,-0.996051 -3.585,0 -7.2029,0.255184 -10.7878,0.724394 z"
       style="clip-rule:evenodd;fill:#2eade2;fill-opacity:1;fill-rule:nonzero;stroke:#2eade2;stroke-width:5.198;stroke-linejoin:round;stroke-miterlimit:2;stroke-dasharray:none;stroke-opacity:1"
       id="path33-6"
       transform="matrix(1.6727919,0,0,1.6727919,-2919.0031,-37.710903)" /><path
       d="m 2130.1661,18.795813 c 1.7863,0 3.1691,0.547415 4.1487,1.576392 0.9797,1.045441 2.1198,2.395463 3.441,4.017133 l 169.3285,224.736872 -6.1244,-219.818364 c 0,-1.942706 1.3336,-3.004618 3.9224,-3.198062 2.9594,-0.4651 6.8983,-0.946663 11.7716,-1.444688 4.9019,-0.502137 9.6435,-0.757321 14.2286,-0.757321 2.5889,0 3.9224,1.255346 3.9224,3.696087 l -5.8856,238.916178 v 44.89223 c 0,1.92624 -1.3171,2.98815 -3.939,3.14867 -2.9265,0.32103 -6.2521,0.5968 -9.9194,0.75732 -3.6837,0.17699 -7.3962,0.22227 -11.1581,0.22227 -1.4777,0 -2.5889,-0.27165 -3.408,-0.83553 -0.8191,-0.57623 -1.6423,-1.51054 -2.4614,-2.81116 l -170.5673,-226.457337 6.1244,225.461277 c 0,1.95917 -1.3171,3.02108 -3.9389,3.1816 -2.9264,0.48156 -6.9765,0.91785 -12.1213,1.23888 -5.1449,0.32105 -9.7754,0.48157 -13.8296,0.48157 -2.6177,0 -3.9389,-1.23889 -3.9389,-3.65081 l 6.1286,-255.379829 -20.098,-27.461345 c -0.6421,-0.658544 -0.9795,-1.527004 -0.9795,-2.700036 0,-2.119695 1.4611,-3.617884 4.4205,-4.420492 2.5888,-0.481553 5.9639,-0.917838 10.0304,-1.366475 4.0707,-0.386898 8.2318,-0.757331 12.3806,-1.078367 4.1654,-0.288119 7.9602,-0.547424 11.3847,-0.724404 3.4409,-0.189333 5.8035,-0.222259 7.137,-0.222259"
       style="clip-rule:evenodd;fill:#2eade2;fill-opacity:1;fill-rule:nonzero;stroke:#2eade2;stroke-width:5.198;stroke-linejoin:round;stroke-miterlimit:2;stroke-dasharray:none;stroke-opacity:1"
       id="path34-1"
       transform="matrix(1.6727919,0,0,1.6727919,-2919.0031,-37.710903)" /><path
       d="m 2649.6556,291.05498 c 6.2398,1.46527 12.5082,2.49424 18.8755,3.05401 6.3674,0.54741 12.9733,0.86845 19.8552,0.86845 19.5835,0 37.0925,-3.00461 52.4449,-8.93975 15.34,-5.9475 28.2639,-14.53328 38.7019,-25.64212 10.4667,-11.05944 18.4228,-24.5514 23.9052,-40.40177 5.4659,-15.8874 8.1824,-33.6352 8.1824,-53.46154 0,-18.79324 -2.8111,-35.96482 -8.4211,-51.44886 -5.6595,-15.512878 -13.8624,-28.827836 -24.6337,-40.080726 -10.7878,-11.207622 -24.037,-19.838691 -39.7268,-25.979619 -15.661,-6.112124 -33.553,-9.182593 -53.6509,-9.182593 h -12.4918 c -7.3675,0 -13.0104,0.625617 -17.0275,1.831575 -4.0048,1.238894 -6.0133,4.535732 -6.0133,9.935803 z m -39.7144,19.5835 c -3.9225,0 -5.8488,-2.00857 -5.8488,-6.10802 V 62.622019 c 0,-8.29356 -1.8192,-13.841806 -5.4042,-16.508916 -3.5848,-2.720619 -8.2482,-4.070632 -13.9693,-4.070632 -3.2804,0 -6.8654,0.259305 -10.7919,0.757321 l -1.4941,-13.232641 c 18.3116,-3.169257 36.8167,-5.577062 55.5319,-7.462147 18.715,-1.909779 37.4629,-2.827627 56.2562,-2.827627 15.6774,0 31.001,0.917848 45.9335,2.683572 14.9695,1.786308 29.0048,4.807379 42.1429,9.055001 13.1503,4.276428 25.2264,9.869952 36.1582,16.912266 10.9319,7.042325 20.3696,15.77217 28.3298,26.238924 7.9273,10.466754 14.0846,22.798017 18.4887,36.9938 4.4205,14.22868 6.6059,30.61412 6.6059,49.26331 0,24.71192 -4.371,46.64149 -13.1009,65.7887 -8.7462,19.18013 -20.9334,35.43797 -36.5286,48.67062 -15.6117,13.22853 -34.1497,23.26312 -55.6307,30.11199 -21.4645,6.89828 -44.8882,10.3227 -70.2092,10.3227 -7.351,0 -13.8624,-0.24283 -19.4724,-0.74085 -5.6264,-0.48157 -11.2363,-1.01252 -16.8011,-1.59287 -5.5483,-0.57622 -11.4792,-1.0907 -17.7642,-1.6052 -6.2726,-0.48156 -13.7307,-0.74086 -22.4317,-0.74086"
       style="clip-rule:evenodd;fill:#2eade2;fill-opacity:1;fill-rule:nonzero;stroke:#2eade2;stroke-width:5.198;stroke-linejoin:round;stroke-miterlimit:2;stroke-dasharray:none;stroke-opacity:1"
       id="path35-4"
       transform="matrix(1.6727919,0,0,1.6727919,-2919.0031,-37.710903)" /><path
       d="m 3156.6368,219.26941 c -0.1605,12.24894 1.3831,22.58811 4.6469,30.98045 3.2927,8.39233 7.8285,15.17947 13.7307,20.35317 5.8816,5.14489 12.714,8.79569 20.5795,10.99771 7.8285,2.23494 16.3484,3.32977 25.4652,3.32977 11.8003,0 23.3454,-1.91389 34.6806,-5.62645 11.3805,-3.74548 22.6993,-8.40881 33.9727,-13.97351 V 31.513976 c 0,-3.733134 1.9591,-6.062735 5.8816,-6.865343 2.6219,-0.485674 5.5976,-0.917848 8.9233,-1.205959 3.3628,-0.321044 6.672,-0.629739 9.9523,-0.835533 3.264,-0.259295 6.2397,-0.436286 8.9398,-0.646192 2.6877,-0.176991 4.6962,-0.222258 6.0133,-0.222258 3.906,0 5.8858,1.992094 5.8858,6.124465 V 302.10209 c 0,3.92245 -1.9798,6.17386 -5.8858,6.8324 -2.7988,0.48157 -5.754,0.93431 -8.9562,1.36648 -3.1981,0.43217 -6.2851,0.74087 -9.3226,0.96312 -3.0087,0.25931 -5.7581,0.45275 -8.1988,0.49803 -2.4614,0.0658 -4.3424,0.11525 -5.6306,0.11525 -3.762,0 -5.7376,-2.00857 -5.8817,-6.11213 l -1.7204,-20.09387 c -15.34,8.53639 -31.4991,15.54579 -48.3949,21.18871 -16.9122,5.62644 -34.0384,8.45818 -51.3706,8.45818 -10.7713,0 -20.9624,-1.49819 -30.61,-4.42048 -9.6643,-2.92642 -18.0401,-7.41275 -25.1442,-13.4755 -7.0916,-6.06272 -12.7181,-13.78005 -16.9164,-23.15198 -4.1487,-9.37192 -6.2355,-20.48076 -6.2355,-33.19892 V 63.120046 c 0,-4.597474 -0.4528,-8.260635 -1.3542,-11.108846 -0.8807,-2.942877 -2.202,-5.111961 -3.9224,-6.766557 -1.704,-1.658705 -3.7619,-2.765886 -6.108,-3.42443 -2.3626,-0.679128 -5.0338,-0.983709 -7.9766,-0.983709 -3.2763,0 -6.8489,0.242841 -10.7714,0.707942 l -1.4777,-13.438448 c 8.8411,-1.675169 17.1881,-3.025191 25.1277,-4.181761 7.9273,-1.140106 14.9367,-2.025029 21.0653,-2.67123 6.1408,-0.703811 11.2528,-1.205958 15.3359,-1.494068 4.05,-0.337508 6.6883,-0.481562 7.8449,-0.481562 5.2107,0 7.8325,2.621831 7.8325,7.811997 z"
       style="clip-rule:evenodd;fill:#2eade2;fill-opacity:1;fill-rule:nonzero;stroke:#2eade2;stroke-width:5.198;stroke-linejoin:round;stroke-miterlimit:2;stroke-dasharray:none;stroke-opacity:1"
       id="path36-2"
       transform="matrix(1.6727919,0,0,1.6727919,-2919.0031,-37.710903)" /><path
       d="m 3706.0942,95.001872 c -1.6258,-9.017955 -4.2764,-16.751748 -7.9766,-23.151991 -3.6467,-6.429049 -8.2153,-11.845583 -13.5702,-16.093205 -5.4,-4.210576 -11.4792,-7.396285 -18.2787,-9.437777 -6.7707,-1.992104 -14.0682,-3.037544 -21.9295,-3.037544 -7.6844,0 -15.0313,0.917848 -22.0448,2.831748 -7.0424,1.909779 -13.2286,4.819731 -18.6163,8.935641 -5.4165,4.087094 -9.697,9.293722 -12.9116,15.644567 -3.1486,6.400243 -4.7416,13.989983 -4.7416,22.814494 0,7.861385 1.8646,14.566195 5.61,20.225575 3.7785,5.62644 8.8122,10.54907 15.0973,14.72672 6.2561,4.14883 13.4877,7.91077 21.6908,11.11296 8.1495,3.2639 16.6569,6.58957 25.4815,9.80409 9.7918,3.76194 19.6164,7.81611 29.4082,12.12547 9.8041,4.37109 18.5833,9.63122 26.3501,15.81744 7.7337,6.20679 14.0517,13.74713 18.859,22.57576 4.8075,8.7957 7.2194,19.66171 7.2194,32.55684 0,11.3023 -1.5929,21.27102 -4.7581,29.9062 -3.1857,8.66398 -7.6226,16.23727 -13.2325,22.71571 -5.6431,6.41669 -12.2366,11.88263 -19.7441,16.23726 -7.4909,4.45341 -15.5952,8.00956 -24.2798,10.66021 -8.6804,2.73296 -17.6654,4.6304 -27.058,5.80343 -9.4213,1.14422 -18.6656,1.69163 -27.7989,1.69163 -10.9482,0 -21.8636,-0.675 -32.7337,-1.96329 -10.866,-1.25535 -21.6867,-3.15279 -32.4745,-5.60997 -1.4653,-0.30459 -2.6712,-1.04545 -3.5563,-2.09089 -0.8849,-1.02897 -1.4445,-2.16909 -1.5886,-3.32977 -0.3376,-3.40798 -0.6463,-8.42527 -1.0003,-15.06423 -0.3045,-6.60603 -0.5926,-13.34378 -0.819,-20.19265 -0.2881,-6.89827 -0.4815,-13.08859 -0.6256,-18.62038 -0.1605,-5.60998 -0.2428,-8.84096 -0.2428,-9.83702 l 12.2365,-1.20597 c 1.1731,9.80822 3.7126,18.29523 7.7339,25.4816 3.9882,7.15757 9.0674,13.10506 15.1918,17.76839 6.1286,4.66331 13.1379,8.08776 21.0775,10.27331 7.9273,2.23493 16.4349,3.30918 25.5969,3.30918 8.1659,0 16.0932,-0.89726 23.7776,-2.77823 7.6721,-1.9139 14.488,-4.9391 20.4519,-9.10028 5.997,-4.1653 10.755,-9.47071 14.344,-16.04793 3.6015,-6.55664 5.3836,-14.45097 5.3836,-23.77761 0,-7.65147 -1.8481,-14.2287 -5.6264,-19.5835 -3.762,-5.40007 -8.7958,-10.19099 -15.0643,-14.33982 -6.2726,-4.1653 -13.4755,-7.92725 -21.5755,-11.14177 -8.0713,-3.28038 -16.4349,-6.64308 -25.1154,-10.07986 -9.7916,-3.91011 -19.6163,-8.13715 -29.4205,-12.59057 -9.7753,-4.50281 -18.571,-9.9358 -26.3212,-16.30312 -7.7667,-6.41669 -14.0847,-14.11757 -18.8756,-23.18492 -4.8073,-9.05088 -7.2358,-20.20911 -7.2358,-33.45821 0,-15.965615 3.1858,-29.404061 9.4378,-40.175398 6.2728,-10.775448 14.5498,-19.422979 24.7613,-25.967268 10.1911,-6.560761 21.8021,-11.207622 34.7919,-13.973518 12.9897,-2.77824 26.2553,-4.177641 39.8254,-4.177641 8.9728,0 18.7604,0.658544 29.4041,2.107344 10.6274,1.39529 20.5796,3.230986 29.9063,5.494737 1.4776,0.325156 2.6547,1.04544 3.5684,2.074417 0.852,1.061904 1.4159,2.173205 1.5765,3.296849 0.3374,3.457356 0.642,8.248281 0.9795,14.343943 0.354,6.140928 0.6462,12.347729 0.9837,18.649185 0.3375,6.31792 0.5598,11.94437 0.7368,17.011054 0.1276,5.095488 0.2428,8.083643 0.2428,9.083805 z"
       style="clip-rule:evenodd;fill:#2eade2;fill-opacity:1;fill-rule:nonzero;stroke:#2eade2;stroke-width:5.198;stroke-linejoin:round;stroke-miterlimit:2;stroke-dasharray:none;stroke-opacity:1"
       id="path37-3"
       transform="matrix(1.6727919,0,0,1.6727919,-2919.0031,-37.710903)" /></g><g
     id="g4"
     transform="matrix(1.0034869,0,0,1.0034869,-9.934512,581.48347)"><path
       d="m 2546.5645,369.56183 c -0.6915,-3.66315 -1.8318,-6.78301 -3.4245,-9.40485 -1.5764,-2.60537 -3.5191,-4.79092 -5.8199,-6.51137 -2.3173,-1.70398 -4.9185,-3.00461 -7.845,-3.82368 -2.8934,-0.82318 -6.0298,-1.25534 -9.4048,-1.25534 -3.2804,0 -6.4331,0.37042 -9.4378,1.15656 -3.0252,0.77379 -5.6758,1.94683 -7.9932,3.61789 -2.313,1.65459 -4.1488,3.7784 -5.5151,6.3673 -1.3666,2.58891 -2.0417,5.67584 -2.0417,9.24434 0,3.19806 0.8068,5.91868 2.412,8.21535 1.6093,2.28433 3.762,4.27644 6.4619,5.96395 2.6878,1.68754 5.7911,3.21865 9.2938,4.50281 3.5068,1.33356 7.1411,2.68357 10.936,3.97186 4.1941,1.54346 8.4046,3.18159 12.6029,4.93497 4.1982,1.76984 7.9767,3.906 11.2859,6.41671 3.3297,2.52305 6.0463,5.57706 8.1042,9.162 2.058,3.5685 3.1033,7.96017 3.1033,13.19972 0,4.6016 -0.7079,8.63519 -2.0414,12.14194 -1.383,3.50264 -3.2805,6.5731 -5.6759,9.19495 -2.4284,2.62182 -5.2437,4.8403 -8.4747,6.60603 -3.2145,1.81923 -6.6883,3.24745 -10.4008,4.30936 -3.7291,1.12776 -7.5898,1.89742 -11.5904,2.36253 -4.0542,0.4692 -8.0261,0.69147 -11.9321,0.69147 -4.6961,0 -9.3719,-0.27165 -14.0352,-0.81906 -4.6634,-0.49803 -9.2938,-1.2677 -13.9242,-2.25142 -0.642,-0.12759 -1.14,-0.43215 -1.5269,-0.85198 -0.3705,-0.41571 -0.6092,-0.88492 -0.675,-1.35002 -0.1606,-1.38294 -0.2716,-3.42443 -0.4486,-6.108 -0.1153,-2.6877 -0.243,-5.42066 -0.3376,-8.1989 -0.1152,-2.79882 -0.2099,-5.3054 -0.2922,-7.55681 -0.045,-2.26786 -0.077,-3.56849 -0.077,-3.98832 l 5.2395,-0.49803 c 0.5145,3.98832 1.5929,7.42922 3.3298,10.35152 1.704,2.89759 3.8731,5.30953 6.5113,7.20284 2.6055,1.89744 5.6101,3.28037 9.0345,4.1653 3.375,0.91785 7.0423,1.35002 10.9648,1.35002 3.5068,0 6.8983,-0.37043 10.2116,-1.14011 3.2762,-0.77379 6.2027,-1.9921 8.7627,-3.68374 2.5725,-1.68752 4.614,-3.84014 6.141,-6.51136 1.5434,-2.66712 2.3131,-5.86517 2.3131,-9.64357 0,-3.10341 -0.7861,-5.77464 -2.4283,-7.94371 -1.6053,-2.18555 -3.762,-4.13238 -6.4455,-5.81989 -2.6837,-1.68753 -5.7871,-3.21454 -9.2444,-4.51928 -3.4738,-1.33356 -7.0589,-2.68357 -10.7714,-4.08298 -4.2147,-1.59285 -8.4087,-3.29684 -12.6235,-5.11196 -4.1941,-1.81924 -7.956,-4.03771 -11.2859,-6.61015 -3.3297,-2.61772 -6.0461,-5.73758 -8.0877,-9.40486 -2.058,-3.67962 -3.1033,-8.19889 -3.1033,-13.5866 0,-6.46199 1.3665,-11.92791 4.0541,-16.28666 2.6836,-4.38756 6.2356,-7.89432 10.6109,-10.54496 4.371,-2.65476 9.3389,-4.5522 14.9201,-5.65937 5.5771,-1.12365 11.2529,-1.70399 17.0728,-1.70399 3.8607,0 8.0548,0.27164 12.6071,0.85199 4.5645,0.56388 8.8245,1.31709 12.8127,2.23494 0.6586,0.12759 1.1567,0.4157 1.5271,0.85199 0.3869,0.41571 0.6133,0.86846 0.6914,1.33355 0.1277,1.39942 0.2593,3.32977 0.4199,5.8199 0.1605,2.47778 0.2715,5.00083 0.4157,7.55681 0.144,2.55599 0.2592,4.84031 0.321,6.91472 0.066,2.05796 0.099,3.26393 0.099,3.67963 z"
       style="clip-rule:evenodd;fill:#0a7ea8;fill-opacity:1;fill-rule:nonzero;stroke:#0a7ea8;stroke-width:5.198;stroke-linejoin:round;stroke-miterlimit:2;stroke-dasharray:none;stroke-opacity:1"
       id="path38-2"
       transform="matrix(1.6727919,0,0,1.6727919,-2919.0031,-37.710903)" /><path
       d="m 1791.6655,455.91772 c 0,1.62167 -0.8191,2.58892 -2.4449,2.8441 -1.1566,0.24284 -2.4448,0.40336 -3.8278,0.56388 -1.3953,0.17698 -2.7494,0.33751 -4.0665,0.43629 -1.3335,0.0947 -2.556,0.16052 -3.6796,0.17287 -1.1279,0.0165 -1.9469,0.0658 -2.5107,0.0658 -1.6217,0 -2.4283,-0.83553 -2.4283,-2.52305 v -99.31274 c 0,-3.45737 -0.7862,-5.74169 -2.3462,-6.86534 -1.5765,-1.12363 -16.6572,-1.68751 -18.9537,-1.68751 -1.4324,0 -2.8976,0.11112 -4.3753,0.28811 l -0.6091,-5.59353 c 1.4118,-0.27576 3.4697,-0.59681 6.1904,-1.01251 2.7328,-0.40336 18.7109,-0.82317 21.6537,-1.23888 2.9758,-0.38691 5.8199,-0.74088 8.5693,-0.99606 2.7495,-0.27577 4.9061,-0.40336 6.4949,-0.40336 h 36.2735 c 2.3009,0 4.7252,-0.0495 7.2358,-0.0658 2.5231,-0.0288 5.289,-0.0782 8.3595,-0.16051 1.0619,0 1.6875,0.51448 1.8315,1.52699 0.144,0.91785 0.2593,2.14028 0.354,3.66727 0.099,1.59287 0.2099,3.28038 0.3046,5.09551 0.1316,1.85216 0.1935,3.71665 0.2758,5.65937 0.049,1.97975 0.111,3.74548 0.1275,5.35479 0.066,1.64225 0.066,3.03755 0.1111,4.18176 0.049,1.14011 0.049,1.88099 0.049,2.15263 l -5.0955,0.48156 c -1.1731,-4.80738 -2.3296,-8.51993 -3.5232,-11.18703 -1.173,-2.65478 -2.7,-4.58513 -4.5316,-5.8199 -1.8192,-1.20596 -4.1654,-1.94683 -6.9641,-2.1732 -2.8112,-0.23873 -6.4949,-0.37044 -10.9648,-0.37044 h -17.1386 c -1.1566,0 -2.0251,0.0165 -2.5889,0.0988 -0.5599,0.0617 -1.0125,0.23872 -1.2842,0.51449 -0.2428,0.28811 -0.4198,0.65854 -0.4363,1.17303 -0.062,0.51448 -0.062,1.18949 -0.062,2.07442 v 45.57957 c 5.5607,-0.27164 10.6273,-0.53095 15.1918,-0.75732 4.5359,-0.23872 8.4748,-0.41571 11.7551,-0.60916 3.3092,-0.17698 5.964,-0.32103 7.9725,-0.43217 1.9798,-0.0823 3.231,-0.11525 3.7167,-0.11525 1.881,0 2.8441,0.99606 2.8441,3.05401 0,1.27182 -0.066,2.58891 -0.2099,3.9554 -0.1111,1.36646 -0.3046,2.81527 -0.4981,4.39167 l -40.7722,-1.4488 z"
       style="clip-rule:evenodd;fill:#0a7ea8;fill-opacity:1;fill-rule:nonzero;stroke:#0a7ea8;stroke-width:5.198;stroke-linejoin:round;stroke-miterlimit:2;stroke-dasharray:none;stroke-opacity:1"
       id="path39-2"
       transform="matrix(1.6727919,0,0,1.6727919,-2919.0031,-37.710903)" /><path
       d="m 1961.5084,346.04353 c -6.6883,0 -12.393,1.35001 -17.1386,4.11591 -4.758,2.68357 -8.6639,6.30145 -11.6727,10.89893 -3.021,4.53573 -5.2396,9.75882 -6.6719,15.67749 -1.4118,5.88164 -2.169,12.03903 -2.169,18.43928 0,7.12464 0.8026,14.15049 2.3295,21.09403 1.5147,6.93119 3.9554,13.12152 7.2851,18.55452 3.3134,5.433 7.635,9.85348 12.9446,13.19973 5.3054,3.37505 11.6686,5.05021 19.1308,5.05021 6.6882,0 12.4135,-1.39941 17.1551,-4.23114 4.7415,-2.82764 8.6351,-6.57312 11.6728,-11.21998 3.0209,-4.64686 5.2559,-9.9852 6.6717,-15.99854 1.4324,-6.01335 2.1239,-12.18721 2.1239,-18.62037 0,-7.10406 -0.7408,-14.09698 -2.2844,-20.91705 -1.527,-6.83242 -3.9554,-12.90749 -7.2851,-18.26229 -3.3256,-5.32187 -7.6514,-9.61477 -12.9568,-12.89515 -5.2726,-3.28038 -11.6728,-4.88558 -19.135,-4.88558 m 5.0668,-8.56932 c 8.7956,0 16.7064,1.36647 23.7611,4.08297 7.0753,2.73297 13.1216,6.68836 18.1059,11.76739 4.9844,5.14489 8.8409,11.44635 11.5574,18.90849 2.7331,7.45804 4.0871,15.91622 4.0871,25.41986 0,10.30624 -1.527,19.43532 -4.5522,27.3955 -3.0046,7.97251 -7.3139,14.61559 -12.8951,20.03212 -5.5606,5.38773 -12.2653,9.50363 -20.1103,12.3148 -7.8655,2.83175 -16.6119,4.24762 -26.2554,4.24762 -8.7628,0 -16.7229,-1.41587 -23.7982,-4.24762 -7.1206,-2.81117 -13.1504,-6.84887 -18.1511,-12.07196 -4.9844,-5.21074 -8.8245,-11.61099 -11.5123,-19.15133 -2.6836,-7.56916 -4.0171,-16.10967 -4.0171,-25.59273 0,-10.2733 1.5105,-19.3283 4.5193,-27.23908 3.0375,-7.84493 7.3139,-14.45096 12.9075,-19.75637 5.5647,-5.3054 12.2531,-9.29372 20.1145,-12.02669 7.8613,-2.7165 16.6241,-4.08297 26.2389,-4.08297"
       style="clip-rule:evenodd;fill:#0a7ea8;fill-opacity:1;fill-rule:nonzero;stroke:#0a7ea8;stroke-width:5.198;stroke-linejoin:round;stroke-miterlimit:2;stroke-dasharray:none;stroke-opacity:1"
       id="path40-1"
       transform="matrix(1.6727919,0,0,1.6727919,-2919.0031,-37.710903)" /><path
       d="m 2154.9561,346.04353 c -6.6718,0 -12.3765,1.35001 -17.1386,4.11591 -4.7415,2.68357 -8.6475,6.30145 -11.6562,10.89893 -3.0211,4.53573 -5.256,9.75882 -6.6884,15.67749 -1.4282,5.88164 -2.1197,12.03903 -2.1197,18.43928 0,7.12464 0.7533,14.15049 2.2967,21.09403 1.4982,6.93119 3.9389,13.12152 7.2688,18.55452 3.3297,5.433 7.6515,9.85348 12.9444,13.19973 5.3055,3.37505 11.6851,5.05021 19.1802,5.05021 6.6554,0 12.3641,-1.39941 17.1222,-4.23114 4.7415,-2.82764 8.631,-6.57312 11.6397,-11.21998 3.0541,-4.64686 5.2726,-9.9852 6.6884,-15.99854 1.4489,-6.01335 2.1526,-12.18721 2.1526,-18.62037 0,-7.10406 -0.7696,-14.09698 -2.2965,-20.91705 -1.5271,-6.83242 -3.9555,-12.90749 -7.3017,-18.26229 -3.3092,-5.32187 -7.6351,-9.61477 -12.9405,-12.89515 -5.3054,-3.28038 -11.6727,-4.88558 -19.1514,-4.88558 m 5.0832,-8.56932 c 8.7628,0 16.69,1.36647 23.7611,4.08297 7.0753,2.73297 13.0887,6.68836 18.0896,11.76739 5.0007,5.14489 8.8574,11.44635 11.5738,18.90849 2.7166,7.45804 4.0872,15.91622 4.0872,25.41986 0,10.30624 -1.5312,19.43532 -4.5687,27.3955 -3.0047,7.97251 -7.2976,14.61559 -12.8787,20.03212 -5.5606,5.38773 -12.2984,9.50363 -20.1103,12.3148 -7.8656,2.83175 -16.6119,4.24762 -26.2719,4.24762 -8.7627,0 -16.69,-1.41587 -23.7982,-4.24762 -7.0876,-2.81117 -13.1502,-6.84887 -18.1182,-12.07196 -5.0008,-5.21074 -8.841,-11.61099 -11.5287,-19.15133 -2.7,-7.56916 -4.0335,-16.10967 -4.0335,-25.59273 0,-10.2733 1.5105,-19.3283 4.5315,-27.23908 3.0253,-7.84493 7.3346,-14.45096 12.8952,-19.75637 5.5648,-5.3054 12.286,-9.29372 20.1309,-12.02669 7.8614,-2.7165 16.6077,-4.08297 26.2389,-4.08297"
       style="clip-rule:evenodd;fill:#0a7ea8;fill-opacity:1;fill-rule:nonzero;stroke:#0a7ea8;stroke-width:5.198;stroke-linejoin:round;stroke-miterlimit:2;stroke-dasharray:none;stroke-opacity:1"
       id="path41-6"
       transform="matrix(1.6727919,0,0,1.6727919,-2919.0031,-37.710903)" /><path
       d="m 2311.3772,450.53 c 2.5725,0.61327 5.1944,1.02899 7.8325,1.27183 2.6507,0.22636 5.4167,0.33749 8.2648,0.33749 8.166,0 15.4347,-1.23888 21.8309,-3.71255 6.3508,-2.46131 11.7384,-6.02981 16.0931,-10.6602 4.3423,-4.61393 7.6391,-10.19511 9.9358,-16.80114 2.2678,-6.61015 3.4122,-14.00645 3.4122,-22.23827 0,-7.81198 -1.1772,-14.94898 -3.5233,-21.39861 -2.3461,-6.41259 -5.7375,-11.97729 -10.2569,-16.65708 -4.4698,-4.66332 -9.9523,-8.24828 -16.4965,-10.80426 -6.5114,-2.53952 -13.9694,-3.82368 -22.3329,-3.82368 h -5.1902 c -3.0581,0 -5.4041,0.27165 -7.0752,0.78613 -1.6712,0.49803 -2.4943,1.86452 -2.4943,4.08299 z m -16.5088,8.12069 c -1.6424,0 -2.4614,-0.8026 -2.4614,-2.52305 V 355.51012 c 0,-3.45324 -0.7573,-5.75404 -2.2514,-6.87768 -1.4612,-1.1113 -3.3915,-1.67519 -5.8034,-1.67519 -1.3665,0 -2.8442,0.11526 -4.4863,0.29224 l -0.5928,-5.48238 c 7.5857,-1.30476 15.2866,-2.31727 23.0861,-3.08693 7.7668,-0.83965 15.5622,-1.20597 23.3948,-1.20597 6.5115,0 12.8747,0.36632 19.0978,1.12363 6.2233,0.75734 12.0597,2.00857 17.5257,3.76194 5.4658,1.75338 10.4831,4.13239 15.0313,7.05879 4.5686,2.89349 8.4911,6.5443 11.7879,10.89893 3.2928,4.35876 5.8528,9.47072 7.6844,15.40585 1.848,5.89809 2.7659,12.73051 2.7659,20.44784 0,10.28978 -1.8357,19.4065 -5.4659,27.38315 -3.6179,7.98898 -8.6845,14.74318 -15.196,20.2585 -6.4785,5.48239 -14.1957,9.66005 -23.1354,12.53706 -8.9399,2.84821 -18.6493,4.24762 -29.1984,4.24762 -3.0539,0 -5.754,-0.0823 -8.1,-0.29223 -2.3502,-0.20579 -4.6798,-0.41571 -6.9971,-0.64208 -2.2638,-0.25519 -4.7415,-0.4651 -7.3798,-0.65855 -2.5889,-0.24284 -5.7211,-0.35397 -9.306,-0.35397"
       style="clip-rule:evenodd;fill:#0a7ea8;fill-opacity:1;fill-rule:nonzero;stroke:#0a7ea8;stroke-width:5.198;stroke-linejoin:round;stroke-miterlimit:2;stroke-dasharray:none;stroke-opacity:1"
       id="path42"
       transform="matrix(1.6727919,0,0,1.6727919,-2919.0031,-37.710903)" /><path
       d="m 2770.6716,447.0603 c 0,1.60519 0.082,2.90994 0.144,3.82368 0.1152,0.90137 0.3705,1.62578 0.8231,2.1238 0.4487,0.51449 1.1731,0.852 2.1857,0.94666 1.0454,0.14817 2.4612,0.22637 4.2929,0.22637 h 10.0797 c 5.4331,0 9.903,-0.14405 13.311,-0.40336 3.412,-0.28811 6.322,-1.12363 8.7174,-2.53951 2.379,-1.44468 4.4987,-3.60142 6.318,-6.52783 1.8315,-2.94288 3.873,-7.02586 6.0916,-12.33127 l 5.1283,1.1113 c 0,0.48156 -0.1934,1.72045 -0.5309,3.76193 -0.3376,2.05796 -0.7532,4.40404 -1.2677,7.02586 -0.5145,2.66712 -1.0784,5.38362 -1.6876,8.18244 -0.5968,2.74943 -1.2059,5.19428 -1.8356,7.20284 -0.8686,2.34606 -2.5395,3.49029 -4.9968,3.49029 -5.0666,-0.0823 -11.4174,-0.0988 -18.9743,-0.19346 -7.6061,-0.0823 -16.7189,-0.11112 -27.3955,-0.11112 h -16.9122 c -0.9509,0 -1.5929,-0.29224 -1.9305,-0.86846 -0.3539,-0.5968 -0.498,-1.16068 -0.498,-1.69163 V 360.7044 c 0,-1.89744 -0.1934,-3.44091 -0.5803,-4.6304 -0.354,-1.18949 -0.9179,-2.1238 -1.6382,-2.79882 -0.7079,-0.70381 -1.5598,-1.14011 -2.5435,-1.39529 -0.9796,-0.32516 -2.0869,-0.45276 -3.3092,-0.45276 -1.4818,0 -2.9923,0.11526 -4.4699,0.32105 l -0.6298,-5.60998 c 3.6674,-0.70794 7.1411,-1.23889 10.4379,-1.72046 3.3257,-0.49801 6.2193,-0.83553 8.7751,-1.12363 2.5726,-0.27577 4.6799,-0.49803 6.3839,-0.61328 1.704,-0.12759 2.7823,-0.2099 3.2474,-0.2099 2.1732,0 3.264,1.11128 3.264,3.24745 z"
       style="clip-rule:evenodd;fill:#0a7ea8;fill-opacity:1;fill-rule:nonzero;stroke:#0a7ea8;stroke-width:5.198;stroke-linejoin:round;stroke-miterlimit:2;stroke-dasharray:none;stroke-opacity:1"
       id="path43"
       transform="matrix(1.6727919,0,0,1.6727919,-2919.0031,-37.710903)" /><path
       d="m 2884.9538,346.1382 c 3.6632,-0.70794 7.1535,-1.23889 10.4668,-1.73693 3.2804,-0.48154 6.1904,-0.81906 8.7463,-1.10716 2.5395,-0.29223 4.6798,-0.49803 6.3674,-0.61328 1.704,-0.12759 2.7946,-0.2099 3.2639,-0.2099 2.1691,0 3.264,1.11128 3.264,3.2639 v 114.377 c 0,1.59288 -0.8233,2.56011 -2.445,2.84821 -1.1729,0.19346 -2.4283,0.37045 -3.8278,0.54742 -1.3994,0.19346 -2.7658,0.30458 -4.083,0.41571 -1.3335,0.0988 -2.5395,0.16052 -3.6836,0.17699 -1.1073,0.0658 -1.9263,0.0658 -2.4902,0.0658 -1.6257,0 -2.4448,-0.83552 -2.4448,-2.52305 V 360.7044 c 0,-1.89744 -0.1935,-3.44091 -0.5475,-4.61394 -0.3827,-1.20595 -0.9302,-2.14026 -1.6217,-2.82762 -0.7243,-0.69147 -1.5763,-1.12777 -2.5559,-1.38295 -0.996,-0.3375 -2.0909,-0.45276 -3.3133,-0.45276 -1.4776,0 -2.9882,0.11526 -4.4699,0.30458 z"
       style="clip-rule:evenodd;fill:#0a7ea8;fill-opacity:1;fill-rule:nonzero;stroke:#0a7ea8;stroke-width:5.198;stroke-linejoin:round;stroke-miterlimit:2;stroke-dasharray:none;stroke-opacity:1"
       id="path44"
       transform="matrix(1.6727919,0,0,1.6727919,-2919.0031,-37.710903)" /><path
       d="m 3102.7596,369.69354 -38.0104,92.71909 c -0.2716,0.75734 -0.8973,1.23889 -1.8481,1.36649 -1.2059,0.11113 -2.5889,0.20991 -4.1159,0.30457 -1.527,0.0823 -3.0541,0.0823 -4.6468,0.0823 -1.0579,0 -1.8317,-0.48156 -2.235,-1.51053 l -35.6603,-94.20082 -11.7179,93.87977 c -0.1606,0.81907 -0.7574,1.25124 -1.8523,1.35002 -1.2059,0.11113 -2.7493,0.23872 -4.548,0.33751 -1.7863,0.0782 -3.6838,0.14405 -5.6429,0.14405 -0.9672,0 -1.4323,-0.37043 -1.4323,-1.11129 0,-0.49803 0.049,-0.81906 0.1152,-1.01252 l 19.8881,-108.25253 -3.2804,-9.0015 c -0.1441,-0.3869 -0.2099,-0.72439 -0.2099,-0.99605 0,-1.11129 0.675,-1.75337 2.0414,-1.93035 1.0784,-0.19345 2.3462,-0.3869 3.8114,-0.58035 1.4611,-0.17698 2.9265,-0.30457 4.2764,-0.44862 1.3995,-0.11113 2.6671,-0.22639 3.8402,-0.28813 1.1443,-0.0823 1.9962,-0.11523 2.5437,-0.11523 0.7532,0 1.3335,0.2099 1.7369,0.59679 0.3992,0.41572 0.7696,1.01252 1.1236,1.75338 l 36.4957,96.1106 37.3972,-85.61503 -1.029,-8.48701 c -0.066,-0.0823 -0.079,-0.32103 -0.079,-0.77378 0,-1.14011 0.6421,-1.88097 1.9263,-2.15262 1.0784,-0.19345 2.3502,-0.3869 3.762,-0.58035 1.4158,-0.17698 2.8152,-0.30457 4.1816,-0.44862 1.3666,-0.11113 2.6054,-0.22639 3.7126,-0.28813 1.1278,-0.0823 1.9469,-0.11523 2.5107,-0.11523 1.6875,0 2.6507,0.80671 2.8606,2.35017 l 13.8419,116.80539 c 0.066,0.27165 0.1151,0.46511 0.1151,0.67501 v 0.43218 c 0,1.31708 -0.6462,2.05795 -1.9468,2.26785 -1.1566,0.19346 -2.4901,0.37045 -3.9719,0.54742 -1.494,0.19346 -2.9758,0.30458 -4.3711,0.41571 -1.4323,0.0988 -2.7329,0.16052 -3.9224,0.17699 -1.206,0.0658 -2.0579,0.0658 -2.6054,0.0658 -0.6132,0 -1.1278,-0.0988 -1.527,-0.35396 -0.4198,-0.22638 -0.6461,-0.64208 -0.7079,-1.15657 z"
       style="clip-rule:evenodd;fill:#0a7ea8;fill-opacity:1;fill-rule:nonzero;stroke:#0a7ea8;stroke-width:5.198;stroke-linejoin:round;stroke-miterlimit:2;stroke-dasharray:none;stroke-opacity:1"
       id="path45"
       transform="matrix(1.6727919,0,0,1.6727919,-2919.0031,-37.710903)" /><path
       d="m 3198.1787,346.1382 c 3.6673,-0.70794 7.1247,-1.23889 10.4503,-1.73693 3.2804,-0.48154 6.2068,-0.81906 8.7628,-1.10716 2.5437,-0.29223 4.6468,-0.49803 6.3508,-0.61328 1.7204,-0.12759 2.7823,-0.2099 3.264,-0.2099 2.1896,0 3.2803,1.11128 3.2803,3.2639 v 114.377 c 0,1.59288 -0.8191,2.56011 -2.4572,2.84821 -1.1607,0.19346 -2.4284,0.37045 -3.8278,0.54742 -1.3829,0.19346 -2.7329,0.30458 -4.0664,0.41571 -1.3378,0.0988 -2.5437,0.16052 -3.6674,0.17699 -1.1236,0.0658 -1.9633,0.0658 -2.523,0.0658 -1.6094,0 -2.4284,-0.83552 -2.4284,-2.52305 V 360.7044 c 0,-1.89744 -0.1934,-3.44091 -0.5639,-4.61394 -0.3869,-1.20595 -0.9178,-2.14026 -1.6217,-2.82762 -0.7079,-0.69147 -1.5764,-1.12777 -2.5723,-1.38295 -0.9674,-0.3375 -2.0745,-0.45276 -3.297,-0.45276 -1.494,0 -2.9758,0.11526 -4.4863,0.30458 z"
       style="clip-rule:evenodd;fill:#0a7ea8;fill-opacity:1;fill-rule:nonzero;stroke:#0a7ea8;stroke-width:5.198;stroke-linejoin:round;stroke-miterlimit:2;stroke-dasharray:none;stroke-opacity:1"
       id="path46"
       transform="matrix(1.6727919,0,0,1.6727919,-2919.0031,-37.710903)" /><path
       d="m 3329.7602,352.9706 c -4.437,0 -8.0713,0.11525 -10.9648,0.35397 -2.8605,0.20991 -5.2724,1.01252 -7.1864,2.36253 -1.8974,1.28828 -3.4738,3.39563 -4.725,6.23972 -1.2883,2.87703 -2.4779,6.84888 -3.6179,12.02669 l -5.1285,-0.49802 c 0,-0.27577 0,-1.01252 0.061,-2.26788 0.049,-1.20596 0.1153,-2.63829 0.1934,-4.35873 0.1112,-1.72047 0.2265,-3.58497 0.3211,-5.59353 0.1276,-2.05796 0.2264,-4.03358 0.3704,-5.96395 0.1276,-1.94683 0.2594,-3.76195 0.4033,-5.42065 0.1277,-1.63814 0.2553,-2.9717 0.3994,-3.90601 0.082,-1.02897 0.675,-1.54347 1.8356,-1.54347 6.1739,0.14407 12.0885,0.24285 17.7314,0.30459 5.6264,0.0823 10.8372,0.0823 15.5952,0.0823 h 33.9398 c 4.762,0 9.9851,0 15.7104,-0.0823 5.6922,-0.0617 11.6727,-0.16052 17.8301,-0.30459 0.9631,0 1.5105,0.5145 1.6382,1.54347 0.1439,0.93431 0.2427,2.26787 0.3539,3.90601 0.099,1.6587 0.1934,3.47382 0.2922,5.42065 0.1111,1.93037 0.2058,3.90599 0.2388,5.96395 0.082,2.00856 0.144,3.87306 0.1769,5.59353 0.041,1.72044 0.066,3.15277 0.1111,4.35873 0.041,1.25536 0.041,1.99211 0.041,2.26788 l -5.0954,0.49802 c -1.1567,-5.17781 -2.3173,-9.14966 -3.5192,-12.02669 -1.1771,-2.84409 -2.6876,-4.95144 -4.5193,-6.23972 -1.8479,-1.35001 -4.1817,-2.15262 -7.0094,-2.36253 -2.7988,-0.23872 -6.4496,-0.35397 -10.9359,-0.35397 H 3361.25 v 107.14123 c 0,1.59288 -0.8068,2.56011 -2.4613,2.83176 -1.14,0.20991 -2.4119,0.3869 -3.7949,0.56387 -1.3994,0.19346 -2.7493,0.30458 -4.083,0.41571 -1.3335,0.0988 -2.5724,0.16052 -3.6673,0.17699 -1.14,0.0658 -1.9591,0.0658 -2.4901,0.0658 -1.6422,0 -2.4612,-0.83552 -2.4612,-2.52305 V 352.9706 Z"
       style="clip-rule:evenodd;fill:#0a7ea8;fill-opacity:1;fill-rule:nonzero;stroke:#0a7ea8;stroke-width:5.198;stroke-linejoin:round;stroke-miterlimit:2;stroke-dasharray:none;stroke-opacity:1"
       id="path47"
       transform="matrix(1.6727919,0,0,1.6727919,-2919.0031,-37.710903)" /><path
       d="m 3495.2979,447.0603 c 0,1.60519 0.049,2.90994 0.1441,3.82368 0.099,0.90137 0.354,1.62578 0.8026,2.1238 0.4528,0.51449 1.1772,0.852 2.2061,0.94666 1.0125,0.14817 2.4408,0.22637 4.2765,0.22637 h 13.1503 c 5.4495,0 9.8411,-0.14405 13.2491,-0.35397 3.3915,-0.23871 6.285,-1.02898 8.6641,-2.31313 2.3624,-1.35414 4.4533,-3.47383 6.2725,-6.35085 1.7987,-2.86467 3.7909,-6.98059 6.0586,-12.26952 l 5.0832,1.11128 c 0,0.48157 -0.1317,1.68753 -0.4527,3.67963 -0.2881,1.94683 -0.708,4.2435 -1.173,6.86533 -0.4652,2.63831 -1.0126,5.28894 -1.6382,7.9931 -0.5967,2.74943 -1.2059,5.11197 -1.8193,7.12053 -0.8849,2.34606 -2.5723,3.49029 -5.0007,3.49029 -2.5232,0 -5.4989,-0.0329 -8.9687,-0.0658 -3.4573,-0.0165 -7.3015,-0.0329 -11.5615,-0.0782 -4.2435,-0.0329 -8.8121,-0.0823 -13.6483,-0.0988 -4.8733,-0.0329 -9.9523,-0.0618 -15.2413,-0.0618 h -16.9493 c -0.9467,0 -1.5723,-0.29224 -1.9263,-0.86846 -0.321,-0.5968 -0.498,-1.16068 -0.498,-1.69163 v -97.95865 c 0,-3.45736 -0.7903,-5.74169 -2.3501,-6.84887 -1.56,-1.14422 -3.5027,-1.69164 -5.8199,-1.69164 -1.4159,0 -2.8935,0.0988 -4.3712,0.29223 l -0.6297,-5.6141 c 1.4488,-0.25519 3.5232,-0.62562 6.2233,-0.99605 2.733,-0.39924 5.5482,-0.8026 8.5199,-1.22242 2.9593,-0.41571 5.8076,-0.73675 8.5529,-1.01252 2.7494,-0.28811 4.9226,-0.44863 6.499,-0.44863 h 37.0884 c 2.3173,0 4.7457,0 7.2358,-0.0165 2.5108,-0.0658 5.2889,-0.0823 8.3594,-0.16052 1.0783,0 1.6917,0.53095 1.8357,1.527 0.062,0.95077 0.144,2.21847 0.2553,3.76194 0.099,1.57639 0.1769,3.28037 0.2592,5.12842 0.045,1.81923 0.1441,3.68374 0.2386,5.59763 0.1154,1.89744 0.1935,3.66316 0.2759,5.30541 0.041,1.6052 0.1111,3.00462 0.1276,4.14473 0.066,1.17715 0.066,1.88097 0.066,2.14027 l -5.0996,0.51448 c -1.1565,-4.80737 -2.3461,-8.53639 -3.519,-11.19114 -1.1731,-2.66712 -2.7001,-4.59748 -4.5358,-5.83637 -1.8152,-1.22242 -4.1612,-1.94271 -6.9764,-2.18555 -2.8153,-0.24284 -6.4785,-0.33751 -10.9648,-0.33751 h -17.929 c -1.173,0 -2.0415,0.0165 -2.6011,0.0947 -0.564,0.0823 -1.0126,0.24284 -1.2883,0.51449 -0.2553,0.24284 -0.4034,0.67501 -0.4323,1.16068 -0.049,0.53095 -0.049,1.20597 -0.049,2.08678 v 41.2908 c 5.5482,-0.29224 10.6767,-0.54742 15.3236,-0.77379 4.6427,-0.22227 8.697,-0.39924 12.1213,-0.60916 3.4409,-0.17699 6.2233,-0.27576 8.3101,-0.41983 2.1073,-0.0947 3.3956,-0.12759 3.8772,-0.12759 1.8974,0 2.8606,1.01252 2.8606,3.05401 0,1.28828 -0.079,2.62183 -0.2265,3.97185 -0.144,1.35001 -0.2881,2.84409 -0.498,4.38756 l -41.7683,-1.44467 z"
       style="clip-rule:evenodd;fill:#0a7ea8;fill-opacity:1;fill-rule:nonzero;stroke:#0a7ea8;stroke-width:5.198;stroke-linejoin:round;stroke-miterlimit:2;stroke-dasharray:none;stroke-opacity:1"
       id="path48"
       transform="matrix(1.6727919,0,0,1.6727919,-2919.0031,-37.710903)" /><path
       d="m 3647.2655,454.6953 c 2.589,0.60916 5.1779,1.02898 7.8286,1.27182 2.6547,0.23872 5.4205,0.36631 8.2647,0.36631 8.1495,0 15.4347,-1.28415 21.8184,-3.72901 6.3674,-2.4572 11.7345,-6.04627 16.1097,-10.6602 4.3381,-4.59747 7.6515,-10.20746 9.9358,-16.78468 2.2678,-6.6225 3.3914,-14.00232 3.3914,-22.26707 0,-7.79553 -1.1565,-14.93663 -3.5025,-21.38216 -2.3502,-6.44961 -5.7582,-11.99375 -10.261,-16.67354 -4.4698,-4.64686 -9.9811,-8.24828 -16.4925,-10.80426 -6.5279,-2.53952 -13.9571,-3.81133 -22.3328,-3.81133 h -5.2109 c -3.0539,0 -5.3999,0.25929 -7.0752,0.75732 -1.6546,0.51449 -2.4737,1.91391 -2.4737,4.13237 z m -16.5294,8.15362 c -1.6382,0 -2.4572,-0.83965 -2.4572,-2.56009 V 359.67542 c 0,-3.4409 -0.7244,-5.75404 -2.235,-6.8818 -1.4817,-1.10717 -3.4121,-1.65459 -5.8075,-1.65459 -1.35,0 -2.8441,0.11113 -4.4822,0.2881 l -0.6298,-5.48239 c 7.6227,-1.30062 15.3235,-2.31314 23.1026,-3.11985 7.7997,-0.78614 15.5828,-1.15657 23.3949,-1.15657 6.5442,0 12.895,0.37043 19.1183,1.11129 6.2028,0.73676 12.0719,2.00856 17.5215,3.77841 5.47,1.74926 10.4997,4.09944 15.0518,7.00939 4.5316,2.92641 8.4541,6.54429 11.7674,10.91539 3.2968,4.35875 5.8529,9.47071 7.7009,15.4182 1.8192,5.88576 2.7494,12.7017 2.7494,20.45195 0,10.27331 -1.8316,19.40652 -5.4495,27.37904 -3.6507,7.96016 -8.7133,14.72672 -15.1959,20.22557 -6.4949,5.49886 -14.2121,9.69709 -23.1519,12.52471 -8.9192,2.86468 -18.6493,4.29289 -29.1942,4.29289 -3.054,0 -5.7581,-0.0782 -8.1043,-0.32104 -2.346,-0.19345 -4.6632,-0.38689 -6.9928,-0.64208 -2.3008,-0.22637 -4.758,-0.46509 -7.38,-0.65854 -2.6052,-0.19346 -5.7416,-0.30458 -9.3265,-0.30458"
       style="clip-rule:evenodd;fill:#0a7ea8;fill-opacity:1;fill-rule:nonzero;stroke:#0a7ea8;stroke-width:5.198;stroke-linejoin:round;stroke-miterlimit:2;stroke-dasharray:none;stroke-opacity:1"
       id="path49"
       transform="matrix(1.6727919,0,0,1.6727919,-2919.0031,-37.710903)" /></g></g></svg>
